<svg id="Layer_1" data-name="Layer 1" xmlns="http://www.w3.org/2000/svg" viewBox="0 0 400.19 400.19"><defs><style>.cls-1{fill:#fefefe;}.cls-2{fill:#eef0fe;}.cls-3{fill:#d3d7fe;}.cls-4{fill:#9359d4;}.cls-5{fill:#fcfcfe;}.cls-6{fill:#eae2f7;}</style></defs><title>img-09</title><path class="cls-1" d="M414,256.24q0,98,.1,196c0,3.42-.68,4.09-4.1,4.09q-196-.16-392,0c-3.42,0-4.1-.67-4.1-4.09q.18-196,0-392c0-3.43.68-4.1,4.1-4.1q196,.16,392,0c3.42,0,4.1.67,4.1,4.1Q413.91,158.23,414,256.24Zm-88,113c1.92,0,3-1.39,4-2.64,7.48-9.07,15.05-18,21-28.29,19.2-33,26.59-68.18,21-106.06-4.88-32.86-18.95-61.37-41.34-85.57a154.88,154.88,0,0,0-51.25-36.31c-29-12.9-59-17.16-90.31-12.2-33.51,5.3-62.32,20.14-86.76,43.32C87.07,156,75.54,173.41,67.11,192.87a163.78,163.78,0,0,0-13,55.32c-.76,12.27.63,24.46,2.74,36.62,5.59,32.07,20.08,59.57,42.35,83,12.78,13.45,28,23.71,44.67,32C174.65,415,207,419.45,240.65,414c26.48-4.31,50.35-15.3,71.71-31.6,3-2.28,6.55-4.05,7.66-8.12C322.3,372.92,325.78,373,326,369.24Z" transform="translate(-13.9 -56.14)"/><path class="cls-2" d="M320,374.27c-1.11,4.07-4.67,5.84-7.66,8.12-21.36,16.3-45.23,27.29-71.71,31.6-33.62,5.46-66,1-96.79-14.24-16.68-8.26-31.89-18.52-44.67-32-22.27-23.4-36.76-50.9-42.35-83-2.11-12.16-3.5-24.35-2.74-36.62a163.78,163.78,0,0,1,13-55.32c8.43-19.46,20-36.83,35.29-51.38,24.44-23.18,53.25-38,86.76-43.32,31.34-5,61.34-.7,90.31,12.2a154.88,154.88,0,0,1,51.25,36.31c22.39,24.2,36.46,52.71,41.34,85.57,5.63,37.88-1.76,73-21,106.06-6,10.28-13.54,19.22-21,28.29-1,1.25-2.12,2.65-4,2.64-4-2.49-8.57-2.86-12.94-4,.08-1.83.22-3.66.24-5.49.1-9.53-2.37-13.1-11-16,4.5-11.11.12-17.85-12-18.12-3.1-.07-4.37-.69-4.34-4.14.15-21.16.07-42.32.08-63.48,0-1.48-.15-2.95.9-4.28a22.85,22.85,0,0,1,25.93-7.41c4.4,1.56,8.06,4,8.54,9.34a6.35,6.35,0,0,0,2.32,4.84c2.49,1.71,1.79,3.18.46,5.29-6.55,10.42-12.93,21-19.4,31.44-.95,1.56-1.84,2.93-1.68,5A26.81,26.81,0,0,0,325,326.38c12.16,2.08,24.29-4.42,28.83-15.68,2.24-5.55,2.81-10.73-1.19-16.35-6.15-8.67-11.21-18.11-16.94-27.09-1.84-2.89-3.15-5.13.36-7.78,1.58-1.2,1.79-3.56,1.58-5.58a23.64,23.64,0,0,0-6.27-14.35c-10.79-11.39-29.67-14.24-44.75-6.34-3.14,1.65-5.29,2-7.44-1.06-2.78-4-5.65-4-8.49,0-1.93,2.69-3.82,3.17-7,1.24A31.28,31.28,0,0,0,247.44,229c-3.56,0-4.86-1.17-4.75-5,.3-9.32.32-18.66,0-28-.14-4.33,1-5.76,5.52-5.62,11,.34,22,.18,33,.09,7.68-.07,9.8-2.3,9.82-9.84,0-3.33,0-6.66,0-10a27.11,27.11,0,0,0-27.55-27c-38.32.08-76.64.08-115,.25-4,0-6.87-1-9.58-4-5.45-6.12-9-6.2-14.5-.25-3.57,3.86-7.24,5.53-12.69,5.07-7.23-.61-10.09,2.26-9.63,9.31.38,5.92-1.64,10.05-6,13.9-5,4.5-5.24,8.3-.14,12.66s6.65,9.12,6,15.34c-.3,2.95.52,6.49,3.61,6.94,6.52.93,5.64,4.76,4.72,9.15-.48,2.27-.56,4.62-.85,6.94-1.13,9.08-2.37,18.16-3.37,27.26-.45,4.14.76,4.79,4.5,3.07,2-.94,3.69-2.84,6.36-2.74,0,28.25.25,56.39-.14,84.51-.12,8.83-8.39,16.62-17.34,18.22-1.47.26-3,.45-4.43.75-1.06.21-1.88.82-1.78,2a2.15,2.15,0,0,0,2,1.91,17.56,17.56,0,0,0,3,.12q58.24,0,116.48,0a26.89,26.89,0,0,0,12.59-2.6c10.34-5.31,15.4-13.8,15.42-25.38,0-6.29-.35-12.5,2.69-18.51,1.86-3.67,2.28-8-1.14-11.62a6.65,6.65,0,0,1-1.55-4.64c0-14.33,0-28.66,0-43,0-1.23-.41-2.73,1.52-3.17,6.87-1.57,19.83,5.51,19.65,13.82-.43,20.65-.2,41.32-.08,62,0,3.31-.68,4.61-4.35,4.68-12.08.2-16.32,6.81-11.94,18.26-5.19,1-8.88,3.89-10.45,8.91a25.13,25.13,0,0,0-.27,12.37c-4.25-.33-8.2,1-12.13,2.27-1.46.48-3.66.89-3.33,3.05.28,1.74,2,2.31,3.73,2.77a117,117,0,0,0,28.41,3.83C275.76,377.42,298,378.1,320,374.27Z" transform="translate(-13.9 -56.14)"/><path class="cls-3" d="M313.1,365.22c4.37,1.16,9,1.53,12.94,4-.26,3.77-3.74,3.68-6,5-22,3.83-44.26,3.15-66.45,2.87a117,117,0,0,1-28.41-3.83c-1.73-.46-3.45-1-3.73-2.77-.33-2.16,1.87-2.57,3.33-3.05,3.93-1.29,7.88-2.6,12.13-2.27,1.93,3.19,4.8,4.11,8.45,4.09q29.66-.17,59.31,0C308.31,369.33,311.15,368.38,313.1,365.22Z" transform="translate(-13.9 -56.14)"/><path class="cls-4" d="M313.1,365.22c-2,3.16-4.79,4.11-8.45,4.09q-29.65-.17-59.31,0c-3.65,0-6.52-.9-8.45-4.09a25.13,25.13,0,0,1,.27-12.37c1.57-5,5.26-8,10.45-8.91-4.38-11.45-.14-18.06,11.94-18.26,3.67-.07,4.37-1.37,4.35-4.68-.12-20.66-.35-41.33.08-62,.18-8.31-12.78-15.39-19.65-13.82-1.93.44-1.51,1.94-1.52,3.17,0,14.33,0,28.66,0,43a6.65,6.65,0,0,0,1.55,4.64c3.42,3.63,3,7.95,1.14,11.62-3,6-2.68,12.22-2.69,18.51,0,11.58-5.08,20.07-15.42,25.38a26.89,26.89,0,0,1-12.59,2.6q-58.25,0-116.48,0a17.56,17.56,0,0,1-3-.12,2.15,2.15,0,0,1-2-1.91c-.1-1.2.72-1.81,1.78-2,1.47-.3,3-.49,4.43-.75,9-1.6,17.22-9.39,17.34-18.22.39-28.12.14-56.26.14-84.51-2.67-.1-4.32,1.8-6.36,2.74-3.74,1.72-5,1.07-4.5-3.07,1-9.1,2.24-18.18,3.37-27.26.29-2.32.37-4.67.85-6.94.92-4.39,1.8-8.22-4.72-9.15-3.09-.45-3.91-4-3.61-6.94.63-6.22-1-11.06-6-15.34s-4.9-8.16.14-12.66c4.32-3.85,6.34-8,6-13.9-.46-7,2.4-9.92,9.63-9.31,5.45.46,9.12-1.21,12.69-5.07,5.51-5.95,9-5.87,14.5.25,2.71,3.05,5.61,4,9.58,4,38.32-.17,76.64-.17,115-.25a27.11,27.11,0,0,1,27.55,27c0,3.34,0,6.67,0,10,0,7.54-2.14,9.77-9.82,9.84-11,.09-22,.25-33-.09-4.51-.14-5.66,1.29-5.52,5.62.32,9.32.3,18.66,0,28-.11,3.79,1.19,4.94,4.75,5a31.28,31.28,0,0,1,16.21,4.35c3.18,1.93,5.07,1.45,7-1.24,2.84-4,5.71-4,8.49,0,2.15,3.1,4.3,2.71,7.44,1.06,15.08-7.9,34-5.05,44.75,6.34a23.64,23.64,0,0,1,6.27,14.35c.21,2,0,4.38-1.58,5.58-3.51,2.65-2.2,4.89-.36,7.78,5.73,9,10.79,18.42,16.94,27.09,4,5.62,3.43,10.8,1.19,16.35C349.25,322,337.12,328.46,325,326.38a26.81,26.81,0,0,1-21.78-24.11c-.16-2.09.73-3.46,1.68-5,6.47-10.48,12.85-21,19.4-31.44,1.33-2.11,2-3.58-.46-5.29a6.35,6.35,0,0,1-2.32-4.84c-.48-5.33-4.14-7.78-8.54-9.34A22.85,22.85,0,0,0,287,253.75c-1.05,1.33-.9,2.8-.9,4.28,0,21.16.07,42.32-.08,63.48,0,3.45,1.24,4.07,4.34,4.14,12.11.27,16.49,7,12,18.12,8.61,2.86,11.08,6.43,11,16C313.32,361.56,313.18,363.39,313.1,365.22ZM248.43,148.11h-31c-17.49,0-35,0-52.47.07-1.45,0-4.15-1.29-4.12,1.81.08,6.52-.77,13,5.88,17.92,5.3,3.91,5.19,8.38.33,12.64s-6.87,9-6.15,15.3c.4,3.56-.84,7.09-4.88,7.54-4.82.53-4.26,3.32-3.83,6.55q2.37,17.82,4.59,35.65c.18,1.44.78,3.19-.54,4.26-1.65,1.32-3.15-.16-4.54-.93-5.38-3-10.71-6.09-16.06-9.14-6.14-3.5-14.18,1-14.18,8,0,25.49-.09,51,0,76.47,0,9.66-2.45,18.06-10.26,24.33-.28.23-.24.84-.4,1.44,34.84,0,69.48.21,104.12-.09,16.69-.15,26-12.47,22.93-29.67-1.05.62-2,1.17-3,1.76-16.65,10.44-37.23,1.23-40.58-18.09a9.18,9.18,0,0,1,1.5-7c6.57-10.41,12.94-21,19.42-31.43,1.08-1.76,2.19-3.1-.29-4.9s-2.82-4.72-2.49-7.7c1.18-10.51,9.77-19.67,21.76-22.64,3.12-.77,4.38-1.95,4.31-5.31-.25-12.49-.38-25-.23-37.47C238.54,173.79,235.48,159.11,248.43,148.11Zm-133.88,1c-8.52-.21-8.91-.19-8.4,7.41.41,6.13-2.39,10.13-6.66,13.68-3.26,2.71-3.6,5.48-.07,8.19,5.19,4,7.59,9.07,6.61,15.66-.7,4.72,1.81,6.57,6.11,6,6.63-.89,11.65,1.52,15.61,6.7,2.59,3.39,5.37,3,7.72-.13,3.84-5.15,8.71-7.1,15.14-6.63,5.84.43,6.74-.62,6.29-6.64s1.54-10.54,6.13-14.44,4.47-5.1-.09-9.12-6.87-8.45-5.93-14.46c.74-4.79-1.33-7-6.09-6.29-6,.9-10.53-1.35-14.53-5.81-4.29-4.78-5.46-4.69-9.95.13C123,147.06,119.37,150,114.55,149.1Zm149.3,37.25c6.16,0,12.32-.06,18.48,0,3.39,0,4.83-1.39,4.68-4.82-.17-4,.08-8-.06-12-.37-10.44-8.94-19.93-19.12-21.28A22.19,22.19,0,0,0,244,163.72c-2.1,6.82-.61,13.87-.9,20.81-.1,2.39,2,1.79,3.32,1.8C252.19,186.39,258,186.35,263.85,186.35Zm10.79,178.86c10,0,20-.11,29.95.06,3.51.06,4.57-1.25,4.6-4.67.07-10-2.53-12.55-12.68-12.47-14.64.1-29.27.05-43.91,0-9,0-11.95,2.92-12,11.81,0,4.18,1.57,5.46,5.63,5.37C255.67,365.05,265.16,365.21,274.64,365.21ZM152.4,244.49c-1.61-13.41-3-25.61-4.59-37.79-.5-3.83-3.11-2.86-5.09-1.36s-3.81,3.71-5.78,5.5c-3.49,3.18-7.12,3.37-10.68.12-1.84-1.68-3.53-3.52-5.31-5.28a4.2,4.2,0,0,0-4-1.4c-2,.48-1.67,2.23-1.86,3.65-.63,4.78-1.27,9.55-1.83,14.34-.83,7.1-1.6,14.21-2.49,22.2,6.37-3.61,11.82-6.46,17-9.72,2.82-1.78,5-1.61,7.74.11C140.66,238.09,146.09,240.93,152.4,244.49ZM268,289.71v26.47c0,9.52,0,9.33,9.3,9.52,3.7.07,4.79-.89,4.75-4.69-.2-19-.09-37.94-.09-56.92,0-10,0-9.79-9.8-9.94-3.76-.05-4.29,1.36-4.23,4.61C268.14,269.07,268,279.39,268,289.71Zm61.65,12.71c-6.16,0-12.32.12-18.47-.06-3.05-.09-3.74,1-3.16,3.83,1.9,9.18,11.62,16.56,21.82,16.4,10-.16,19.44-7.6,21.15-16.57.49-2.54,0-3.7-2.86-3.64C342,302.51,335.83,302.42,329.67,302.42Zm-109.17.18c-6,0-12,.15-18-.06-3.68-.13-4.24,1.3-3.28,4.47,2.7,8.93,11.82,15.46,21.61,15.31,9.53-.15,18.34-6.89,20.84-15.69.91-3.2-.05-4.17-3.25-4.08C232.48,302.72,226.49,302.6,220.5,302.6ZM200,298.25c11.89,0,22.7,0,33.51,0,5.54,0,6.4-1.25,3.63-5.92-5.35-9-10.93-17.86-16.71-27.26Zm109.15,0c13.33,0,25.58,0,37.84,0,1.84,0,2.54-.63,1.47-2.37-6.23-10.12-12.47-20.24-19-30.79ZM275,344.06c5.49,0,11,.09,16.47,0s8.53-2.74,8.62-7-2.87-7.06-8.34-7.12q-16.73-.18-33.44,0c-5.57.06-8.44,2.68-8.36,7.09s3.11,6.89,8.58,7S269.48,344.06,275,344.06Zm58.31-90.49a16.46,16.46,0,0,0-2.81-8.49c-9.55-14.46-31-14.39-42.68-8-1.76,1-1.68,1.6-.55,3.33,2.89,4.4,6.26,2.69,10,1.65,14-3.93,23.77,1,28.5,14.09.85,2.37,2.39,3.18,4.56,2.75C332.87,258.39,333.52,256.36,333.28,253.57Zm-116.58-.06c-.15,2.45-.1,4.91,3.05,5.3,2.42.3,3.89-.74,4.62-3.39,2.58-9.41,8.4-13.82,18.27-14.34a35.51,35.51,0,0,1,14.18,2.17c3.68,1.33,5.25-2.11,6.42-4.13s-1.89-2.35-3.34-3c-8.21-3.73-16.74-4-25.32-1.75C224.52,237,217.1,245.18,216.7,253.51Zm21.08,32,1-.43c0-11.76-.11-23.53.06-35.29.06-4.09-1.31-3.7-4.37-2.52-7.23,2.79-4.9,11.73-10.41,15.52a4.13,4.13,0,0,0,.57,1.3Q231.18,274.82,237.78,285.53Zm36.86-35.48V250c3.16,0,6.33.1,9.49,0a3.71,3.71,0,0,0,3.48-2.44c.52-1.44-.85-2-1.62-2.8-3.55-3.5-6.9-9.32-10.82-9.74-4.11-.44-7.14,6.09-10.8,9.41-1,.9-2.84,1.73-2,3.59.79,1.69,2.51,2.06,4.25,2.07C269.3,250.07,272,250.05,274.64,250.05Z" transform="translate(-13.9 -56.14)"/><path class="cls-5" d="M248.43,148.11c-13,11-9.89,25.68-10.05,39.42-.15,12.49,0,25,.23,37.47.07,3.36-1.19,4.54-4.31,5.31-12,3-20.58,12.13-21.76,22.64-.33,3,0,5.92,2.49,7.7s1.37,3.14.29,4.9c-6.48,10.47-12.85,21-19.42,31.43a9.18,9.18,0,0,0-1.5,7c3.35,19.32,23.93,28.53,40.58,18.09.94-.59,1.9-1.14,3-1.76,3,17.2-6.24,29.52-22.93,29.67-34.64.3-69.28.09-104.12.09.16-.6.12-1.21.4-1.44,7.81-6.27,10.3-14.67,10.26-24.33-.12-25.49-.05-51,0-76.47,0-7,8-11.53,14.18-8,5.35,3.05,10.68,6.14,16.06,9.14,1.39.77,2.89,2.25,4.54.93,1.32-1.07.72-2.82.54-4.26q-2.24-17.84-4.59-35.65c-.43-3.23-1-6,3.83-6.55,4-.45,5.28-4,4.88-7.54-.72-6.32,1.29-11,6.15-15.3s5-8.73-.33-12.64c-6.65-4.9-5.8-11.4-5.88-17.92,0-3.1,2.67-1.8,4.12-1.81,17.49-.1,35-.07,52.47-.07ZM196.25,221c8,0,15.95,0,23.92,0,1.62,0,3.8.19,4-2,.19-2.68-2.21-2.47-4-2.47q-23.43-.08-46.85,0c-1.78,0-4.24-.23-4.24,2.25s2.46,2.24,4.24,2.25C181,221,188.6,221,196.25,221ZM165,269.26c8.33,0,16.67,0,25,0,1.56,0,3.8.47,3.83-2s-2.21-2-3.78-2q-25.25,0-50.49,0c-1.6,0-3.73-.36-3.55,2.22.15,2.15,2.06,1.79,3.49,1.79C148,269.27,156.47,269.25,165,269.26ZM158.53,318c6.63,0,13.27,0,19.9,0,1.51,0,3.34-.16,3.46-2,.15-2.32-1.89-2.43-3.54-2.44q-19.4-.06-38.81,0c-1.65,0-3.74,0-3.7,2.28S138,318,139.62,318C145.92,318,152.23,318,158.53,318Zm37.74-121.58c8,0,15.94,0,23.91,0,1.51,0,3.81.64,3.92-1.78s-2-2.23-3.67-2.23q-23.66,0-47.32,0c-1.62,0-3.87-.22-3.91,2,0,2.79,2.54,2,4.16,2C181,196.46,188.64,196.41,196.27,196.41Zm-37.42,97c6.33,0,12.66,0,19,0,1.54,0,3.85.56,3.95-1.82s-2.08-2.19-3.74-2.2q-19.25,0-38.48,0c-1.68,0-3.79-.08-3.65,2.26s2.44,1.73,4,1.75C146.19,293.46,152.52,293.41,158.85,293.41Zm27.57-52.34c-4.81,0-9.61,0-14.42,0-1.28,0-2.91-.06-2.84,1.88.07,1.71,1.52,2.09,2.87,2.1q13.92.08,27.84,0c1.56,0,3.2-.32,3-2.37s-1.83-1.61-3.08-1.62C195.37,241,190.89,241.07,186.42,241.07Z" transform="translate(-13.9 -56.14)"/><path class="cls-6" d="M114.55,149.1c4.82.86,8.43-2,11.89-5.76,4.49-4.82,5.66-4.91,9.95-.13,4,4.46,8.49,6.71,14.53,5.81,4.76-.71,6.83,1.5,6.09,6.29-.94,6,1.45,10.5,5.93,14.46s4.55,5.33.09,9.12-6.58,8.4-6.13,14.44-.45,7.07-6.29,6.64c-6.43-.47-11.3,1.48-15.14,6.63-2.35,3.15-5.13,3.52-7.72.13-4-5.18-9-7.59-15.61-6.7-4.3.58-6.81-1.27-6.11-6,1-6.59-1.42-11.68-6.61-15.66-3.53-2.71-3.19-5.48.07-8.19,4.27-3.55,7.07-7.55,6.66-13.68C105.64,148.91,106,148.89,114.55,149.1Zm35.59,25.36a18.64,18.64,0,0,0-17.86-19c-10.2-.3-19.23,8.11-19.42,18.08-.2,10.82,7.86,19.52,18.21,19.67A18.6,18.6,0,0,0,150.14,174.46Z" transform="translate(-13.9 -56.14)"/><path class="cls-1" d="M263.85,186.35c-5.83,0-11.66,0-17.48,0-1.36,0-3.42.59-3.32-1.8.29-6.94-1.2-14,.9-20.81a22.19,22.19,0,0,1,23.88-15.43c10.18,1.35,18.75,10.84,19.12,21.28.14,4-.11,8,.06,12,.15,3.43-1.29,4.86-4.68,4.82C276.17,186.29,270,186.35,263.85,186.35Z" transform="translate(-13.9 -56.14)"/><path class="cls-1" d="M274.64,365.21c-9.48,0-19-.16-28.44.08-4.06.09-5.66-1.19-5.63-5.37.08-8.89,3-11.85,12-11.81,14.64.07,29.27.12,43.91,0,10.15-.08,12.75,2.49,12.68,12.47,0,3.42-1.09,4.73-4.6,4.67C294.61,365.1,284.62,365.21,274.64,365.21Z" transform="translate(-13.9 -56.14)"/><path class="cls-3" d="M152.4,244.49c-6.31-3.56-11.74-6.4-16.93-9.63-2.75-1.72-4.92-1.89-7.74-.11-5.19,3.26-10.64,6.11-17,9.72.89-8,1.66-15.1,2.49-22.2.56-4.79,1.2-9.56,1.83-14.34.19-1.42-.13-3.17,1.86-3.65a4.2,4.2,0,0,1,4,1.4c1.78,1.76,3.47,3.6,5.31,5.28,3.56,3.25,7.19,3.06,10.68-.12,2-1.79,3.67-3.9,5.78-5.5s4.59-2.47,5.09,1.36C149.41,218.88,150.79,231.08,152.4,244.49Z" transform="translate(-13.9 -56.14)"/><path class="cls-5" d="M268,289.71c0-10.32.12-20.64-.07-30.95-.06-3.25.47-4.66,4.23-4.61,9.8.15,9.8-.05,9.8,9.94,0,19-.11,38,.09,56.92,0,3.8-1.05,4.76-4.75,4.69-9.3-.19-9.3,0-9.3-9.52Z" transform="translate(-13.9 -56.14)"/><path class="cls-5" d="M329.67,302.42c6.16,0,12.32.09,18.48,0,2.85-.06,3.35,1.1,2.86,3.64-1.71,9-11.12,16.41-21.15,16.57-10.2.16-19.92-7.22-21.82-16.4-.58-2.81.11-3.92,3.16-3.83C317.35,302.54,323.51,302.42,329.67,302.42Z" transform="translate(-13.9 -56.14)"/><path class="cls-5" d="M220.5,302.6c6,0,12,.12,18-.05,3.2-.09,4.16.88,3.25,4.08-2.5,8.8-11.31,15.54-20.84,15.69-9.79.15-18.91-6.38-21.61-15.31-1-3.17-.4-4.6,3.28-4.47C208.52,302.75,214.51,302.6,220.5,302.6Z" transform="translate(-13.9 -56.14)"/><path class="cls-5" d="M200,298.25l20.43-33.19c5.78,9.4,11.36,18.26,16.71,27.26,2.77,4.67,1.91,5.91-3.63,5.92C222.7,298.26,211.89,298.25,200,298.25Z" transform="translate(-13.9 -56.14)"/><path class="cls-2" d="M309.15,298.23l20.35-33.15c6.49,10.55,12.73,20.67,19,30.79,1.07,1.74.37,2.37-1.47,2.37C334.73,298.22,322.48,298.23,309.15,298.23Z" transform="translate(-13.9 -56.14)"/><path class="cls-5" d="M275,344.06c-5.49,0-11,.1-16.47,0s-8.5-2.72-8.58-7,2.79-7,8.36-7.09q16.73-.18,33.44,0c5.47.06,8.43,2.76,8.34,7.12s-3.19,6.87-8.62,7S280.46,344.06,275,344.06Z" transform="translate(-13.9 -56.14)"/><path class="cls-5" d="M333.28,253.57c.24,2.79-.41,4.82-3,5.33-2.17.43-3.71-.38-4.56-2.75-4.73-13.13-14.55-18-28.5-14.09-3.71,1-7.08,2.75-10-1.65-1.13-1.73-1.21-2.36.55-3.33,11.64-6.39,33.13-6.46,42.68,8A16.46,16.46,0,0,1,333.28,253.57Z" transform="translate(-13.9 -56.14)"/><path class="cls-5" d="M216.7,253.51c.4-8.33,7.82-16.49,17.88-19.16,8.58-2.27,17.11-2,25.32,1.75,1.45.67,4.49,1,3.34,3s-2.74,5.46-6.42,4.13a35.51,35.51,0,0,0-14.18-2.17c-9.87.52-15.69,4.93-18.27,14.34-.73,2.65-2.2,3.69-4.62,3.39C216.6,258.42,216.55,256,216.7,253.51Z" transform="translate(-13.9 -56.14)"/><path class="cls-2" d="M237.78,285.53q-6.59-10.71-13.17-21.42a4.13,4.13,0,0,1-.57-1.3c5.51-3.79,3.18-12.73,10.41-15.52,3.06-1.18,4.43-1.57,4.37,2.52-.17,11.76-.06,23.53-.06,35.29Z" transform="translate(-13.9 -56.14)"/><path class="cls-5" d="M274.64,250.05c-2.67,0-5.34,0-8,0-1.74,0-3.46-.38-4.25-2.07-.86-1.86,1-2.69,2-3.59,3.66-3.32,6.69-9.85,10.8-9.41,3.92.42,7.27,6.24,10.82,9.74.77.76,2.14,1.36,1.62,2.8a3.71,3.71,0,0,1-3.48,2.44c-3.16.14-6.33,0-9.49,0Z" transform="translate(-13.9 -56.14)"/><path class="cls-4" d="M196.25,221c-7.65,0-15.29,0-22.93,0-1.78,0-4.24.22-4.24-2.25s2.46-2.25,4.24-2.25q23.43,0,46.85,0c1.75,0,4.15-.21,4,2.47-.16,2.2-2.34,2-4,2C212.2,221,204.22,221,196.25,221Z" transform="translate(-13.9 -56.14)"/><path class="cls-4" d="M165,269.25c-8.5,0-17,0-25.5,0-1.43,0-3.34.36-3.49-1.79-.18-2.58,2-2.22,3.55-2.22q25.25,0,50.49,0c1.57,0,3.81-.44,3.78,2s-2.27,2-3.83,2C181.64,269.28,173.3,269.26,165,269.25Z" transform="translate(-13.9 -56.14)"/><path class="cls-4" d="M158.53,318c-6.3,0-12.61,0-18.91,0-1.65,0-3.74,0-3.78-2.21s2-2.27,3.7-2.28q19.41,0,38.81,0c1.65,0,3.69.12,3.54,2.44-.12,1.88-1.95,2-3.46,2C171.8,318,165.16,318,158.53,318Z" transform="translate(-13.9 -56.14)"/><path class="cls-4" d="M196.27,196.41c-7.63,0-15.27.05-22.91,0-1.62,0-4.21.76-4.16-2,0-2.2,2.29-2,3.91-2q23.67,0,47.32,0c1.68,0,3.78-.07,3.67,2.23s-2.41,1.77-3.92,1.78C212.21,196.45,204.24,196.41,196.27,196.41Z" transform="translate(-13.9 -56.14)"/><path class="cls-4" d="M158.85,293.41c-6.33,0-12.66,0-19,0-1.51,0-3.81.69-4-1.75s2-2.26,3.65-2.26q19.25,0,38.48,0c1.66,0,3.83-.07,3.74,2.2s-2.41,1.8-3.95,1.82C171.51,293.45,165.18,293.41,158.85,293.41Z" transform="translate(-13.9 -56.14)"/><path class="cls-4" d="M186.42,241.07c4.47,0,9,0,13.42,0,1.25,0,2.95-.28,3.08,1.62s-1.49,2.37-3,2.37q-13.92,0-27.84,0c-1.35,0-2.8-.39-2.87-2.1-.07-1.94,1.56-1.86,2.84-1.88C176.81,241,181.61,241.07,186.42,241.07Z" transform="translate(-13.9 -56.14)"/><path class="cls-4" d="M150.14,174.46a18.6,18.6,0,0,1-19.07,18.79c-10.35-.15-18.41-8.85-18.21-19.67.19-10,9.22-18.38,19.42-18.08A18.64,18.64,0,0,1,150.14,174.46Zm-4-.48a14.3,14.3,0,0,0-14.75-14.21,14.58,14.58,0,0,0-14.48,14.62,14.75,14.75,0,0,0,14.85,14.82C139.93,189.06,146.2,182.42,146.12,174Z" transform="translate(-13.9 -56.14)"/><path class="cls-5" d="M146.12,174c.08,8.44-6.19,15.08-14.38,15.23a14.75,14.75,0,0,1-14.85-14.82,14.58,14.58,0,0,1,14.48-14.62A14.3,14.3,0,0,1,146.12,174Z" transform="translate(-13.9 -56.14)"/></svg>