<svg id="Layer_1" data-name="Layer 1" xmlns="http://www.w3.org/2000/svg" viewBox="0 0 400.2 400.15"><defs><style>.cls-1{fill:#fefefe;}.cls-2{fill:#edeaf4;}.cls-3{fill:#9359d4;}.cls-4{fill:#d3d7fe;}.cls-5{fill:#fdfdfe;}.cls-6{fill:#eae2f7;}.cls-7{fill:#fafafd;}.cls-8{fill:#fff;}.cls-9{fill:#eef0fe;}</style></defs><title>img-08</title><path class="cls-1" d="M14,456.24q0-198.18-.1-396.36c0-3.38,1.08-3.7,4-3.7q196.19.1,392.38,0c3.07,0,3.85.63,3.85,3.8q-.13,196.2,0,392.38c0,3.63-1,4-4.21,4Q212,456.17,14,456.24ZM59,229.12c-2.34,8-2.58,16.36-2.83,24.53-.41,13.72,1.58,27.33,4.86,40.7-.62.73-1.24,1.46-1.85,2.2s-1.64,1.73-.88,3c.91,1.53,2.17,1,3.39.42l9.45,24.58c-2.59,1-5.29.24-7.91.57-1.73.21-4.68-1.14-4.61,2,.06,2.48,2.66,1.92,4.41,2,3.66.08,7.33.12,11,.12H358.69c4.16,0,8.32-.06,12.48-.14,1.38,0,2.8-.26,2.84-2.06s-1.51-1.85-2.82-1.95c-3.14-.23-6.33.43-9.44-.44l2.49-7c2.54-7.1,6-13.91,6.78-21.56,1.24.45,2.38,2,3.84.59,1.24-1.23.36-2.33-.46-3.36-.49-.62-1-1.23-1.52-1.84.4-8.43,3-16.58,3.16-25.05.32-14.78-.21-29.47-3-44,.65-.06,1.31-.14,2-.15,7.2-.22,11.19-3.11,11.91-8.67.75-5.74-2.32-9.44-9.66-11.34a3.26,3.26,0,0,1-2.45-2c-2.55-5.39-7.06-8.09-12.78-9.07a87.74,87.74,0,0,0-11-21c-3.1-4.52-5.09-10.16-10.38-13,.55-2.59,1.09-5.18,1.65-7.77.2-1,.55-1.93.66-2.9.37-3.35-.92-5.91-4-7.22-4.19-1.76-6.93.5-9.31,4.24-1.58-3.6-4.35-4.78-7.61-5.13-.57-3.51-3.47-5.11-5.88-7.05C305.84,123,294.5,116.56,282.56,111c-29.94-13.94-61.28-18.25-93.66-12.42a156.72,156.72,0,0,0-67.1,28.86c-4.24,3.19-9.51,5.46-11.79,10.85-2.12.5-4.24,1.16-5.57,3s-2.06,1.25-3.28-.17c-2.17-2.52-5-3.28-8-1.63-3.28,1.76-3.88,4.71-3.2,8.1.66,3.23,1.35,6.45,2,9.68-5.86,4.07-8.89,10.45-12.31,16.24-3,5.11-7.52,9.79-7.56,16.36-8.7-.6-15.74,2.31-20,10.16-1.34,2.45-2.6,3.54-5.52,3.76-5.92.45-11,6.48-11.12,12.22a12.45,12.45,0,0,0,10.7,12.43C50.38,229,54.71,228.9,59,229.12ZM286.34,358.37c-4.32,0-8.65,0-13,0-1.58,0-3.25.36-3.12,2.34.11,1.72,1.79,1.77,3.11,1.77,8.65,0,17.3,0,25.95,0,1.34,0,3,0,3.08-1.77.13-2-1.45-2.36-3.07-2.37Zm-57.3,28c-4.31,0-8.63,0-12.94,0-1.34,0-2.87.12-3,1.87-.19,2.23,1.64,2.21,3.09,2.22q12.95.07,25.89,0c1.28,0,2.87.1,3-1.79.12-2.14-1.5-2.31-3-2.32C237.67,386.35,233.36,386.37,229,386.37Zm-54.42-39.12c4.33,0,8.65,0,13,0,1.46,0,3.27.23,3.27-2,0-1.79-1.5-2-2.87-2q-13.22,0-26.44,0c-1.43,0-2.8.34-2.78,2.11s1.49,1.9,2.87,1.9Zm-127.5-18c2.14-1.13,6.68,1.83,6.65-2.4,0-3.52-4.3-1.22-6.59-1.88a.82.82,0,0,0-.49,0c-2.1.58-6-1.45-5.92,2.13C40.87,330.47,44.77,328.56,47.12,329.24Zm338.76-4.47c-2.41,1.08-7-1.6-7.08,2.13s4.46,2,6.95,2.09c2.13,0,6,1.56,6.07-1.95C391.87,323.37,387.92,325.73,385.88,324.77Zm-127.06,37.7v0c.66,0,1.32.05,2,0,1.41-.12,3.33.24,3.4-1.85.07-2.33-1.89-2.27-3.55-2.29s-3.28,0-4.91.08a2.2,2.2,0,0,0-2.29,2.13c0,1.38,1.19,1.83,2.44,1.88C256.86,362.51,257.84,362.47,258.82,362.47Zm-57.4,28v0c1,0,2,.05,3,0,1.19-.07,2.42-.24,2.55-1.79a1.75,1.75,0,0,0-1.69-2.06c-2.91-.07-6-1.18-8.64.86a1.36,1.36,0,0,0,0,2.18,3.39,3.39,0,0,0,1.75.77A22.91,22.91,0,0,0,201.42,390.44Zm-53.34-43.23c1.16-.69,4.62,1.36,4.54-2-.07-3-3.33-1.75-5.28-2a13.92,13.92,0,0,0-3.47.11,1.88,1.88,0,0,0-1.8,2A1.81,1.81,0,0,0,144,347.2C145.15,347.27,146.32,347.21,148.08,347.21Zm96.48,15.3c1.47-.12,3.24-.1,3.05-2.22-.14-1.58-1.56-1.92-3-1.92-1.6,0-3.13.38-3,2.32C241.65,362.45,243.23,362.43,244.56,362.51Zm-54.19,25.9c-.31-1.84-1.69-2.09-3.27-2-1.42.06-2.82.49-2.8,2.09,0,2,1.8,2,3.27,2S190.22,390.26,190.37,388.41ZM136,345.28c-.17-1.74-1.41-2-2.83-2s-3.23.17-3,2.3c.15,1.83,1.74,1.68,3.06,1.7S135.91,347.18,136,345.28Z" transform="translate(-13.9 -56.16)"/><path class="cls-2" d="M110,138.29c2.28-5.39,7.55-7.66,11.79-10.85a156.72,156.72,0,0,1,67.1-28.86c32.38-5.83,63.72-1.52,93.66,12.42,11.94,5.56,23.28,12,33.55,20.31,2.41,1.94,5.31,3.54,5.88,7.05a26.58,26.58,0,0,0-4.18,2.63c-1.17,1.06-1.81,1.62-3.12.12-2.56-2.94-5.79-3.27-8.93-1.12-3.43,2.34-3.64,5.68-2.11,9.31,1,2.49,2,5,3.05,7.69-3.22.28-6.87-2.76-8.48,1.14s.19,7.49,3.24,10.3a19,19,0,0,0,5.87,3.71,31.43,31.43,0,0,1,3.68,1.55,5.06,5.06,0,0,1,2.84,5.82c-1.66,8.39-4.31,16.4-9.08,23.59-.73,1.09-1.41,2.22-2.93,2.5-6.83,1.25-16.11-4.38-17.84-11.1-1.21-4.67-1.94-9.46-3.1-14.14-2.39-9.62-7.84-12.85-17.43-10.26-5.13,1.39-10.17,3.11-15.25,4.68a9.93,9.93,0,0,1-10.92-2.9c-3.52-3.77-6.87-7.71-10.47-11.4-7.28-7.46-13.77-7.44-21.05.05-3.6,3.69-7,7.62-10.49,11.39a9.88,9.88,0,0,1-10.92,2.84c-4.76-1.51-9.49-3.07-14.27-4.48-10.23-3-15.56-.06-18.24,10.16-.84,3.22-1.39,6.51-2.08,9.76-2.44,11.41-5.38,14-17,15.24a4.44,4.44,0,0,1-4.91-2.31A66,66,0,0,1,119,180.49c-.77-3.9.57-6.36,4.45-7.63a17.79,17.79,0,0,0,9.07-5.91c2.07-2.75,3.68-6,1.76-9.22-1.78-3-4.79-.94-7.3-.67-.25,0-.54-.28-1-.56.92-2.11,1.79-4.25,2.77-6.35,1.87-4,2.19-7.93-2.12-10.5s-7.55-.65-10.16,3.21C115,140.23,112.62,139.07,110,138.29Z" transform="translate(-13.9 -56.16)"/><path class="cls-3" d="M110,138.29c2.61.78,5,1.94,6.45,4.57,2.61-3.86,5.94-5.75,10.16-3.21s4,6.46,2.12,10.5c-1,2.1-1.85,4.24-2.77,6.35.5.28.79.59,1,.56,2.51-.27,5.52-2.33,7.3.67,1.92,3.24.31,6.47-1.76,9.22a17.79,17.79,0,0,1-9.07,5.91c-3.88,1.27-5.22,3.73-4.45,7.63a66,66,0,0,0,8.83,22.64,4.44,4.44,0,0,0,4.91,2.31c11.63-1.29,14.57-3.83,17-15.24.69-3.25,1.24-6.54,2.08-9.76,2.68-10.22,8-13.19,18.24-10.16,4.78,1.41,9.51,3,14.27,4.48a9.88,9.88,0,0,0,10.92-2.84c3.53-3.77,6.89-7.7,10.49-11.39,7.28-7.49,13.77-7.51,21.05-.05,3.6,3.69,6.95,7.63,10.47,11.4a9.93,9.93,0,0,0,10.92,2.9c5.08-1.57,10.12-3.29,15.25-4.68,9.59-2.59,15,.64,17.43,10.26,1.16,4.68,1.89,9.47,3.1,14.14,1.73,6.72,11,12.35,17.84,11.1,1.52-.28,2.2-1.41,2.93-2.5,4.77-7.19,7.42-15.2,9.08-23.59a5.06,5.06,0,0,0-2.84-5.82,31.43,31.43,0,0,0-3.68-1.55,19,19,0,0,1-5.87-3.71c-3-2.81-4.82-6.45-3.24-10.3s5.26-.86,8.48-1.14c-1.06-2.68-2-5.2-3.05-7.69-1.53-3.63-1.32-7,2.11-9.31,3.14-2.15,6.37-1.82,8.93,1.12,1.31,1.5,1.95.94,3.12-.12a26.58,26.58,0,0,1,4.18-2.63c3.26.35,6,1.53,7.61,5.13,2.38-3.74,5.12-6,9.31-4.24,3.12,1.31,4.41,3.87,4,7.22-.11,1-.46,1.93-.66,2.9-.56,2.59-1.1,5.18-1.65,7.77-.23.61-.52,1.21-.69,1.84-4.9,18.54-10.74,36.7-20.91,53.17-.52.84-1.18,1.71-.83,2.77,1.77,5.53-.67,10.46-2.25,15.49-1.34,4.28-3.28,8.45-3.19,13,.07,3.85,1.33,7.7,5.92,7.71,10.26,0,18,4.65,25,11.7,9.57,9.72,19.47,19.12,29.22,28.66.51.61,1,1.22,1.52,1.84.82,1,1.7,2.13.46,3.36-1.46,1.46-2.6-.14-3.84-.59-10.32-10.38-20.57-20.83-31-31.12-13.16-13-28.08-13-41.23.14Q279.88,284,261,302.91q-9.18,9.19-18.35,18.39c-.66.66-1.76,1.27-1.39,2.41s1.67.78,2.58.85c1.16.09,2.33,0,3.5,0l114.38.05c3.11.87,6.3.21,9.44.44,1.31.1,2.86,0,2.82,1.95s-1.46,2-2.84,2.06c-4.16.08-8.32.14-12.48.14H74c-3.66,0-7.33,0-11-.12-1.75,0-4.35.52-4.41-2-.07-3.18,2.88-1.83,4.61-2,2.62-.33,5.32.38,7.91-.58H196.69c-1.95-2.11-2.92-3.22-3.95-4.27q-27.5-27.63-55-55.24c-12.49-12.5-27.26-12.84-40.14-.53C85.43,276.1,73.65,288.11,61.71,300c-1.22.54-2.48,1.11-3.39-.42-.76-1.25.17-2.11.88-3s1.23-1.47,1.85-2.2c10.8-10.57,21.63-21.11,32.38-31.72,5.69-5.62,12.07-9.78,20.18-11,4.51-.68,6.25-4.08,6.37-8.22a18.17,18.17,0,0,0-1.11-6.34c-5-14.34-6.33-29.68-14.36-43.25C98,182.73,95.86,169.54,92,157.23c-.67-3.23-1.36-6.45-2-9.68-.68-3.39-.08-6.34,3.2-8.1,3.07-1.65,5.86-.89,8,1.63,1.22,1.42,1.93,2,3.28.17S107.89,138.79,110,138.29ZM218.49,324.22c4,0,8-.13,12,0a7.48,7.48,0,0,0,6.14-2.46Q266.21,292,296,262.4a7.06,7.06,0,0,0,2.14-6.65,74.42,74.42,0,0,0-14.91-35.52c-30.72-40.68-85.66-45.76-123.42-11.61-12.83,11.61-20.75,26.26-24.56,43.09-.52,2.28-1.09,4.51,1.27,6.82,18.44,18.07,37,36,54.85,54.68C199.08,321.28,206.65,327.4,218.49,324.22Zm-86.21-115c3.13,3,5,4.91,7,6.65,5.11,4.49,5.13,4.46,9.39-1,24-30.86,68.75-41.44,104-24.68a88.14,88.14,0,0,1,32.76,26.29c1,1.28,1.75,4.05,4,2.4,3.54-2.52,7.28-5,10-9.68-14.14-.25-19.68-8.38-21.22-20.59a50,50,0,0,0-2.42-9.65c-1.46-4.36-4.39-6.59-9.22-5.16s-9.62,2.64-14.31,4.3c-8.27,2.93-14.91.86-20.49-5.74a111.11,111.11,0,0,0-9.18-9.85c-4.85-4.51-7.69-4.5-12.5,0a124.14,124.14,0,0,0-10.38,10.77c-5.2,6.19-11.45,7.37-18.83,5-4.9-1.58-9.84-3-14.79-4.45-4.64-1.31-7.84.35-9.24,5-1,3.18-2.17,6.35-2.54,9.61C152.94,200.82,147.26,209,132.28,209.18ZM131,160.3c-3.3.84-6.07,2.17-8.17-.35-2.27-2.7-.41-5.34.59-7.93.6-1.54,1.23-3.09,1.94-4.59.94-2,.68-3.67-1.43-4.53s-3.07.74-3.79,2.28c-1.19,2.56-2.21,5.2-3.34,7.79-.46,1.06-1,2.33-2.4,2.12-1.62-.24-2-1.7-2-3.06,0-2,.39-4,.27-5.95-.12-1.8-1.11-3.24-3.19-3.08-1.83.13-2.48,1.44-2.52,3.13,0,2-.1,4-.16,6,0,1.22-.24,2.44-1.66,2.69s-2.08-.81-2.6-1.89c-1.08-2.24-2.1-4.52-3.18-6.77-.78-1.61-1.37-3.82-3.76-3.13-2.78.81-1.87,3.26-1.44,5.06,4.67,19.24,9.83,38.34,19.33,55.89,6,11,13,21.22,24,28.13a16.19,16.19,0,0,1,1.76-3.32c3.52-4,1.93-6.33-1.79-9.34A61.89,61.89,0,0,1,115.75,184c-2.08-9.15-.83-11.72,7.76-15.57C127,166.92,129.93,165.05,131,160.3Zm171.28,1c1.22,4.34,1.85,4.92,8.48,7.89,6.17,2.77,7.93,6.16,6.64,12.66-3,15.07-10.2,27.84-22.16,37.37-4.52,3.59-4.52,6-1.75,10.32,1.59,2.49,2.5,2.25,4.39.77a62.42,62.42,0,0,0,11-10.78c16.74-21.44,23.45-47,29.85-72.68.38-1.55.4-3.13-1.43-3.74s-2.84.41-3.56,1.92a44.78,44.78,0,0,1-2.38,4.93c-1.15,1.79-1,5.47-4,4.76-2.58-.6-1.29-3.71-1.53-5.74-.14-1.15,0-2.34-.19-3.48a2.72,2.72,0,0,0-3.13-2.53,2.58,2.58,0,0,0-2.45,2.68c-.07,1.49.05,3-.1,4.49-.17,1.68,1,4.22-1.39,4.75-2.69.6-2.75-2.33-3.6-4s-1.58-3.65-2.38-5.47-2.13-3.16-4.28-2.19-1.6,2.72-1,4.31c1,2.64,2.36,5.15,3.22,7.83,1.14,3.53-.7,5.84-4.36,6C304.89,161.41,303.61,160.53,302.32,161.32ZM314,219.9c-5.11,6.11-9.61,11.19-15.39,14.9-1.3.84-1.81,1.75-1.13,3.3,2.46,5.64,3.53,11.69,4.93,17.87,2.56-1.1,5-2.11,7.38-3.18,1-.45,1.68-1.15.91-2.3-4.08-6.13-1.27-12.1.35-18.13C312.05,228.57,314,225,314,219.9ZM130.53,254.16c.63-2.61.79-5.23,1.88-7.38,3.67-7.27,3-12.82-4.58-17.35-3.32-2-5.6-5.74-8.35-8.69l-1.16.91c1.35,4.39,2.74,8.76,4.05,13.16,1.24,4.14,3,8.56,1,12.6-2,3.85-.77,4.86,2.74,5.41A37.15,37.15,0,0,1,130.53,254.16Z" transform="translate(-13.9 -56.16)"/><path class="cls-4" d="M61.71,300c11.94-11.84,23.72-23.85,35.88-35.47,12.88-12.31,27.65-12,40.14.53q27.54,27.57,55,55.24c1,1.05,2,2.16,3.95,4.27H71.16Z" transform="translate(-13.9 -56.16)"/><path class="cls-4" d="M361.75,324.63l-114.38-.05c-1.17,0-2.34.07-3.5,0-.91-.07-2.17.4-2.58-.85s.73-1.75,1.39-2.41q9.15-9.23,18.35-18.39,18.89-18.9,37.79-37.79C312,252,326.89,252,340.05,265c10.4,10.29,20.65,20.74,31,31.12-.78,7.65-4.24,14.46-6.78,21.56Z" transform="translate(-13.9 -56.16)"/><path class="cls-2" d="M372.88,291.49c-9.75-9.54-19.65-18.94-29.22-28.66-7-7-14.71-11.67-25-11.7-4.59,0-5.85-3.86-5.92-7.71-.09-4.56,1.85-8.73,3.19-13,1.58-5,4-10,2.25-15.49-.35-1.06.31-1.93.83-2.77,10.17-16.47,16-34.63,20.91-53.17.17-.63.46-1.23.69-1.84,5.29,2.84,7.28,8.48,10.38,13a87.74,87.74,0,0,1,11,21c-6.68.07-11.89,2.75-15,8.79a4,4,0,0,1-3.38,2.31c-5.81,1-9.68,5.61-9.2,10.5.58,5.85,4.8,9.45,11.23,9.51,9.13.08,18.26.11,27.39.17,2.81,14.55,3.34,29.24,3,44C375.85,274.91,373.28,283.06,372.88,291.49Z" transform="translate(-13.9 -56.16)"/><path class="cls-2" d="M92,157.23c3.91,12.31,6,25.5,12.56,36.58,8,13.57,9.41,28.91,14.36,43.25A18.17,18.17,0,0,1,120,243.4c-.12,4.14-1.86,7.54-6.37,8.22-8.11,1.23-14.49,5.39-20.18,11-10.75,10.61-21.58,21.15-32.38,31.72-3.28-13.37-5.27-27-4.86-40.7.25-8.17.49-16.52,2.83-24.53,9.95-.08,19.9,0,29.84-.27,7.89-.19,13.47-5.35,13.75-12.26.27-6.43-4.54-11.7-12-12.87-1.75-.28-3-.53-3.83-2.39-2.89-6.31-8-10-14.7-11.5,0-6.57,4.56-11.25,7.56-16.36C83.06,167.68,86.09,161.3,92,157.23Z" transform="translate(-13.9 -56.16)"/><path class="cls-3" d="M72.08,189.83c6.72,1.5,11.81,5.19,14.7,11.5.85,1.86,2.08,2.11,3.83,2.39,7.46,1.17,12.27,6.44,12,12.87-.28,6.91-5.86,12.07-13.75,12.26-9.94.25-19.89.19-29.84.27-4.31-.22-8.64-.17-12.9-.72A12.45,12.45,0,0,1,35.42,216c.07-5.74,5.2-11.77,11.12-12.22,2.92-.22,4.18-1.31,5.52-3.76C56.34,192.14,63.38,189.23,72.08,189.83ZM68.5,224.6v0c7,0,14,.18,21-.05,5.73-.19,9-3.68,8.72-8.73s-4-8.17-9.62-7.62c-2.89.28-4-.41-4.93-3.25C81.41,197.84,76.07,194,69.23,194c-7-.08-12.42,3.78-14.82,11.08-.83,2.53-1.74,3.41-4.52,3.12-6-.61-9.87,2.52-10.07,7.62s3.2,8.63,9.19,8.77C55.5,224.72,62,224.6,68.5,224.6Z" transform="translate(-13.9 -56.16)"/><path class="cls-3" d="M373,222.42c-9.13-.06-18.26-.09-27.39-.17-6.43-.06-10.65-3.66-11.23-9.51-.48-4.89,3.39-9.46,9.2-10.5a4,4,0,0,0,3.38-2.31c3.14-6,8.35-8.72,15-8.79,5.72,1,10.23,3.68,12.78,9.07a3.26,3.26,0,0,0,2.45,2c7.34,1.9,10.41,5.6,9.66,11.34-.72,5.56-4.71,8.45-11.91,8.67C374.33,222.28,373.67,222.36,373,222.42Zm-12.36-4.21c5.31,0,10.63.08,15.95,0,3.94-.08,6.4-2.23,6.26-6.19s-2.75-6.11-6.67-5.61c-2.7.34-3.87-.36-4.67-2.93-1.61-5.21-5.56-8-10.82-8s-9.12,2.87-10.7,8.13c-.7,2.34-1.95,3-4.41,2.72-3.93-.5-6.42,1.52-6.88,5.44-.45,3.72,2.24,6.33,6.48,6.41C350.35,218.3,355.5,218.22,360.66,218.21Z" transform="translate(-13.9 -56.16)"/><path class="cls-3" d="M286.34,358.37h13c1.62,0,3.2.38,3.07,2.37-.12,1.75-1.74,1.77-3.08,1.77-8.65,0-17.3,0-25.95,0-1.32,0-3-.05-3.11-1.77-.13-2,1.54-2.32,3.12-2.34C277.69,358.35,282,358.37,286.34,358.37Z" transform="translate(-13.9 -56.16)"/><path class="cls-3" d="M229,386.37c4.32,0,8.63,0,13,0,1.55,0,3.17.18,3,2.32-.11,1.89-1.7,1.79-3,1.79q-12.94,0-25.89,0c-1.45,0-3.28,0-3.09-2.22.15-1.75,1.68-1.86,3-1.87C220.41,386.35,224.73,386.37,229,386.37Z" transform="translate(-13.9 -56.16)"/><path class="cls-3" d="M174.62,347.25h-13c-1.38,0-2.85-.05-2.87-1.9s1.35-2.1,2.78-2.11q13.22,0,26.44,0c1.37,0,2.86.21,2.87,2,0,2.23-1.81,2-3.27,2C183.27,347.28,179,347.25,174.62,347.25Z" transform="translate(-13.9 -56.16)"/><path class="cls-3" d="M47.12,329.24c-2.35-.68-6.25,1.23-6.35-2.15-.11-3.58,3.82-1.55,5.92-2.13a.82.82,0,0,1,.49,0c2.29.66,6.56-1.64,6.59,1.88C53.8,331.07,49.26,328.11,47.12,329.24Z" transform="translate(-13.9 -56.16)"/><path class="cls-3" d="M385.88,324.77c2,1,6-1.4,5.94,2.27-.05,3.51-3.94,2-6.07,1.95-2.49-.06-7,1.7-6.95-2.09S383.47,325.85,385.88,324.77Z" transform="translate(-13.9 -56.16)"/><path class="cls-3" d="M258.82,362.47c-1,0-2,0-2.94,0-1.25,0-2.43-.5-2.44-1.88a2.2,2.2,0,0,1,2.29-2.13c1.63-.11,3.27-.09,4.91-.08s3.62,0,3.55,2.29c-.07,2.09-2,1.73-3.4,1.85-.65.06-1.31,0-2,0Z" transform="translate(-13.9 -56.16)"/><path class="cls-3" d="M201.42,390.44a22.91,22.91,0,0,1-3,0,3.39,3.39,0,0,1-1.75-.77,1.36,1.36,0,0,1,0-2.18c2.66-2,5.73-.93,8.64-.86a1.75,1.75,0,0,1,1.69,2.06c-.13,1.55-1.36,1.72-2.55,1.79-1,.07-2,0-3,0Z" transform="translate(-13.9 -56.16)"/><path class="cls-3" d="M148.08,347.21c-1.76,0-2.93.06-4.09,0a1.81,1.81,0,0,1-1.92-1.83,1.88,1.88,0,0,1,1.8-2,13.92,13.92,0,0,1,3.47-.11c1.95.22,5.21-1.05,5.28,2C152.7,348.57,149.24,346.52,148.08,347.21Z" transform="translate(-13.9 -56.16)"/><path class="cls-3" d="M244.56,362.51c-1.33-.08-2.91-.06-3-1.82-.08-1.94,1.45-2.31,3-2.32,1.41,0,2.83.34,3,1.92C247.8,362.41,246,362.39,244.56,362.51Z" transform="translate(-13.9 -56.16)"/><path class="cls-3" d="M190.37,388.41c-.15,1.85-1.41,2.1-2.8,2.08s-3.25,0-3.27-2c0-1.6,1.38-2,2.8-2.09C188.68,386.32,190.06,386.57,190.37,388.41Z" transform="translate(-13.9 -56.16)"/><path class="cls-3" d="M136,345.28c-.09,1.9-1.43,2-2.82,2s-2.91.13-3.06-1.7c-.18-2.13,1.48-2.28,3-2.3S135.83,343.54,136,345.28Z" transform="translate(-13.9 -56.16)"/><path class="cls-5" d="M218.49,324.22c-11.84,3.18-19.41-2.94-27.13-11-17.85-18.64-36.41-36.61-54.85-54.68-2.36-2.31-1.79-4.54-1.27-6.82,3.81-16.83,11.73-31.48,24.56-43.09,37.76-34.15,92.7-29.07,123.42,11.61a74.42,74.42,0,0,1,14.91,35.52A7.06,7.06,0,0,1,296,262.4Q266.2,292,236.63,321.8a7.48,7.48,0,0,1-6.14,2.46C226.49,324.09,222.49,324.22,218.49,324.22Zm-2.57-11.85c18.94.19,34-11.35,38.2-29.37,1.56-6.61-.91-9.35-7.77-8.59-5.29.58-10.56,1.47-15.86,1.76a211.65,211.65,0,0,1-44.28-1.73c-6.81-1.05-9.26,2-7.61,8.73C182.93,300.84,197.42,312.18,215.92,312.37Zm.53-116.07A50.79,50.79,0,0,0,199.34,198c-1.67.45-4.05.51-4.09,2.85s2.22,2.82,3.91,3.21c11.73,2.72,23.48,3.27,35.13-.51,1.33-.43,3.37-.38,3.29-2.38s-1.75-2.62-3.43-3.07A53.81,53.81,0,0,0,216.45,196.3Zm47.09,68c3.64,0,7.3.15,7.11-3.66-.17-3.48-3.71-4.36-6.86-4.31-3,0-6.44,1.06-6.42,4.23C257.4,264.51,261.36,264.08,263.54,264.26Zm-94.29,0c2.19-.28,5.8.48,5.67-3.81-.11-3.81-3.36-4.3-6.22-4.1-2.63.19-6.4,0-6.51,3.82C162.08,264.38,165.66,264.3,169.25,264.26Zm23.7-25.2c-.34-3-1.95-5.06-5-5.22a4.83,4.83,0,0,0-5.3,4.84c-.22,3.27,1.61,5.47,5,5.5C190.83,244.21,192.31,242,193,239.06Zm57.13-.3c-.3-3.12-2.23-5-5.17-4.91-3.16.12-5.24,2.16-4.93,5.62.28,3.12,2.24,4.9,5.33,4.66S250,242,250.08,238.76Z" transform="translate(-13.9 -56.16)"/><path class="cls-6" d="M132.28,209.18c15-.23,20.66-8.36,22.09-20.83.37-3.26,1.58-6.43,2.54-9.61,1.4-4.67,4.6-6.33,9.24-5,4.95,1.4,9.89,2.87,14.79,4.45,7.38,2.39,13.63,1.21,18.83-5a124.14,124.14,0,0,1,10.38-10.77c4.81-4.48,7.65-4.49,12.5,0a111.11,111.11,0,0,1,9.18,9.85c5.58,6.6,12.22,8.67,20.49,5.74,4.69-1.66,9.53-2.89,14.31-4.3s7.76.8,9.22,5.16a50,50,0,0,1,2.42,9.65c1.54,12.21,7.08,20.34,21.22,20.59-2.74,4.68-6.48,7.16-10,9.68-2.29,1.65-3.06-1.12-4-2.4a88.14,88.14,0,0,0-32.76-26.29c-35.29-16.76-80.07-6.18-104,24.68-4.26,5.49-4.28,5.52-9.39,1C137.25,214.09,135.41,212.19,132.28,209.18Z" transform="translate(-13.9 -56.16)"/><path class="cls-7" d="M131,160.3c-1.11,4.75-4.08,6.62-7.53,8.17-8.59,3.85-9.84,6.42-7.76,15.57a61.89,61.89,0,0,0,21.81,35.4c3.72,3,5.31,5.37,1.79,9.34a16.19,16.19,0,0,0-1.76,3.32c-11.08-6.91-18.08-17.13-24-28.13-9.5-17.55-14.66-36.65-19.33-55.89-.43-1.8-1.34-4.25,1.44-5.06,2.39-.69,3,1.52,3.76,3.13,1.08,2.25,2.1,4.53,3.18,6.77.52,1.08,1.2,2.14,2.6,1.89s1.62-1.47,1.66-2.69c.06-2,.11-4,.16-6,0-1.69.69-3,2.52-3.13,2.08-.16,3.07,1.28,3.19,3.08.12,2-.27,4-.27,5.95,0,1.36.36,2.82,2,3.06,1.42.21,1.94-1.06,2.4-2.12,1.13-2.59,2.15-5.23,3.34-7.79.72-1.54,1.73-3.12,3.79-2.28s2.37,2.54,1.43,4.53c-.71,1.5-1.34,3-1.94,4.59-1,2.59-2.86,5.23-.59,7.93C125,162.47,127.74,161.14,131,160.3Z" transform="translate(-13.9 -56.16)"/><path class="cls-7" d="M302.32,161.32c1.29-.79,2.57.09,3.87.05,3.66-.11,5.5-2.42,4.36-6-.86-2.68-2.21-5.19-3.22-7.83-.6-1.59-1-3.41,1-4.31s3.45.31,4.28,2.19,1.47,3.71,2.38,5.47.91,4.57,3.6,4c2.38-.53,1.22-3.07,1.39-4.75.15-1.49,0-3,.1-4.49a2.58,2.58,0,0,1,2.45-2.68,2.72,2.72,0,0,1,3.13,2.53c.19,1.14,0,2.33.19,3.48.24,2-1.05,5.14,1.53,5.74,3.06.71,2.88-3,4-4.76a44.78,44.78,0,0,0,2.38-4.93c.72-1.51,1.85-2.49,3.56-1.92s1.81,2.19,1.43,3.74c-6.4,25.68-13.11,51.24-29.85,72.68a62.42,62.42,0,0,1-11,10.78c-1.89,1.48-2.8,1.72-4.39-.77-2.77-4.32-2.77-6.73,1.75-10.32,12-9.53,19.17-22.3,22.16-37.37,1.29-6.5-.47-9.89-6.64-12.66C304.17,166.24,303.54,165.66,302.32,161.32Z" transform="translate(-13.9 -56.16)"/><path class="cls-6" d="M314,219.9c0,5.08-1.93,8.67-3,12.46-1.62,6-4.43,12-.35,18.13.77,1.15.1,1.85-.91,2.3-2.4,1.07-4.82,2.08-7.38,3.18-1.4-6.18-2.47-12.23-4.93-17.87-.68-1.55-.17-2.46,1.13-3.3C304.37,231.09,308.87,226,314,219.9Z" transform="translate(-13.9 -56.16)"/><path class="cls-6" d="M130.53,254.16a37.15,37.15,0,0,0-4.43-1.34c-3.51-.55-4.69-1.56-2.74-5.41,2-4,.25-8.46-1-12.6-1.31-4.4-2.7-8.77-4.05-13.16l1.16-.91c2.75,2.95,5,6.69,8.35,8.69,7.55,4.53,8.25,10.08,4.58,17.35C131.32,248.93,131.16,251.55,130.53,254.16Z" transform="translate(-13.9 -56.16)"/><path class="cls-8" d="M68.5,224.6c-6.5,0-13,.12-19.49,0-6-.14-9.4-3.55-9.19-8.77s4.07-8.23,10.07-7.62c2.78.29,3.69-.59,4.52-3.12,2.4-7.3,7.82-11.16,14.82-11.08,6.84.07,12.18,3.87,14.42,10.93.91,2.84,2,3.53,4.93,3.25,5.64-.55,9.38,2.65,9.62,7.62s-3,8.54-8.72,8.73c-7,.23-14,.05-21,.05Z" transform="translate(-13.9 -56.16)"/><path class="cls-5" d="M360.66,218.21c-5.16,0-10.31.09-15.46,0-4.24-.08-6.93-2.69-6.48-6.41.46-3.92,2.95-5.94,6.88-5.44,2.46.31,3.71-.38,4.41-2.72,1.58-5.26,5.46-8.07,10.7-8.13s9.21,2.76,10.82,8c.8,2.57,2,3.27,4.67,2.93,3.92-.5,6.54,1.63,6.67,5.61s-2.32,6.11-6.26,6.19C371.29,218.29,366,218.21,360.66,218.21Z" transform="translate(-13.9 -56.16)"/><path class="cls-3" d="M215.92,312.37c-18.5-.19-33-11.53-37.32-29.2-1.65-6.73.8-9.78,7.61-8.73a211.65,211.65,0,0,0,44.28,1.73c5.3-.29,10.57-1.18,15.86-1.76,6.86-.76,9.33,2,7.77,8.59C249.87,301,234.86,312.56,215.92,312.37Zm34.31-31c.63-3.76-1.8-3.07-4-2.79-12.69,1.61-25.36,2.79-38.21,1.93-7.46-.5-14.91-.88-22.29-2.09-3.32-.55-4.23.64-3.29,3.85a39.71,39.71,0,0,0,5.61,12.14c1.25,1.76,2.51,2.32,4.61,1.53,15.72-5.86,31.48-5.75,47.23-.09,1.68.61,3.06.87,4.34-.93A32.54,32.54,0,0,0,250.23,281.37Zm-56.6,18.39c11.6,10.26,31.33,11.18,42.58,2.59,1.41-1.07,3.61-2.41,0-3.52C222.16,294.49,208.21,294.73,193.63,299.76Z" transform="translate(-13.9 -56.16)"/><path class="cls-9" d="M216.45,196.3a53.81,53.81,0,0,1,17.7,1.84c1.68.45,3.35,1.19,3.43,3.07s-2,1.95-3.29,2.38c-11.65,3.78-23.4,3.23-35.13.51-1.69-.39-3.95-1-3.91-3.21s2.42-2.4,4.09-2.85A50.79,50.79,0,0,1,216.45,196.3Z" transform="translate(-13.9 -56.16)"/><path class="cls-4" d="M263.54,264.26c-2.18-.18-6.14.25-6.17-3.74,0-3.17,3.44-4.18,6.42-4.23,3.15-.05,6.69.83,6.86,4.31C270.84,264.41,267.18,264.28,263.54,264.26Z" transform="translate(-13.9 -56.16)"/><path class="cls-4" d="M169.25,264.26c-3.59,0-7.17.12-7.06-4.09.11-3.81,3.88-3.63,6.51-3.82,2.86-.2,6.11.29,6.22,4.1C175.05,264.74,171.44,264,169.25,264.26Z" transform="translate(-13.9 -56.16)"/><path class="cls-3" d="M193,239.06c-.64,3-2.12,5.15-5.28,5.12-3.42,0-5.25-2.23-5-5.5a4.83,4.83,0,0,1,5.3-4.84C191,234,192.61,236.07,193,239.06Z" transform="translate(-13.9 -56.16)"/><path class="cls-3" d="M250.08,238.76c-.05,3.2-1.74,5.14-4.77,5.37s-5.05-1.54-5.33-4.66c-.31-3.46,1.77-5.5,4.93-5.62C247.85,233.73,249.78,235.64,250.08,238.76Z" transform="translate(-13.9 -56.16)"/><path class="cls-4" d="M250.23,281.37a32.54,32.54,0,0,1-6,13.55c-1.28,1.8-2.66,1.54-4.34.93-15.75-5.66-31.51-5.77-47.23.09-2.1.79-3.36.23-4.61-1.53a39.71,39.71,0,0,1-5.61-12.14c-.94-3.21,0-4.4,3.29-3.85,7.38,1.21,14.83,1.59,22.29,2.09,12.85.86,25.52-.32,38.21-1.93C248.43,278.3,250.86,277.61,250.23,281.37Z" transform="translate(-13.9 -56.16)"/><path class="cls-7" d="M193.63,299.76c14.58-5,28.53-5.27,42.59-.93,3.6,1.11,1.4,2.45,0,3.52C225,310.94,205.23,310,193.63,299.76Z" transform="translate(-13.9 -56.16)"/></svg>