<svg id="Layer_1" data-name="Layer 1" xmlns="http://www.w3.org/2000/svg" viewBox="0 0 325.1 348.53"><defs><style>.cls-1{fill:#eef0fe;}.cls-2{fill:#9359d4;}.cls-3{fill:#d4d8fe;}.cls-4{fill:#eae2f7;}.cls-5{fill:#fbfbfe;}.cls-6{fill:#ebe7f7;}</style></defs><title>img-01</title><path class="cls-1" d="M178.65,113.16a235.53,235.53,0,0,1,40.59-3c19.59.11,38.19,4.72,56.08,12A154.43,154.43,0,0,1,327,156.86c22.85,23,37.13,50.8,43.66,82.42a162.73,162.73,0,0,1,3,30.06c.09,5.2-.59,10.56-.73,15.86a2,2,0,0,1-1.77,2.06c-1.08-10.82-5.07-20.35-12.94-27.95-4.05-3.91-4.82-8.28-3.94-13.62a41.49,41.49,0,0,0-3.82-25.26,13.93,13.93,0,0,0-10.16-8.09c-2.73-.55-4.45.25-5.16,3.14-3,12.28-7.07,24.31-8.89,36.84-1.59,10.93-1.29,21.58,6.81,30.53,4.42,4.88,4.79,9.71,1.75,14.6-2.79,4.5-8.21,6.51-14,5.2-9.33-2.11-14.65-9.17-14.67-19.87q-.07-41.5,0-83c0-9.8-1.48-19.22-5.78-28.1-13.07-27-42.29-41.35-71-34.89-29.18,6.57-49.32,31.79-49.43,62.09-.09,23.5,0,47,0,70.5v5.32c-10.29-3.15-17.67,1.67-17.09,10.59.31,4.88,3.21,7.88,7.52,9.67,2.51,1.05,3.68,2.59,1.56,4.86-3.94,4.22-13.49,4.36-18.1.43a11.6,11.6,0,0,1-1.21-16.92c7.2-7.95,8.91-17.2,7.63-27.36a12.28,12.28,0,0,1,.66-5.35c4.83-15.43,1.32-29.05-9.75-40.5-18.8-19.44-54.91-20.8-75.44-3.17-16.13,13.84-19.65,33.72-9.19,52.19A96.38,96.38,0,0,0,79.1,275.91c4.77,5.32,9.2,11,13.77,16.46-.61-.63-3,0-5.17,1.16C74,300.61,66.61,311.86,65.56,327.25c-2.38-1.19-2.55-3.8-3.27-5.81a153,153,0,0,1-8-66.07C57.34,221.93,70,192,91.62,166.14A4.7,4.7,0,0,0,93,163.06c10.18.1,10.18.1,11,10.26,0,.17,0,.33,0,.5.64,6,3.27,7.56,8.77,5.19,3-1.3,5.66-4.57,8.9-4,3.69.68,4.1,5.29,6.22,8,3.74,4.72,6.63,4.79,10.29,0,2-2.61,2.6-6.85,5.77-7.86,3.49-1.1,6.21,2.51,9.38,3.81,5.62,2.31,8,.87,8.71-5.17.37-3.28-1.28-7.23,1.08-9.69s6.33-.69,9.56-1.22c6.7-1.11,8-3.38,5.25-9.5-4-8.72-4-8.72,3.64-14,5.77-4,5.83-7.1.23-11.06C173.43,122.38,173.43,122.38,178.65,113.16Z" transform="translate(-52.65 -80.94)"/><path class="cls-2" d="M65.56,327.25c1-15.39,8.47-26.64,22.14-33.72,2.17-1.12,4.56-1.79,5.17-1.16-4.57-5.5-9-11.14-13.77-16.46a96.38,96.38,0,0,1-12.53-16.77c-10.46-18.47-6.94-38.35,9.19-52.19,20.53-17.63,56.64-16.27,75.44,3.17,11.07,11.45,14.58,25.07,9.75,40.5a12.28,12.28,0,0,0-.66,5.35c1.28,10.16-.43,19.41-7.63,27.36a11.6,11.6,0,0,0,1.21,16.92c4.61,3.93,14.16,3.79,18.1-.43,2.12-2.27.95-3.81-1.56-4.86-4.31-1.79-7.21-4.79-7.52-9.67-.58-8.92,6.8-13.74,17.09-10.59v-5.32c0-23.5-.07-47,0-70.5.11-30.3,20.25-55.52,49.43-62.09,28.7-6.46,57.92,7.9,71,34.89,4.3,8.88,5.81,18.3,5.78,28.1q-.12,41.5,0,83c0,10.7,5.34,17.76,14.67,19.87,5.78,1.31,11.2-.7,14-5.2,3-4.89,2.67-9.72-1.75-14.6-8.1-9-8.4-19.6-6.81-30.53,1.82-12.53,5.9-24.56,8.89-36.84.71-2.89,2.43-3.69,5.16-3.14a13.93,13.93,0,0,1,10.16,8.09,41.49,41.49,0,0,1,3.82,25.26c-.88,5.34-.11,9.71,3.94,13.62,7.87,7.6,11.86,17.13,12.94,27.95a54.75,54.75,0,0,1-4.4,24.49c-.74,1.09-1.52,2.16-2.23,3.28-7.45,11.65-17.73,19.39-31.46,21.77-5.54,1-11.31.45-16.9,1.19a10.91,10.91,0,0,0-9.68,12.73c1.07,6.35,6.29,9.91,13.27,8.67,8.15-1.44,16.19-1.87,24.06,1.32,2.73,1.87,5.63,3.55,8.17,5.66,6.31,5.24,13.39,7.77,21.6,7,1.28-.12,2.68-.46,3.65.89,1.19,1.64-.15,2.81-.83,4-4,7.19-10.47,10.77-18.39,12.09a101,101,0,0,1-22.14-2c-1.44-.27-2.88-.58-4.34-.8-7.55-1.13-15.09-2.84-22.72-.56-1.91.55-3.86,1-5.72,1.65a40.14,40.14,0,0,1-33.24-2.23c-7.81-4.75-14.09-11.31-20.7-17.48-5.23-4.88-6.77-5.12-11.68-.47-6.49,6.14-13.08,12.14-20.1,17.66-11.24,5.36-22.78,7.09-34.64,2.34a39.89,39.89,0,0,0-19.56-2.25c-4.11.45-8.16,1.41-12.25,2-8.52,1.2-8.53,1.15-8.08,10-.17,1.61-.76,3.2,1.41,4.2,6.48,3,8.28,8.15,6.66,14.82-5.6,7.86-9.75,8.76-18.32,3.55-1.63-1-2.27-.27-3.38.46-5.88,3.87-11.67,3.43-15.58-1.11s-3.54-10.59,1.67-15.85c1.91-1.93,1.35-3.87,1.31-5.95,0-4.11.93-8.25-.52-12.3-1.33-1.43-2.61-2.94-4-4.29-1.23-1.18-1.54-4-3.7-3.35-2.35.68-2.52,3.2-2.51,5.4,0,1.47.12,2.95.19,4.42v9.06c-.4,3.48-.37,6.6,2.1,9.73,3.19,4,2.25,10.12-1.28,13.67-3.71,3.73-9.27,4.72-13.62,1.63-2.71-1.94-4.34-2.16-7.11-.09-3.58,2.69-7.81,2.6-11.64,0a10.72,10.72,0,0,1-5.05-10.64c.52-4.51,3-8.14,7.37-9.06,4.14-.87,4.61-2.91,4-6.23l0-7.11c.06-1.66.07-3.32.18-5,.36-5.2.47-9.39-6.3-11.68-6.05-2.06-8.86-8.1-8.88-14.89C65.78,347.51,65.64,337.38,65.56,327.25Zm297,50.23c-5.65-2.24-10.4-5.75-15.08-9.36-6.91-5.32-14.57-6.77-23.09-5.22-3.53.64-7.08,1.87-10.84.77-7.07-2.07-12-8.77-11.34-15.72A16,16,0,0,1,317,333.48c5.13-.47,10.34.27,15.45-.76,32.39-6.53,45.59-44,24-69.08-5.42-6.29-7.25-12.36-6-20.47a34.07,34.07,0,0,0-3.7-20.81,11,11,0,0,0-3.5-4.16c-2.54-1.78-4.1-1.53-4.92,1.74-2.82,11.29-6.54,22.38-8.06,33.95-1.27,9.58-1,19,6.35,26.7,4.71,5,5.61,10.82,2.65,17.07s-8.1,9.55-15.1,9.52c-12.38,0-22-10.22-22-23.55-.11-29.32.19-58.66-.2-88-.4-29.63-26.19-57.06-60.22-56.18C209,140.31,184.15,166.24,184,199c-.08,25.83,0,51.66,0,77.49,0,3.1-.06,6.47,3.46,7.47s4.18-2.48,5.51-4.65c2.94-4.83,7.47-7,12.15-5.72a11.54,11.54,0,0,1,8.72,10.91c.12,4.66-3.27,9.11-8.33,10.61-1.47.43-2.72.64-3.63,2.17-3.75,6.32-7.51,12.51-6.24,20.43.49,3.09.14,6.32.07,9.49-.15,5.91-1.16,11.7-4.69,16.56s-7.37,9.19-10.4,14.4c-2.81,4.85-8.11,6.66-13.95,5.61-2.29-.42-4.58-.9-6.88-1.2a27.9,27.9,0,0,0-14.71,1.72c-3.69,1.55-2.32,4.81-2.2,7.4.14,2.8,2.46,1.69,3.82,1.27,13.4-4.17,26.81-3.5,40.43-1,12.33,2.29,24.16,1.8,33.72-8.38,4.78-5.09,11.31-5.17,17.76-3.84a20.62,20.62,0,0,0,8.88,0c7.49-1.69,14.24-.32,19.75,5.35,5.72,5.89,12.82,8.18,20.81,7.91a120.46,120.46,0,0,0,12.39-1.3c7.06-1,14.07-2.1,21.28-1.79,9.11.39,17.65,3.1,26.29,5.53C352.7,376.78,357.36,378.35,362.57,377.48Zm-224.3-11.15c0-11.33,0-22.65,0-34a23.71,23.71,0,0,1,.53-4.42,1.74,1.74,0,0,1,1.75-1.48,1.86,1.86,0,0,1,1.84,1.42,21.87,21.87,0,0,1,.54,3.43c1.82,17.27,21.86,27.12,36.62,17.93,8-5,11.88-12.21,11.73-21.71-.17-10.89-1.46-22,6.39-31.38,1.91-2.28,2.81-4.89,6.54-5.18,3.3-.26,5.12-3,5.14-6.38,0-3.07-1.2-5.41-4.27-6.65-3.37-1.37-5.86-.05-7.9,2.42-1,1.26-1.6,2.92-2.55,4.28-3.54,5.11-9.9,4.93-13.12-.34-.61-1-1-2.12-1.6-3.11-1.73-2.82-4.27-4.36-7.54-3.57A6.65,6.65,0,0,0,167,284c-.2,3.62,1.63,6.37,5.1,7,3.15.55,3.83,2.57,4.81,4.93,4.6,11,3.18,22.56,3.16,34a10,10,0,0,1-2.32,6,13.17,13.17,0,0,1-14.18,4.92c-5.59-1.65-9-6-9.56-12.07-1.61-18.23-10.87-29.89-26.63-33.83-2.31-.57-4.13-.49-6,1-6.33,5.05-12.7,5-19.07,0a5.88,5.88,0,0,0-5.08-1.36C82.5,297.39,70.39,311.27,70,326.27c-.27,10.49-.07,21-.11,31.48,0,4.54,2.06,8,5.55,10.64,1.31,1,2.81,2.36,4.46,1.77,2.07-.75,1-2.91,1-4.4.09-14,0-28,.07-42,0-1.6-.43-3.89,1.83-4,2.76-.13,2.18,2.38,2.19,4.09q0,39,0,78c0,2.78-.59,4.41-3.9,4.23-4.27-.22-7,1.82-7.34,6.32-.25,3.62,1.36,6.22,5,7,4.19.91,7.13-.67,8.46-4.92.39-1.24.72-2.87,2.32-2.91,1.9-.05,2.15,1.63,2.58,3.13a6.77,6.77,0,0,0,6.59,5.2,6.64,6.64,0,0,0,6.43-3.93,6.47,6.47,0,0,0-1.23-7.83,7.1,7.1,0,0,1-2.13-5.31c.1-6.5-.06-13,.09-19.49.15-6.19,3.88-10.14,9.29-10.19,5.68-.05,9.56,4,9.69,10.37.1,5.49-.06,11,.05,16.49.07,3.11-.17,5.65-3.25,7.68-2.4,1.58-3.28,4.46-2,7.58a6.4,6.4,0,0,0,6.53,4.42,6.66,6.66,0,0,0,6.53-4.53c.59-1.42,0-3.72,2.3-3.89,2.74-.2,2.27,2.39,2.87,3.92,1.36,3.51,4,4.8,7.49,4.37s5.48-2.39,5.77-5.84-1-6.56-4.6-7.31c-4-.85-4.32-3.33-4.29-6.59C138.32,388.65,138.27,377.49,138.27,366.33ZM111.81,199.11c-8.51-.43-16.44,1.74-24.15,5.15-21.13,9.34-29.16,33.13-17.43,53,9,15.18,21.74,26.75,36.3,36.48,3.84,2.56,7.3,2.23,11.06-.3,12.83-8.63,24.1-18.89,33-31.57,14.44-20.61,10.1-42.65-11.15-55.68A47.32,47.32,0,0,0,111.81,199.11Zm253.7,183.5c-8.48.44-16.23-2.31-24-4.75-11.79-3.71-23.68-5.11-35.88-2.69-16.41,3.26-32.09,3.73-44.94-9.82-2.5-2.64-6.4-2.67-10.67-1.5,4.33,4.13,8.15,7.8,12,11.43,12.48,11.74,26.58,14.76,42.71,8.35a33.64,33.64,0,0,1,16.67-1.79c10.72,1.3,21.23,4.17,32.08,4.37C357.83,386.28,362,385.67,365.51,382.61ZM236.08,363.75c-7-1.71-11.26,1.39-15.22,5.13-6.29,5.94-13.81,8.35-22.31,8.24a81.33,81.33,0,0,1-14.36-1.48,77.51,77.51,0,0,0-38,1.59c-3.41,1-4,3-3.55,5.87.65,3.95,3.34,1.6,5,1.3,13.8-2.52,27.3-4.3,41.12,1.29,8.21,3.32,17.1,1.48,25-2.89C222.33,378.08,228.77,370.92,236.08,363.75ZM175,303.09c-8.65,5.19-16.88,5.79-25.31.2a48.32,48.32,0,0,1,8.52,25.92c.1,2.79,1.59,4.47,4.87,4.19a24.63,24.63,0,0,1,7.91.39c3,.76,4.45-.87,4.61-3C176.3,321.75,176.85,312.68,175,303.09Zm-19.47-40.42c-7.35,10.79-16.88,19.28-27.1,28.22,8.49,1.73,14.22,6.79,20.27,11.3-5.14-11.48-4.75-14.35,3-24.16A18.09,18.09,0,0,0,155.52,262.67Zm22,92.43c-14.47,3.61-26,.36-35.24-12.38,0,6.1,0,10.67,0,15.25,0,2,.86,2.71,2.81,2,7.33-2.66,14.69-1.59,22.08-.27C171.11,360.41,174.54,359.43,177.54,355.1Z" transform="translate(-52.65 -80.94)"/><path class="cls-1" d="M151,417.23c1.62-6.67-.18-11.85-6.66-14.82-2.17-1-1.58-2.59-1.41-4.2,5.79.15,11.62.83,17.33.8,33.53-.17,67.06,1.15,100.59-.63,15.71-.84,31.5.19,47.23-1.07-.69,2.5-3,3.51-4.81,4.74a154.66,154.66,0,0,1-61.68,25c-28.6,4.73-56.69,2.66-84-7.79C155.44,418.46,153.17,417.91,151,417.23Z" transform="translate(-52.65 -80.94)"/><path class="cls-3" d="M308,397.31c-15.73,1.26-31.52.23-47.23,1.07-33.53,1.78-67.06.46-100.59.63-5.71,0-11.54-.65-17.33-.8-.45-8.82-.44-8.77,8.08-10,4.09-.57,8.14-1.53,12.25-2a39.89,39.89,0,0,1,19.56,2.25c11.86,4.75,23.4,3,34.64-2.34,14.45,0,28.91.23,43.35-.05,3.08-.06,6,2.22,9.13.34a40.14,40.14,0,0,0,33.24,2.23c1.86-.67,3.81-1.1,5.72-1.65,5.75,2.36,11.95,1,17.89,2,2.9.51,6.24,1.08,9.17-.67a101,101,0,0,0,22.14,2c.94,1.6,3.41.16,4.53,3C344.37,396.41,326.2,396.77,308,397.31Z" transform="translate(-52.65 -80.94)"/><path class="cls-2" d="M178.65,113.16c-5.22,9.22-5.22,9.22,3.21,15.17,5.6,4,5.54,7-.23,11.06-7.62,5.3-7.62,5.3-3.64,14,2.79,6.12,1.45,8.39-5.25,9.5-3.23.53-7.2-1.24-9.56,1.22s-.71,6.41-1.08,9.69c-.67,6-3.09,7.48-8.71,5.17-3.17-1.3-5.89-4.91-9.38-3.81-3.17,1-3.76,5.25-5.77,7.86-3.66,4.75-6.55,4.68-10.29,0-2.12-2.68-2.53-7.29-6.22-8-3.24-.59-5.88,2.68-8.9,4-5.5,2.37-8.13.81-8.77-5.19,0-.17,0-.33,0-.5-.81-10.16-.81-10.16-11-10.26-6.88-2.16-7.65-3.95-4.43-10.37A15,15,0,0,1,90,150.08c3.11-4,2.22-6.38-2.25-8.86-10.17-5.64-10.19-9.26-.12-14.85,4.32-2.4,5.74-4.7,2.42-8.78a5.23,5.23,0,0,1-.48-.87c-5-9-3.24-12,7-12.12,7.37-.09,7.37-.09,7.42-7.45,0-1,0-2,0-3,.52-6.21,3.24-7.86,8.91-5.58,3.19,1.29,5.94,5,9.32,3.94,3-1,3.68-5.31,5.7-7.93,3.74-4.85,6.5-4.83,10.27-.06,2.14,2.7,2.7,7.27,6.15,8.08,3.13.73,5.85-2.64,8.88-3.94,5.62-2.41,7.9-1.06,8.87,4.94.55,3.4-1.41,7.58,1.34,10.05,2.46,2.22,6.41.62,9.68,1C178.85,105.46,179.92,107.1,178.65,113.16ZM96.53,123.3c.21,2.33-2.64,3.83-5,5.43-7.68,5.09-7.72,5-.09,10,5.76,3.71,6.31,5.83,3,11.86-4.51,8.3-4.51,8.3,5.45,8.54,6.25.16,7.93,1.8,8.14,8,.06,2,0,4,0,6,0,2.31,1.16,3,3.22,2.05,1.21-.56,2.36-1.23,3.52-1.88,8-4.49,9.48-4.11,14.28,3.71,4.14,6.73,4.14,6.73,8.11,0,.26-.43.5-.87.76-1.29,3.62-5.95,5.78-6.57,11.77-3.41,7.9,4.17,7.9,4.17,8.4-5.12.34-6.26,2-7.92,8.21-8.09,2-.05,4-.07,6-.26,2.73-.27,3.44-1.58,1.89-4-6.64-10.39-6.18-13,5.17-18.75,2.59-1.32,3-2.64.25-4.55-10.54-7.37-10.53-7.45-5.31-19,1-2.16,1.08-3.24-1.79-3.58-13-1.55-13-1.6-14.36-14.3-.28-2.68-1.33-3.17-3.51-2.14-3.7,1.76-7,5.42-11.34,4.41-4.65-1.09-5.73-6.14-8.09-9.67-1.66-2.49-2.9-2.35-4.26.11-.48.88-1,1.74-1.5,2.6-5.13,8.55-6.56,8.92-15.37,3.9-.29-.17-.57-.35-.87-.5-4.41-2.37-5.08-2-5.18,2.86-.24,11.88-.79,12.61-12.86,12.68-4.89,0-4.4,1.74-2.52,4.89A25,25,0,0,1,96.53,123.3Z" transform="translate(-52.65 -80.94)"/><path class="cls-1" d="M343.86,360.71C336,357.52,328,358,319.8,359.39c-7,1.24-12.2-2.32-13.27-8.67A10.91,10.91,0,0,1,316.21,338c5.59-.74,11.36-.23,16.9-1.19,13.73-2.38,24-10.12,31.46-21.77.71-1.12,1.49-2.19,2.23-3.28.61,6.61-3,12.06-5.07,17.89-3.45,9.71-8.7,18.56-14.16,27.25C346.64,358.37,345.85,360.18,343.86,360.71Z" transform="translate(-52.65 -80.94)"/><path class="cls-3" d="M80.8,389.18l0,7.11c-9.42-.85-19-.76-28.18-3.72C61.84,389.43,71.31,389.26,80.8,389.18Z" transform="translate(-52.65 -80.94)"/><path class="cls-3" d="M116.14,386c1.45,4.05.52,8.19.52,12.3a30.19,30.19,0,0,0-10.57-1.06c0-3,0-6,0-9.06C109.53,387.86,113.37,389.42,116.14,386Z" transform="translate(-52.65 -80.94)"/><path class="cls-4" d="M362.57,377.48c-5.21.87-9.87-.7-14.55-2-8.64-2.43-17.18-5.14-26.29-5.53-7.21-.31-14.22.81-21.28,1.79a120.46,120.46,0,0,1-12.39,1.3c-8,.27-15.09-2-20.81-7.91-5.51-5.67-12.26-7-19.75-5.35a20.62,20.62,0,0,1-8.88,0c-6.45-1.33-13-1.25-17.76,3.84-9.56,10.18-21.39,10.67-33.72,8.38-13.62-2.53-27-3.2-40.43,1-1.36.42-3.68,1.53-3.82-1.27-.12-2.59-1.49-5.85,2.2-7.4a27.9,27.9,0,0,1,14.71-1.72c2.3.3,4.59.78,6.88,1.2,5.84,1.05,11.14-.76,13.95-5.61,3-5.21,6.92-9.62,10.4-14.4s4.54-10.65,4.69-16.56c.07-3.17.42-6.4-.07-9.49-1.27-7.92,2.49-14.11,6.24-20.43.91-1.53,2.16-1.74,3.63-2.17,5.06-1.5,8.45-6,8.33-10.61a11.54,11.54,0,0,0-8.72-10.91c-4.68-1.25-9.21.89-12.15,5.72-1.33,2.17-2,5.65-5.51,4.65s-3.47-4.37-3.46-7.47c0-25.83,0-51.66,0-77.49.11-32.75,25-58.68,57.66-59.52,34-.88,59.82,26.55,60.22,56.18.39,29.32.09,58.66.2,88,.05,13.33,9.66,23.51,22,23.55,7,0,12.11-3.18,15.1-9.52s2.06-12.09-2.65-17.07c-7.32-7.73-7.62-17.12-6.35-26.7,1.52-11.57,5.24-22.66,8.06-33.95.82-3.27,2.38-3.52,4.92-1.74a11,11,0,0,1,3.5,4.16,34.07,34.07,0,0,1,3.7,20.81c-1.27,8.11.56,14.18,6,20.47,21.6,25.07,8.4,62.55-24,69.08-5.11,1-10.32.29-15.45.76A16,16,0,0,0,302.22,348c-.66,6.95,4.27,13.65,11.34,15.72,3.76,1.1,7.31-.13,10.84-.77,8.52-1.55,16.18-.1,23.09,5.22C352.17,371.73,356.92,375.24,362.57,377.48ZM243,156.08a31.66,31.66,0,1,0,32,31.39A31.76,31.76,0,0,0,243,156.08Zm.15,102.18c12.45,0,23.1-8,25.86-19.38,1.41-5.81-.74-8.21-6.71-7.27a121.82,121.82,0,0,1-38.21,0c-6.08-1-8.32,1.66-6.71,7.77C220.29,250.52,230.87,258.26,243.13,258.26ZM347,254.62c0-4.33-3-8.23-6.36-8.2s-6.48,3.8-6.55,8.1c-.08,4.53,3.15,8.61,6.68,8.45S347,259,347,254.62Zm3.13,56.63c-.07-2.75-1.58-4.92-5.3-5.11-4.78-.25-9.59,4.19-9.52,8.92.05,3.63,2.26,5.46,5.63,5.75C345.27,321.19,350,316.5,350.15,311.25ZM345.86,282c0,4.88,3.37,9.22,7.23,9.19,3.34,0,5.93-3.24,5.86-7.31-.06-4.59-3.35-8.67-7.09-8.8S345.89,277.6,345.86,282Z" transform="translate(-52.65 -80.94)"/><path class="cls-4" d="M138.27,366.33c0,11.16,0,22.32,0,33.48,0,3.26.26,5.74,4.29,6.59,3.58.75,4.9,3.78,4.6,7.31s-2.4,5.43-5.77,5.84-6.13-.86-7.49-4.37c-.6-1.53-.13-4.12-2.87-3.92-2.35.17-1.71,2.47-2.3,3.89a6.66,6.66,0,0,1-6.53,4.53,6.4,6.4,0,0,1-6.53-4.42c-1.24-3.12-.36-6,2-7.58,3.08-2,3.32-4.57,3.25-7.68-.11-5.5,0-11-.05-16.49-.13-6.35-4-10.42-9.69-10.37-5.41.05-9.14,4-9.29,10.19-.15,6.49,0,13-.09,19.49a7.1,7.1,0,0,0,2.13,5.31,6.47,6.47,0,0,1,1.23,7.83,6.64,6.64,0,0,1-6.43,3.93,6.77,6.77,0,0,1-6.59-5.2c-.43-1.5-.68-3.18-2.58-3.13-1.6,0-1.93,1.67-2.32,2.91-1.33,4.25-4.27,5.83-8.46,4.92-3.62-.78-5.23-3.38-5-7,.31-4.5,3.07-6.54,7.34-6.32,3.31.18,3.9-1.45,3.9-4.23q-.06-39,0-78c0-1.71.57-4.22-2.19-4.09-2.26.11-1.83,2.4-1.83,4,0,14,0,28-.07,42,0,1.49,1,3.65-1,4.4-1.65.59-3.15-.76-4.46-1.77-3.49-2.68-5.57-6.1-5.55-10.64,0-10.49-.16-21,.11-31.48.38-15,12.49-28.88,27.17-31.73a5.88,5.88,0,0,1,5.08,1.36c6.37,5,12.74,5,19.07,0,1.88-1.51,3.7-1.59,6-1,15.76,3.94,25,15.6,26.63,33.83.54,6.1,4,10.42,9.56,12.07a13.17,13.17,0,0,0,14.18-4.92,10,10,0,0,0,2.32-6c0-11.42,1.44-23-3.16-34-1-2.36-1.66-4.38-4.81-4.93-3.47-.62-5.3-3.37-5.1-7a6.65,6.65,0,0,1,5.43-6.39c3.27-.79,5.81.75,7.54,3.57.6,1,1,2.12,1.6,3.11,3.22,5.27,9.58,5.45,13.12.34.95-1.36,1.5-3,2.55-4.28,2-2.47,4.53-3.79,7.9-2.42,3.07,1.24,4.29,3.58,4.27,6.65,0,3.42-1.84,6.12-5.14,6.38-3.73.29-4.63,2.9-6.54,5.18-7.85,9.39-6.56,20.49-6.39,31.38.15,9.5-3.73,16.73-11.73,21.71-14.76,9.19-34.8-.66-36.62-17.93a21.87,21.87,0,0,0-.54-3.43,1.86,1.86,0,0,0-1.84-1.42,1.74,1.74,0,0,0-1.75,1.48,23.71,23.71,0,0,0-.53,4.42C138.25,343.68,138.27,355,138.27,366.33Z" transform="translate(-52.65 -80.94)"/><path class="cls-4" d="M111.81,199.11a47.32,47.32,0,0,1,27.61,7c21.25,13,25.59,35.07,11.15,55.68-8.88,12.68-20.15,22.94-33,31.57-3.76,2.53-7.22,2.86-11.06.3C92,284,79.2,272.41,70.23,257.23c-11.73-19.84-3.7-43.63,17.43-53C95.37,200.85,103.3,198.68,111.81,199.11Zm-5.91,47.57c.24-9.79-8.08-19.37-16.91-19.46-7.27-.08-12.53,5.6-12.71,13.71-.21,9.39,8.06,18.92,16.73,19.28C100.17,260.5,105.7,254.69,105.9,246.68Zm41.22-5.8c-.05-8.14-5.27-13.82-12.58-13.66-8.91.19-16.68,9-16.68,19,0,8.07,5.24,14,12.3,14C139.11,260.2,147.19,251,147.12,240.88ZM112.86,281.2c2.17.07,4.87-1.12,7.27-3,1-.79,2.31-1.75,1.24-3.27s-2.32-1-3.51-.2c-4.19,2.93-8.27,2.87-12.32-.28-1-.79-2.21-1.05-3.08.09-1,1.33-.33,2.48.8,3.41A13.94,13.94,0,0,0,112.86,281.2Z" transform="translate(-52.65 -80.94)"/><path class="cls-5" d="M365.51,382.61c-3.54,3.06-7.68,3.67-12,3.6-10.85-.2-21.36-3.07-32.08-4.37a33.64,33.64,0,0,0-16.67,1.79c-16.13,6.41-30.23,3.39-42.71-8.35-3.86-3.63-7.68-7.3-12-11.43,4.27-1.17,8.17-1.14,10.67,1.5,12.85,13.55,28.53,13.08,44.94,9.82,12.2-2.42,24.09-1,35.88,2.69C349.28,380.3,357,383.05,365.51,382.61Z" transform="translate(-52.65 -80.94)"/><path class="cls-5" d="M236.08,363.75c-7.31,7.17-13.75,14.33-22.28,19.05-7.91,4.37-16.8,6.21-25,2.89-13.82-5.59-27.32-3.81-41.12-1.29-1.65.3-4.34,2.65-5-1.3-.48-2.89.14-4.83,3.55-5.87a77.51,77.51,0,0,1,38-1.59,81.33,81.33,0,0,0,14.36,1.48c8.5.11,16-2.3,22.31-8.24C224.82,365.14,229.12,362,236.08,363.75Z" transform="translate(-52.65 -80.94)"/><path class="cls-1" d="M269.9,386.46c-3.09,1.88-6-.4-9.13-.34-14.44.28-28.9.08-43.35.05,7-5.52,13.61-11.52,20.1-17.66,4.91-4.65,6.45-4.41,11.68.47C255.81,375.15,262.09,381.71,269.9,386.46Z" transform="translate(-52.65 -80.94)"/><path class="cls-4" d="M175,303.09c1.86,9.59,1.31,18.66.6,27.69-.16,2.14-1.59,3.77-4.61,3a24.63,24.63,0,0,0-7.91-.39c-3.28.28-4.77-1.4-4.87-4.19a48.32,48.32,0,0,0-8.52-25.92C158.11,308.88,166.34,308.28,175,303.09Z" transform="translate(-52.65 -80.94)"/><path class="cls-4" d="M155.52,262.67A18.09,18.09,0,0,1,151.67,278c-7.73,9.81-8.12,12.68-3,24.16-6.05-4.51-11.78-9.57-20.27-11.3C138.64,282,148.17,273.46,155.52,262.67Z" transform="translate(-52.65 -80.94)"/><path class="cls-3" d="M177.54,355.1c-3,4.33-6.43,5.31-10.36,4.61-7.39-1.32-14.75-2.39-22.08.27-1.95.7-2.81,0-2.81-2,0-4.58,0-9.15,0-15.25C151.56,355.46,163.07,358.71,177.54,355.1Z" transform="translate(-52.65 -80.94)"/><path class="cls-1" d="M116.14,386c-2.77,3.39-6.61,1.83-10,2.18-.07-1.47-.19-2.95-.19-4.42,0-2.2.16-4.72,2.51-5.4,2.16-.61,2.47,2.17,3.7,3.35C113.53,383.09,114.81,384.6,116.14,386Z" transform="translate(-52.65 -80.94)"/><path class="cls-1" d="M335.92,388.4c-2.93,1.75-6.27,1.18-9.17.67-5.94-1-12.14.33-17.89-2,7.63-2.28,15.17-.57,22.72.56C333,387.82,334.48,388.13,335.92,388.4Z" transform="translate(-52.65 -80.94)"/><path class="cls-6" d="M96.53,123.3a25,25,0,0,0-3.89-9.53c-1.88-3.15-2.37-4.86,2.52-4.89,12.07-.07,12.62-.8,12.86-12.68.1-4.86.77-5.23,5.18-2.86.3.15.58.33.87.5,8.81,5,10.24,4.65,15.37-3.9.52-.86,1-1.72,1.5-2.6,1.36-2.46,2.6-2.6,4.26-.11,2.36,3.53,3.44,8.58,8.09,9.67,4.34,1,7.64-2.65,11.34-4.41,2.18-1,3.23-.54,3.51,2.14,1.32,12.7,1.38,12.75,14.36,14.3,2.87.34,2.77,1.42,1.79,3.58-5.22,11.57-5.23,11.65,5.31,19,2.73,1.91,2.34,3.23-.25,4.55-11.35,5.79-11.81,8.36-5.17,18.75,1.55,2.41.84,3.72-1.89,4-2,.19-4,.21-6,.26-6.18.17-7.87,1.83-8.21,8.09-.5,9.29-.5,9.29-8.4,5.12-6-3.16-8.15-2.54-11.77,3.41-.26.42-.5.86-.76,1.29-4,6.75-4,6.75-8.11,0-4.8-7.82-6.25-8.2-14.28-3.71-1.16.65-2.31,1.32-3.52,1.88-2.06.94-3.19.26-3.22-2.05,0-2,0-4,0-6-.21-6.25-1.89-7.89-8.14-8-10-.24-10-.24-5.45-8.54,3.28-6,2.73-8.15-3-11.86-7.63-4.91-7.59-4.86.09-10C93.89,127.13,96.74,125.63,96.53,123.3Zm34.27,16.23c-2.52-.27-5-.6-7.46-.77-3.29-.23-4.58,1.5-4,4.61,1,5.81,7.52,10.81,13.89,10.76s12.59-4.8,13.62-10.42c.66-3.59-.73-5.32-4.64-4.88S134.58,139.31,130.8,139.53Zm20.8-18.48c-3.06.16-5.25,1.87-5.32,5.12s1.79,5.79,5.35,5.9a5.23,5.23,0,0,0,5.8-5.46C157.51,123.22,155.48,121.11,151.6,121.05Zm-42.74,5.73c.41,3.23,2.29,5.42,5.75,5.27s5.48-2.39,5.29-5.87-2.48-5.25-6-5.07S109,123.29,108.86,126.78Z" transform="translate(-52.65 -80.94)"/><path class="cls-2" d="M243,156.08a31.66,31.66,0,1,1-31.86,31.64A31.53,31.53,0,0,1,243,156.08Zm.11,4a27.8,27.8,0,0,0-27.86,27.37c-.31,15.09,12.49,27.9,27.88,27.88A27.78,27.78,0,0,0,270.93,188C271.15,172.74,258.56,160.14,243.09,160.11Z" transform="translate(-52.65 -80.94)"/><path class="cls-2" d="M243.13,258.26c-12.26,0-22.84-7.74-25.77-18.85-1.61-6.11.63-8.73,6.71-7.77a121.82,121.82,0,0,0,38.21,0c6-.94,8.12,1.46,6.71,7.27C266.23,250.28,255.58,258.26,243.13,258.26Zm-.16-4c10,0,18.79-6,21.56-14.69.87-2.71.69-4.06-2.76-3.57a134.33,134.33,0,0,1-37.25,0c-3.9-.55-3.76,1-2.74,3.81A22.21,22.21,0,0,0,243,254.22Z" transform="translate(-52.65 -80.94)"/><path class="cls-2" d="M347,254.62c0,4.39-2.81,8.19-6.23,8.35s-6.76-3.92-6.68-8.45c.07-4.3,3.12-8.08,6.55-8.1S347,250.29,347,254.62Zm-6.63,4c1.8-.29,2.4-1.61,2.57-3.12.2-1.85.1-4-2-4.51s-2.61,1.53-2.78,3.13C338,256,338.49,257.71,340.39,258.64Z" transform="translate(-52.65 -80.94)"/><path class="cls-2" d="M350.15,311.25c-.14,5.25-4.88,9.94-9.19,9.56-3.37-.29-5.58-2.12-5.63-5.75-.07-4.73,4.74-9.17,9.52-8.92C348.57,306.33,350.08,308.5,350.15,311.25Zm-8.71,5.49c2.33-.66,4.15-1.91,4.59-4.49.23-1.4-.45-2.23-1.94-2.05-2.63.32-4,2.13-4.69,4.43C339,316.08,340.12,316.6,341.44,316.74Z" transform="translate(-52.65 -80.94)"/><path class="cls-2" d="M345.86,282c0-4.38,2.35-7.05,6-6.92s7,4.21,7.09,8.8c.07,4.07-2.52,7.29-5.86,7.31C349.23,291.2,345.82,286.86,345.86,282Zm4,.1c.07,2.17.7,4.3,2.88,4.75,2,.42,2.3-1.65,2.15-3.08-.2-2-.71-4.16-3.16-4.45C349.76,279.07,350,280.86,349.85,282.08Z" transform="translate(-52.65 -80.94)"/><path class="cls-2" d="M105.9,246.68c-.2,8-5.73,13.82-12.89,13.53-8.67-.36-16.94-9.89-16.73-19.28.18-8.11,5.44-13.79,12.71-13.71C97.82,227.31,106.14,236.89,105.9,246.68ZM80.74,241.4c-.13,7.31,6.34,14.81,12.75,14.78,4.88,0,8.27-4.32,8.28-10.48,0-6.9-6.47-14.23-12.74-14.43C83.89,231.1,80.85,234.81,80.74,241.4Z" transform="translate(-52.65 -80.94)"/><path class="cls-2" d="M147.12,240.88c.07,10.1-8,19.32-17,19.35-7.06,0-12.3-5.93-12.3-14,0-10,7.77-18.82,16.68-19C141.85,227.06,147.07,232.74,147.12,240.88ZM143,241c.05-5.9-3.24-9.79-8.26-9.78-6.5,0-12.59,7.12-12.7,14.82-.09,6,3,10,8,10.07C136.6,256.28,142.92,248.93,143,241Z" transform="translate(-52.65 -80.94)"/><path class="cls-2" d="M112.86,281.2a13.94,13.94,0,0,1-9.6-3.23c-1.13-.93-1.82-2.08-.8-3.41.87-1.14,2.07-.88,3.08-.09,4,3.15,8.13,3.21,12.32.28,1.19-.83,2.54-1.18,3.51.2s-.23,2.48-1.24,3.27C117.73,280.08,115,281.27,112.86,281.2Z" transform="translate(-52.65 -80.94)"/><path class="cls-2" d="M130.8,139.53c3.78-.22,7.6-.28,11.38-.7s5.3,1.29,4.64,4.88c-1,5.62-7.33,10.36-13.62,10.42s-12.87-4.95-13.89-10.76c-.55-3.11.74-4.84,4-4.61C125.81,138.93,128.28,139.26,130.8,139.53Zm-7,3.69c1.7,4.68,5,6.47,8.85,6.72a9.37,9.37,0,0,0,8.57-4.09c1.19-1.71,1.12-2.67-1.31-2.65C134.72,143.25,129.51,143.22,123.82,143.22Z" transform="translate(-52.65 -80.94)"/><path class="cls-2" d="M151.6,121.05c3.88.06,5.91,2.17,5.83,5.56a5.23,5.23,0,0,1-5.8,5.46c-3.56-.11-5.42-2.57-5.35-5.9S148.54,121.21,151.6,121.05Z" transform="translate(-52.65 -80.94)"/><path class="cls-2" d="M108.86,126.78c.11-3.49,1.68-5.5,5.06-5.67s5.79,1.54,6,5.07-1.86,5.73-5.29,5.87S109.27,130,108.86,126.78Z" transform="translate(-52.65 -80.94)"/><path class="cls-5" d="M243.09,160.11c15.47,0,28.06,12.63,27.84,27.84a27.78,27.78,0,0,1-27.82,27.41c-15.39,0-28.19-12.79-27.88-27.88A27.8,27.8,0,0,1,243.09,160.11Zm14.27,27.8A14.27,14.27,0,1,0,243,202.11,14.33,14.33,0,0,0,257.36,187.91Z" transform="translate(-52.65 -80.94)"/><path class="cls-5" d="M243,254.22a22.21,22.21,0,0,1-21.19-14.46c-1-2.85-1.16-4.36,2.74-3.81a134.33,134.33,0,0,0,37.25,0c3.45-.49,3.63.86,2.76,3.57C261.76,248.18,252.94,254.24,243,254.22Z" transform="translate(-52.65 -80.94)"/><path class="cls-5" d="M340.39,258.64c-1.9-.93-2.37-2.65-2.18-4.5.17-1.6.7-3.64,2.78-3.13s2.17,2.66,2,4.51C342.79,257,342.19,258.35,340.39,258.64Z" transform="translate(-52.65 -80.94)"/><path class="cls-5" d="M341.44,316.74c-1.32-.14-2.46-.66-2-2.11.68-2.3,2.06-4.11,4.69-4.43,1.49-.18,2.17.65,1.94,2.05C345.59,314.83,343.77,316.08,341.44,316.74Z" transform="translate(-52.65 -80.94)"/><path class="cls-5" d="M349.85,282.08c.16-1.22-.09-3,1.87-2.78,2.45.29,3,2.48,3.16,4.45.15,1.43-.12,3.5-2.15,3.08C350.55,286.38,349.92,284.25,349.85,282.08Z" transform="translate(-52.65 -80.94)"/><path class="cls-5" d="M80.74,241.4c.11-6.59,3.15-10.3,8.29-10.13,6.27.2,12.74,7.53,12.74,14.43,0,6.16-3.4,10.46-8.28,10.48C87.08,256.21,80.61,248.71,80.74,241.4Z" transform="translate(-52.65 -80.94)"/><path class="cls-5" d="M143,241c-.06,7.89-6.38,15.24-13,15.11-5-.11-8.07-4-8-10.07.11-7.7,6.2-14.8,12.7-14.82C139.74,231.25,143,235.14,143,241Z" transform="translate(-52.65 -80.94)"/><path class="cls-5" d="M123.82,143.22c5.69,0,10.9,0,16.11,0,2.43,0,2.5.94,1.31,2.65a9.37,9.37,0,0,1-8.57,4.09C128.78,149.69,125.52,147.9,123.82,143.22Z" transform="translate(-52.65 -80.94)"/><path class="cls-2" d="M257.36,187.91a14.26,14.26,0,1,1-14-14.57A14.36,14.36,0,0,1,257.36,187.91Zm-4.17-.33a10.12,10.12,0,1,0-10,10.39A10.37,10.37,0,0,0,253.19,187.58Z" transform="translate(-52.65 -80.94)"/><path class="cls-4" d="M253.19,187.58A10.12,10.12,0,1,1,243,177.48,10.24,10.24,0,0,1,253.19,187.58Z" transform="translate(-52.65 -80.94)"/></svg>