<svg id="Layer_1" data-name="Layer 1" xmlns="http://www.w3.org/2000/svg" viewBox="0 0 400.19 400.19"><defs><style>.cls-1{fill:#fefefe;}.cls-2{fill:#eae2f7;}.cls-3{fill:#9359d4;}.cls-4{fill:#d4d8fe;}.cls-5{fill:#f2eff9;}.cls-6{fill:#fbfbfe;}.cls-7{fill:#fcfdfe;}.cls-8{fill:#eef0fe;}</style></defs><title>img-07</title><path class="cls-1" d="M414,256.24q0,98,.1,196c0,3.42-.68,4.09-4.1,4.09q-196-.16-392,0c-3.42,0-4.1-.67-4.1-4.09q.18-196,0-392c0-3.43.68-4.1,4.1-4.1q196,.16,392,0c3.42,0,4.1.67,4.1,4.1Q413.91,158.23,414,256.24ZM195.52,354.73a7.44,7.44,0,0,0,.85-.52c2.75-2.18,7.33-3.44,6.41-7.91s-5.6-2.22-8.64-3.32c.64-3.53,1.84-7.28,5.07-8.63,4.63-1.93,9.66-2.79,11.11-8.65.06-.23.88-.43,1.32-.39,7.42.62,14.28-.54,21.84,4.65,9.48,6.5,9,12.6,6.62,21.59-3.92,14.83-2.38,16.31,13.14,16.35,4.35,0,9-1,12.16,3.48.87,1.25,2.72,1.36,4.18,1.32,17.95-.58,35.91-1.1,53.86-2,6.51-.31,9.12-5.61,5.95-11.37-3.05-5.54-6.26-11-9.57-16.37-1.42-2.32-2.16-3.67,1.37-4.79a35.77,35.77,0,0,0,15.35-9.95c2.27-2.46,4.71-3.12,7.9-3.05,8,.18,16,.07,24,.05,1.5,0,3.33.13,3.38-2s-1.78-2-3.28-2.06c-2.5-.07-5-.11-7.49-.17,6.07-16.13,10.79-32.51,12.34-49.86a164.53,164.53,0,0,0-1.9-42,152.29,152.29,0,0,0-22.29-57.49c-3.78-5.89-7-12.31-13-16.52-.06-1.83-.17-3.65-.18-5.48a52.27,52.27,0,0,0-35.67-49.43c-15-4.87-29.41-3-43.28,4.18-.65-1.92-2.31-2-4-2.42-18.18-4.28-36.45-6-55.19-4a163.59,163.59,0,0,0-60.44,18.54c-7.37,3.94-14.81,8-20.49,14.45-15.17,0-30.22-1.73-45.25-3.55-8.21-1-10.66,1.14-10.68,9.3l-.21,78.42c-1.47.18-1.67,1.24-1.92,2.47-1.66,8.07-3.09,16.14-4.11,24.35-2.13,17.16-.07,33.93,3.28,50.65,1.94,9.76,5.69,19,8.89,28.36-1.83.06-3.67,0-5.48.2s-5.2-1.21-5.16,2,3.33,1.62,5.24,2a14.76,14.76,0,0,0,2.49,0c25.46,0,50.93.08,76.39-.08,3.63,0,5,.75,4.74,4.62-.33,4.41-.55,8.94,1.69,13.57-1.92,0-3.4,0-4.88,0-2,0-3.6.6-4.38,2.64s.34,3.54,1.84,4.7c2.09,1.62,4.3,3.1,6.45,4.64-1.34.6-2.67,1.23-4,1.79-1.77.74-4.52.76-4.43,3.21.09,2.27,2.91,2.34,4.55,3.32a4.07,4.07,0,0,0,1.42.45,160.47,160.47,0,0,0,48.57.81c3.17-.41,6.58-.49,9.56-2.44,2.76-1.8,2.82-3-.08-4.47C199.47,357,196.84,357,195.52,354.73ZM45.1,321c-2.25,1.09-6.51-1.56-6.63,2s4.13,2.08,6.44,2.09,6.58,1.53,6.61-1.94C51.56,319.32,47.25,322.15,45.1,321Zm337.83,0c-2.15,1.16-6.46-1.67-6.46,2.16,0,3.51,4.23,2,6.58,2s6.56,1.56,6.48-2.06S385.17,322.12,382.93,321Z" transform="translate(-13.9 -56.14)"/><path class="cls-2" d="M67,321.05c-3.2-9.38-7-18.6-8.89-28.36C54.74,276,52.68,259.2,54.81,242c1-8.21,2.45-16.28,4.11-24.35.25-1.23.45-2.29,1.92-2.47.07,2.83.1,5.66.22,8.48.25,5.38,3.1,8,8.43,7.26,11.56-1.51,23.17-2.34,34.8-3.15A545.26,545.26,0,0,1,206,230.72c7.95.94,10.38-.94,10.47-9,.06-6.06,0-12.13,0-18.19,8.26,10.05,18.1,15.49,30.74,16.09,2.18.1,5.75,1.31,6.15,3.39.47,2.48-2.88,3.68-4.92,5-15.16,10.06-26.23,23.38-30,41.38-3.62,17.44-4.41,35,5.67,51.78-3.3,0-5.91-.08-8.52,0-3.55.14-6.68.21-8.76-3.8-1.42-2.76-4.75-3.35-7.91-3.38-1.38,0-3.2.56-3.8-1.45-1.42-4.76-5.27-5-9.21-5q-15.24,0-30.49,0c-8.51,0-10.14,1.49-10.28,10.09-.05,2.91-1,3.61-3.75,3.59C116.62,321.12,91.8,321.11,67,321.05Zm111-54.23c.17-1.29.67-2.93-1.08-3.34-2.11-.5-2.82,1.38-3.41,2.9-.88,2.25.13,4.27,1.26,6.12,1.73,2.83,3.59,5.59,5.46,8.33,2.31,3.4,2.14,6.4-1,9.28-2.07,1.92-4,4.05-4.65,6.95a2.27,2.27,0,0,0,1.33,2.88c1.11.43,1.94-.21,2.31-1.29,1-2.95,3.35-4.92,5.26-7.19,2.92-3.48,3.32-7.15,1.08-11-1.4-2.45-2.93-4.82-4.48-7.18C178.76,271.27,177.32,269.39,177.93,266.82Zm-17.69-10.39c.71-1.16.68-2.67-1.31-3.07-1.83-.37-2.48,1.31-3.06,2.68-1,2.23-.15,4.27,1,6.13q2.46,4,5.21,7.9c2.78,3.87,2.54,7.29-1.05,10.55-1.83,1.66-3.64,3.46-4,6.11-.17,1.17-.27,2.41,1.08,3s2.28-.41,2.62-1.51c.79-2.52,2.67-4.19,4.35-6,3.68-4,4.1-8.18,1.38-12.74-1.54-2.56-3.24-5-4.84-7.54C160.59,260.4,159.53,258.86,160.24,256.43Z" transform="translate(-13.9 -56.14)"/><path class="cls-3" d="M67,321.05c24.82.06,49.64.07,74.46.21,2.75,0,3.7-.68,3.75-3.59.14-8.6,1.77-10.07,10.28-10.09q15.25,0,30.49,0c3.94,0,7.79.26,9.21,5,.6,2,2.42,1.44,3.8,1.45,3.16,0,6.49.62,7.91,3.38,2.08,4,5.21,3.94,8.76,3.8,2.61-.1,5.22,0,8.52,0-10.08-16.77-9.29-34.34-5.67-51.78,3.73-18,14.8-31.32,30-41.38,2-1.36,5.39-2.56,4.92-5-.4-2.08-4-3.29-6.15-3.39-12.64-.6-22.48-6-30.74-16.09,0,6.06.05,12.13,0,18.19-.09,8.06-2.52,9.94-10.47,9a545.26,545.26,0,0,0-101.71-2.91c-11.63.81-23.24,1.64-34.8,3.15-5.33.71-8.18-1.88-8.43-7.26-.12-2.82-.15-5.65-.22-8.48l.21-78.42c0-8.16,2.47-10.3,10.68-9.3,15,1.82,30.08,3.51,45.25,3.55,29.33,1.14,58.59.46,87.71-3.44,9.39-1.25,11.76.7,11.79,10.17.05,14,.2,28,0,42,0,3.68.91,3.82,3.92,2.52,7.65-3.31,10.1-9.75,10.5-17.22.47-8.95-.67-18,1.43-26.84,3.49-14.72,12.47-25.41,24.71-33.71,13.87-7.18,28.31-9,43.28-4.18A52.27,52.27,0,0,1,336,149.74c0,1.83.12,3.65.18,5.48-.06,3.49-.61,7.05-.08,10.45,1,6.66,3,13,9.91,16.23,6.27,3,7.83,6.34,6.32,13.2-2.74,12.49-14.3,22.77-27.56,23.84-4.32.34-7.75,2-12.44,4.33,38,24.15,46.6,57.17,32.06,97.78H361c2.5.06,5,.1,7.49.17,1.5,0,3.32-.06,3.28,2.06s-1.88,2-3.38,2c-8,0-16,.13-24-.05-3.19-.07-5.63.59-7.9,3.05a35.77,35.77,0,0,1-15.35,9.95c-3.53,1.12-2.79,2.47-1.37,4.79,3.31,5.38,6.52,10.83,9.57,16.37,3.17,5.76.56,11.06-5.95,11.37-17.95.87-35.91,1.39-53.86,2-1.46,0-3.31-.07-4.18-1.32-3.17-4.53-7.81-3.48-12.16-3.48-15.52,0-17.06-1.52-13.14-16.35,2.37-9,2.86-15.09-6.62-21.59-7.56-5.19-14.42-4-21.84-4.65-.44,0-1.26.16-1.32.39-1.45,5.86-6.48,6.72-11.11,8.65-3.23,1.35-4.43,5.1-5.07,8.63,3,1.1,7.71-1.2,8.64,3.32s-3.66,5.73-6.41,7.91a7.44,7.44,0,0,1-.85.52c-16.47,5.51-33,4.75-49.6.62-2.15-1.54-4.36-3-6.45-4.64-1.5-1.16-2.66-2.57-1.84-4.7s2.42-2.6,4.38-2.64c1.48,0,3,0,4.88,0-2.24-4.63-2-9.16-1.69-13.57.3-3.87-1.11-4.64-4.74-4.62-25.46.16-50.93.08-76.39.08a14.76,14.76,0,0,1-2.49,0c-1.91-.35-5.2,1.2-5.24-2s3.26-1.77,5.16-2S65.15,321.11,67,321.05ZM322.27,236l-1-.36.19,1.08c5.79,10.85,2.47,18.8-7.75,24.67-4.48,2.57-5.73,5.88-2.18,10.39,4.11,5.21,3.74,10.45.16,16-3.31,5.17-5.9,10.8-8.73,16.27-.52,1-2,2.18,0,3.32,3.55,2.05,9.89,1.38,13.06-1.45a14.58,14.58,0,0,0,5.27-11.41q-.06-7.25,0-14.49c0-1.65.07-3.71,2.41-3.58,1.91.12,2,2,2,3.49,0,5,.23,10-.1,15-.49,7.29-3.85,13.06-10.41,16.56-2.18,1.16-2.76,2.53-2.21,4.79a34.63,34.63,0,0,1,.06,16.32c-.66,2.78-.26,4,3.17,3,13.67-4.24,23.08-13,27.89-26.38,3.95-10.92,3.34-22.38,1.73-33.59A57.9,57.9,0,0,0,322.27,236ZM212.16,142.13c0-2.17-.11-4.34,0-6.5.23-3.62-1.34-4.63-4.84-4.14a503.94,503.94,0,0,1-75.68,4.35,503.35,503.35,0,0,1-61.7-4.3c-1.84-.25-4.32-.75-4.55,1.61-.58,6.1-1.75,12.73.51,18.19,1.18,2.84,7.37.55,11.27,1,.33,0,.67,0,1,0,1.5,0,3.38-.1,3.48,1.91.11,2.54-2.11,2-3.66,2.14-4.1.39-9.43-1.82-12,1s-.79,8.27-.88,12.55c-.15,6.77,0,6.78,6.73,7.58,1.54.18,3.22.26,3.07,2.38-.12,1.72-1.64,1.84-3,2.05C65.1,183,65.1,183,65.1,190c0,1.5,0,3,0,4.5.15,9.29-1.28,7.91,7.81,8.06a33.82,33.82,0,0,1,3.49.06c1.45.19,3.35.3,3.29,2.27s-1.88,1.91-3.39,2.14c-3.66.55-8.68-2-10.68,1.37-1.7,2.85-.46,7.45-.52,11.28,0,.5.05,1,0,1.5-.53,4.33,1,6,5.65,5.37,17.33-2.22,34.78-3.34,52.23-3.94,28.33-1,56.56.85,84.71,4,1.64.18,3.89,1,4.15-1.21.66-5.77,1.51-12-.34-17.28-1-2.79-6.39-.68-9.76-1.13-.17,0-.34,0-.5,0-1.51-.16-3.29-.2-3.22-2.26s1.89-1.92,3.35-2.18c3.5-.6,8.31,1.91,10.25-1.3,1.64-2.72.47-7.13.55-10.78,0-.34,0-.67,0-1,.43-4.7.33-8.84-6.42-7.56-1.44.27-3.33-.35-3.37-2.18s1.78-2.44,3.3-2.13c6.67,1.36,7-2.67,6.51-7.45-.11-1.15,0-2.33,0-3.49,0-10.2,0-10.12-10.13-10.29-2.06,0-5.72,1.37-5.85-1.74-.16-4,3.82-2.11,5.86-2.15C212.16,152.2,212.16,152.32,212.16,142.13Zm54.25-6.64c-1.59,4.93-2.78,9.63-4.6,14.06-3.88,9.45-9.47,16.86-21.24,16.29-2.82-.13-4.52,1.84-4.84,4.73-.36,3.22.82,6.1,4,6.45,4,.44,4.63,2.84,5.35,5.93,4.59,19.79,24.49,33.2,44.5,29.7,17.23-3,28.15-13.21,32.71-30.18.62-2.28.62-5,4.21-5.25a5.43,5.43,0,0,0,5.33-6.07c-.16-3.44-2.51-5.41-5.89-5.67-3.73-.29-7.1-1.64-10.46-3.06C298.3,155.18,281.72,146.81,266.41,135.49ZM332,163.24V151.08c0-30.6-25.71-53.38-55.82-48.59-26.45,4.21-44,26.71-41,58.16.09.85.17,1.53,1.27,1.76,6,1.27,14.61-2.41,18.25-8,3.91-5.94,5.83-12.66,7.21-19.54,1.42-7.06,1.63-6.92,7.53-2.56C288.33,146.26,308.78,157,332,163.24Zm-85.34,71.38a61.76,61.76,0,0,0-19.89,23.45c-7.21,14.18-7.46,29.5-5.22,44.44,2.51,16.75,13.15,27.88,29.59,33,2.39.74,4.35,1.62,3.24-2.5a32.49,32.49,0,0,1-.26-15.8c.69-3.05,0-4.77-2.87-6.35a16.83,16.83,0,0,1-9-13.08c-.67-6.1-.31-12.3-.34-18.46,0-1.31,0-2.91,1.9-2.89,1.73,0,2.08,1.47,2.1,2.85,0,4.33,0,8.66,0,13,.11,13.22,7,18.3,19.83,14.32-2.82-5.32-5.24-10.83-8.48-15.81-4.7-7.23-6.2-14.11-.32-21.35,2-2.44,1.23-4.39-1.18-6.26-3.16-2.43-6-5.33-9.13-7.75-4-3-5.29-6.46-3-11.23C244.84,241.59,245.4,238.64,246.64,234.62ZM290.46,341v.29c-7,0-14,.07-20.94,0-2.38,0-3.64.35-3.56,3.2.2,6.47.1,13,.05,19.44,0,3,1,4.76,4.32,4.63,17.42-.67,34.84-1.22,52.26-1.94,4-.17,5-2,2.94-5.65-3.37-6.1-7-12-10.53-18.07a3.51,3.51,0,0,0-3.61-1.93C304.42,341.06,297.44,341,290.46,341Zm-120.18,2.27h14c4.41,0,6.84-2.08,6.84-6.64,0-7-.14-14,0-20.92.07-2.87-1-3.83-3.72-3.82q-17.19.09-34.38,0c-2.7,0-3.9,1.07-3.86,3.87.11,6.81-.08,13.62.08,20.43.11,4.93,2.47,7,7.6,7.06C161.31,343.29,165.8,343.24,170.28,343.24Zm101-127.58c-.58,5.61,0,11.06-1.24,16.48-1.66,7.36-.8,14.88.18,22.32.33,2.58,1.49,3.93,4.36,4.25a79.57,79.57,0,0,0,18.38,0c2.94-.36,3.64-1.84,4.22-4.41,2.77-12.34-1.11-24.42-1.14-36.64,0-1.81-1.12-1.71-2.36-1.43A48.39,48.39,0,0,1,271.23,215.66Zm29.58,4.46c.24,3,.42,5.34.59,7.64.78,10.29,1.4,20.56-1.08,30.75-3.56,14.62-7,29.27-10.54,43.91-.45,1.85-2,4.24-.27,5.39,1.3.86,3.82,0,5.78-.29,1.8-.24,2.09-2,2.78-3.23,3.23-6,6.13-12.2,9.73-18,2.92-4.67,2.73-8.53,0-13.24-4.72-8.13-4.44-8.3,2.58-14.26,11.62-9.89,11.67-9.91,5.54-24.13C313.06,228.08,308.72,222.85,300.81,220.12Zm-33.74-.25c-9.86,3.62-14.39,10.24-17,18.44-4.41,13.61-5.89,9.41,5,18.8,8.85,7.66,9.06,7.59,3.41,18.2-1.66,3.12-1.87,5.66,0,8.79a187,187,0,0,1,9.82,18.5c2.27,5.17,5.94,5.76,10.57,5.35C273.2,278.85,260.25,251.17,267.07,219.87Zm81.74-28.61c-.26-1.81-.68-4.28-3.52-5.3a16.75,16.75,0,0,1-9-7.5c-.43-.73-1.44-1.86-1.66-1.5-2,3.22-7.33,2.85-8.25,6.52-3.45,13.68-11.66,23.25-24,29.55-1,.53-2.59,1.87-1.4,2.38,3.26,1.41,6.9,5.24,9.85,3.59,6.52-3.64,13.82-3.35,20.47-5.77C340.52,209.87,348.64,200,348.81,191.26Zm-116.45-15c-2.38,3.75-4.19,7.44-8.1,8.58-5.95,1.74-6.51,5.93-4.82,11.57,3,10,13.34,17.68,24.78,18.68,2,.17,4.06-.11,5.78,1.13,4.62,3.36,9.26,3.77,14,.34.87-.63,2.62,0,2.73-1.64s-1.42-1.67-2.4-2.17c-11.86-6.07-19.72-15.43-23.2-28.34-.39-1.47-.46-2.88-2.43-3.25C236,180.65,234.16,178.66,232.36,176.27Zm36.75,135.61a26.33,26.33,0,0,1-3.5,0c-5.23-.86-7.19,1.93-7.61,6.61-.46,5.15-.64,10.25.79,15.31.65,2.27,1.89,3.42,4.2,3.42,3.65,0,7.33.2,10.95-.12,5.39-.47,8.44-3.42,9.55-8.61,1.38-6.47-.54-12.61-4.7-15.15C275.59,311.37,272,312.08,269.11,311.88Zm29.62,0v-.15a70.22,70.22,0,0,0-7.42.56c-3.31.59-5.35,2-4.07,6.14a20.54,20.54,0,0,1-.05,12.27c-1.09,3.47.36,4.93,3.34,5.76,4.89,1.37,9.88.68,14.82.6,2,0,2.75-1.63,3.22-3.31a35.42,35.42,0,0,0,.15-18.17c-.59-2.38-1.91-3.78-4.52-3.71C302.37,311.93,300.55,311.89,298.73,311.89Zm-15.08-2.79c4-16.08,7.63-30.8,11.38-45.92-6.93,0-13.38.11-19.82-.05-3.31-.08-2.45,1.93-2,3.58C276.5,280.37,279.91,294,283.65,309.1ZM261.7,352.35c0-3.47,1.1-7.56-.39-10.18-1-1.74-5.68-1.35-8.72-1.92a5.8,5.8,0,0,1-1.45-.35c-3.06-1.55-4.45-.43-5.06,2.78-1,5-2.23,10-3.32,15.05s-.45,5.75,4.8,5.87c1,0,2,0,3,0C262,363.61,262,363.61,261.7,352.35Zm-119.41-4.79c11.19,9.64,47.87,9.34,55,0Zm53.15-15.84c3-3.48,8.72-.76,10.31-6.21C195,324.67,195,324.67,195.44,331.72Zm9.49-10.52c-2.76-3.05-5.2-3.13-7.69-3.05-1.06,0-2,.3-2,1.61s1.11,1.42,2.1,1.43C199.59,321.21,201.8,321.2,204.93,321.2Z" transform="translate(-13.9 -56.14)"/><path class="cls-2" d="M257.08,104.49c-12.24,8.3-21.22,19-24.71,33.71-2.1,8.86-1,17.89-1.43,26.84-.4,7.47-2.85,13.91-10.5,17.22-3,1.3-4,1.16-3.92-2.52.16-14,0-28,0-42,0-9.47-2.4-11.42-11.79-10.17-29.12,3.9-58.38,4.58-87.71,3.44,5.68-6.44,13.12-10.51,20.49-14.45a163.59,163.59,0,0,1,60.44-18.54c18.74-2,37-.27,55.19,4C254.77,102.46,256.43,102.57,257.08,104.49Z" transform="translate(-13.9 -56.14)"/><path class="cls-2" d="M361,321.05h-16.6c14.54-40.61,6-73.63-32.06-97.78,4.69-2.31,8.12-4,12.44-4.33,13.26-1.07,24.82-11.35,27.56-23.84,1.51-6.86-.05-10.23-6.32-13.2-6.88-3.25-8.87-9.57-9.91-16.23-.53-3.4,0-7,.08-10.45,6,4.21,9.18,10.63,13,16.52a152.29,152.29,0,0,1,22.29,57.49,164.53,164.53,0,0,1,1.9,42C371.81,288.54,367.09,304.92,361,321.05Z" transform="translate(-13.9 -56.14)"/><path class="cls-4" d="M145.92,355.35c16.59,4.13,33.13,4.89,49.6-.62,1.32,2.31,3.95,2.26,6,3.29,2.9,1.49,2.84,2.67.08,4.47-3,1.95-6.39,2-9.56,2.44a160.47,160.47,0,0,1-48.57-.81,4.07,4.07,0,0,1-1.42-.45c-1.64-1-4.46-1.05-4.55-3.32-.09-2.45,2.66-2.47,4.43-3.21C143.25,356.58,144.58,356,145.92,355.35Z" transform="translate(-13.9 -56.14)"/><path class="cls-3" d="M45.1,321c2.15,1.14,6.46-1.69,6.42,2.19,0,3.47-4.26,2-6.61,1.94s-6.56,1.57-6.44-2.09S42.85,322.1,45.1,321Z" transform="translate(-13.9 -56.14)"/><path class="cls-3" d="M382.93,321c2.24,1.11,6.51-1.59,6.6,2.07s-4.16,2.06-6.48,2.06-6.58,1.54-6.58-2C376.47,319.34,380.78,322.17,382.93,321Z" transform="translate(-13.9 -56.14)"/><path class="cls-3" d="M177.92,266.83c-.6,2.56.84,4.44,2.12,6.4,1.55,2.36,3.08,4.73,4.48,7.18,2.24,3.9,1.84,7.57-1.08,11-1.91,2.27-4.26,4.24-5.26,7.19-.37,1.08-1.2,1.72-2.31,1.29a2.27,2.27,0,0,1-1.33-2.88c.66-2.9,2.58-5,4.65-6.95,3.11-2.88,3.28-5.88,1-9.28-1.87-2.74-3.73-5.5-5.46-8.33-1.13-1.85-2.14-3.87-1.26-6.12.59-1.52,1.3-3.4,3.41-2.9C178.6,263.89,178.1,265.53,177.92,266.83Z" transform="translate(-13.9 -56.14)"/><path class="cls-3" d="M160.24,256.43c-.71,2.43.35,4,1.32,5.52,1.6,2.52,3.3,5,4.84,7.54,2.72,4.56,2.3,8.79-1.38,12.74-1.68,1.8-3.56,3.47-4.35,6-.34,1.1-1.15,2.15-2.62,1.51s-1.25-1.83-1.08-3c.4-2.65,2.21-4.45,4-6.11,3.59-3.26,3.83-6.68,1.05-10.55q-2.75-3.85-5.21-7.9c-1.13-1.86-1.94-3.9-1-6.13.58-1.37,1.23-3.05,3.06-2.68C160.92,253.76,161,255.27,160.24,256.43Z" transform="translate(-13.9 -56.14)"/><path class="cls-5" d="M212.16,142.13c0,10.19,0,10.07-10.12,10.31-2,0-6-1.87-5.86,2.15.13,3.11,3.79,1.7,5.85,1.74,10.13.17,10.13.09,10.13,10.29,0,1.16-.09,2.34,0,3.49.44,4.78.16,8.81-6.51,7.45-1.52-.31-3.34.21-3.3,2.13s1.93,2.45,3.37,2.18c6.75-1.28,6.85,2.86,6.42,7.56,0,.33,0,.66,0,1-.08,3.65,1.09,8.06-.55,10.78-1.94,3.21-6.75.7-10.25,1.3-1.46.26-3.29.15-3.35,2.18s1.71,2.1,3.22,2.26c.16,0,.33,0,.5,0,3.37.45,8.79-1.66,9.76,1.13,1.85,5.33,1,11.51.34,17.28-.26,2.24-2.51,1.39-4.15,1.21-28.15-3.17-56.38-5-84.71-4-17.45.6-34.9,1.72-52.23,3.94-4.63.6-6.18-1-5.65-5.37.06-.5,0-1,0-1.5.06-3.83-1.18-8.43.52-11.28,2-3.35,7-.82,10.68-1.37,1.51-.23,3.33-.2,3.39-2.14s-1.84-2.08-3.29-2.27a33.82,33.82,0,0,0-3.49-.06c-9.09-.15-7.66,1.23-7.81-8.06,0-1.5,0-3,0-4.5,0-6.95,0-6.95,6.87-8,1.33-.21,2.85-.33,3-2.05.15-2.12-1.53-2.2-3.07-2.38-6.77-.8-6.88-.81-6.73-7.58.09-4.28-1.8-9.62.88-12.55s7.89-.6,12-1c1.55-.15,3.77.4,3.66-2.14-.1-2-2-1.87-3.48-1.91-.33,0-.67,0-1,0-3.9-.44-10.09,1.85-11.27-1-2.26-5.46-1.09-12.09-.51-18.19.23-2.36,2.71-1.86,4.55-1.61a503.35,503.35,0,0,0,61.7,4.3,503.94,503.94,0,0,0,75.68-4.35c3.5-.49,5.07.52,4.84,4.14C212.05,137.79,212.16,140,212.16,142.13Zm-73,69.58c17.66-.21,32.78-15.59,32.32-33.27a32.34,32.34,0,0,0-32.9-31.9c-18,0-32,15.23-31.75,33.42A32.18,32.18,0,0,0,139.18,211.71Zm-45.5-34.1v0c-2.33,0-4.66,0-7,0a2.16,2.16,0,0,0-2.36,2.09,2,2,0,0,0,2,1.93,70.19,70.19,0,0,0,14.42.13,2,2,0,1,0-.07-4.09C98.34,177.5,96,177.61,93.68,177.61Zm90.27-.07c-2.17,0-4.33,0-6.5,0-1.22,0-2.36.37-2.52,1.86a2,2,0,0,0,2,2.32q7,.17,14,0a2,2,0,0,0,2-2.34c-.16-1.51-1.3-1.8-2.52-1.83C188.28,177.5,186.12,177.53,184,177.54ZM95.62,207.09c2.34-.92,6.88,1.54,6.91-2.32s-4.46-2.12-6.94-2.14-6.84-1.56-6.75,2.37C88.92,208.42,93.2,206.33,95.62,207.09Zm85.94,0c2.46-.94,7,1.47,7-2.37s-4.46-2.08-7-2.14c-2.33-.05-6.47-1.44-6.46,2.17C175.15,208.71,179.38,206.14,181.56,207.13Zm-.65-54.77v0c-1.83,0-3.66,0-5.49,0-1.43,0-2.81.29-2.78,2.08,0,1.48,1.21,1.89,2.46,1.9,3.83,0,7.66,0,11.48,0,1.24,0,2.36-.51,2.28-2.05s-1.2-1.86-2.45-1.88C184.57,152.34,182.74,152.36,180.91,152.36Zm-84.16,4c1.83,0,3.66.06,5.49,0,1.4-.06,2.79-.39,2.6-2.25-.15-1.49-1.37-1.72-2.59-1.73-3.67,0-7.33,0-11,0-1.24,0-2.46.3-2.6,1.74-.17,1.79,1.16,2.21,2.6,2.25C93.08,156.39,94.91,156.35,96.75,156.36Z" transform="translate(-13.9 -56.14)"/><path class="cls-6" d="M266.41,135.49c15.31,11.32,31.89,19.69,49.08,26.93,3.36,1.42,6.73,2.77,10.46,3.06,3.38.26,5.73,2.23,5.89,5.67a5.43,5.43,0,0,1-5.33,6.07c-3.59.27-3.59,3-4.21,5.25-4.56,17-15.48,27.16-32.71,30.18-20,3.5-39.91-9.91-44.5-29.7-.72-3.09-1.33-5.49-5.35-5.93-3.19-.35-4.37-3.23-4-6.45.32-2.89,2-4.86,4.84-4.73,11.77.57,17.36-6.84,21.24-16.29C263.63,145.12,264.82,140.42,266.41,135.49Zm17.36,62.79a18.92,18.92,0,0,0,13.14-4.95c1.14-1,1.67-2.15.54-3.42s-2.07-.46-3,.28c-7.09,5.48-14.2,5.61-21.37.13-1-.8-2.19-1.75-3.39-.18s-.08,2.4.93,3.32A18.42,18.42,0,0,0,283.77,198.28Zm16.91-37.5a8.54,8.54,0,0,0-8.07,4.85c-.62,1.21-.55,2.19.66,3a1.72,1.72,0,0,0,2.54-.65c3-4.16,6-4.13,9.11-.21.79,1,1.61,1.74,2.87.78s1-1.92.39-3.08C306.62,162.29,304,161,300.68,160.78Zm-32.43.08c-4.86,0-7.6,1.28-9.06,4.52-.48,1.05-.75,2.27.46,3.15s2.11,0,2.85-.93c3-3.75,5.89-3.83,8.8.09.73,1,1.62,1.76,2.9.75s.86-2,.3-3.11A7.61,7.61,0,0,0,268.25,160.86Zm40.23,24.42c3.15.07,4.41-2.3,4.36-5.11,0-3.19-2.74-4.75-5.41-4.63s-4.38,2.25-4.4,5.11C303,184,305,185.29,308.48,185.28Zm-44.39-5.6c.28-2.42-1.68-4.05-4.37-4.17S255,176.78,255,180s1.2,5.19,4.56,5.21C262.59,185.23,263.94,183.39,264.09,179.68Z" transform="translate(-13.9 -56.14)"/><path class="cls-7" d="M332,163.24c-23.2-6.22-43.65-17-62.51-30.9-5.9-4.36-6.11-4.5-7.53,2.56-1.38,6.88-3.3,13.6-7.21,19.54-3.64,5.56-12.28,9.24-18.25,8-1.1-.23-1.18-.91-1.27-1.76-3.05-31.45,14.5-53.95,41-58.16,30.11-4.79,55.8,18,55.82,48.59Z" transform="translate(-13.9 -56.14)"/><path class="cls-4" d="M246.64,234.62c-1.24,4-1.8,7-3,9.58-2.26,4.77-1,8.19,3,11.23,3.17,2.42,6,5.32,9.13,7.75,2.41,1.87,3.17,3.82,1.18,6.26-5.88,7.24-4.38,14.12.32,21.35,3.24,5,5.66,10.49,8.48,15.81-12.8,4-19.72-1.1-19.83-14.32,0-4.32,0-8.65,0-13,0-1.38-.37-2.83-2.1-2.85-1.88,0-1.91,1.58-1.9,2.89,0,6.16-.33,12.36.34,18.46a16.83,16.83,0,0,0,9,13.08c2.86,1.58,3.56,3.3,2.87,6.35a32.49,32.49,0,0,0,.26,15.8c1.11,4.12-.85,3.24-3.24,2.5-16.44-5.14-27.08-16.27-29.59-33-2.24-14.94-2-30.26,5.22-44.44A61.76,61.76,0,0,1,246.64,234.62Z" transform="translate(-13.9 -56.14)"/><path class="cls-4" d="M322.28,236a57.92,57.92,0,0,1,23.56,39.63c1.61,11.21,2.22,22.67-1.73,33.59-4.81,13.36-14.22,22.14-27.89,26.38-3.43,1.06-3.83-.19-3.17-3a34.63,34.63,0,0,0-.06-16.32c-.55-2.26,0-3.63,2.21-4.79,6.56-3.5,9.92-9.27,10.41-16.56.33-5,.11-10,.1-15,0-1.52-.09-3.37-2-3.49-2.34-.13-2.39,1.93-2.41,3.58q-.09,7.25,0,14.49A14.58,14.58,0,0,1,316,305.92c-3.17,2.83-9.51,3.5-13.06,1.45-1.95-1.14-.5-2.32,0-3.32,2.83-5.47,5.42-11.1,8.73-16.27,3.58-5.6,3.95-10.84-.16-16-3.55-4.51-2.3-7.82,2.18-10.39,10.22-5.87,13.54-13.82,7.75-24.67Z" transform="translate(-13.9 -56.14)"/><path class="cls-7" d="M290.46,341c7,0,14,.09,20.93-.07a3.51,3.51,0,0,1,3.61,1.93c3.49,6,7.16,12,10.53,18.07,2,3.65,1.07,5.48-2.94,5.65-17.42.72-34.84,1.27-52.26,1.94-3.35.13-4.34-1.65-4.32-4.63.05-6.48.15-13-.05-19.44-.08-2.85,1.18-3.24,3.56-3.2,7,.11,14,0,20.94,0Z" transform="translate(-13.9 -56.14)"/><path class="cls-7" d="M170.28,343.24c-4.48,0-9,.05-13.45,0-5.13-.06-7.49-2.13-7.6-7.06-.16-6.81,0-13.62-.08-20.43,0-2.8,1.16-3.88,3.86-3.87q17.19.06,34.38,0c2.72,0,3.79.95,3.72,3.82-.17,7,0,13.95,0,20.92,0,4.56-2.43,6.63-6.84,6.64Z" transform="translate(-13.9 -56.14)"/><path class="cls-7" d="M271.23,215.66a48.39,48.39,0,0,0,22.4.52c1.24-.28,2.36-.38,2.36,1.43,0,12.22,3.91,24.3,1.14,36.64-.58,2.57-1.28,4.05-4.22,4.41a79.57,79.57,0,0,1-18.38,0c-2.87-.32-4-1.67-4.36-4.25-1-7.44-1.84-15-.18-22.32C271.21,226.72,270.65,221.27,271.23,215.66Z" transform="translate(-13.9 -56.14)"/><path class="cls-6" d="M300.81,220.12c7.91,2.73,12.25,8,15.1,14.58,6.13,14.22,6.08,14.24-5.54,24.13-7,6-7.3,6.13-2.58,14.26,2.74,4.71,2.93,8.57,0,13.24-3.6,5.76-6.5,12-9.73,18-.69,1.27-1,3-2.78,3.23-2,.26-4.48,1.15-5.78.29-1.73-1.15-.18-3.54.27-5.39,3.52-14.64,7-29.29,10.54-43.91,2.48-10.19,1.86-20.46,1.08-30.75C301.23,225.46,301.05,223.15,300.81,220.12Z" transform="translate(-13.9 -56.14)"/><path class="cls-6" d="M267.07,219.87c-6.82,31.3,6.13,59,11.68,88.08-4.63.41-8.3-.18-10.57-5.35a187,187,0,0,0-9.82-18.5c-1.83-3.13-1.62-5.67,0-8.79,5.65-10.61,5.44-10.54-3.41-18.2-10.86-9.39-9.38-5.19-5-18.8C252.68,230.11,257.21,223.49,267.07,219.87Z" transform="translate(-13.9 -56.14)"/><path class="cls-6" d="M348.81,191.26c-.17,8.74-8.29,18.61-17.54,22-6.65,2.42-13.95,2.13-20.47,5.77-2.95,1.65-6.59-2.18-9.85-3.59-1.19-.51.36-1.85,1.4-2.38,12.38-6.3,20.59-15.87,24-29.55.92-3.67,6.22-3.3,8.25-6.52.22-.36,1.23.77,1.66,1.5a16.75,16.75,0,0,0,9,7.5C348.13,187,348.55,189.45,348.81,191.26Z" transform="translate(-13.9 -56.14)"/><path class="cls-6" d="M232.36,176.27c1.8,2.39,3.62,4.38,6.38,4.9,2,.37,2,1.78,2.43,3.25,3.48,12.91,11.34,22.27,23.2,28.34,1,.5,2.49.7,2.4,2.17s-1.86,1-2.73,1.64c-4.78,3.43-9.42,3-14-.34-1.72-1.24-3.81-1-5.78-1.13-11.44-1-21.81-8.73-24.78-18.68-1.69-5.64-1.13-9.83,4.82-11.57C228.17,183.71,230,180,232.36,176.27Z" transform="translate(-13.9 -56.14)"/><path class="cls-7" d="M269.11,311.88c2.92.2,6.48-.51,9.68,1.44,4.16,2.54,6.08,8.68,4.7,15.15-1.11,5.19-4.16,8.14-9.55,8.61-3.62.32-7.3.11-10.95.12-2.31,0-3.55-1.15-4.2-3.42-1.43-5.06-1.25-10.16-.79-15.31.42-4.68,2.38-7.47,7.61-6.61A26.33,26.33,0,0,0,269.11,311.88Z" transform="translate(-13.9 -56.14)"/><path class="cls-6" d="M298.73,311.89c1.82,0,3.64,0,5.46,0,2.61-.07,3.93,1.33,4.52,3.71a35.42,35.42,0,0,1-.15,18.17c-.47,1.68-1.27,3.28-3.22,3.31-4.94.08-9.93.77-14.82-.6-3-.83-4.43-2.29-3.34-5.76a20.54,20.54,0,0,0,.05-12.27c-1.28-4.1.76-5.55,4.07-6.14a70.22,70.22,0,0,1,7.42-.56Z" transform="translate(-13.9 -56.14)"/><path class="cls-6" d="M283.65,309.1c-3.74-15.08-7.15-28.73-10.48-42.39-.41-1.65-1.27-3.66,2-3.58,6.44.16,12.89.05,19.82.05C291.28,278.3,287.63,293,283.65,309.1Z" transform="translate(-13.9 -56.14)"/><path class="cls-6" d="M261.7,352.35c.28,11.26.28,11.26-11.15,11.26-1,0-2,0-3,0-5.25-.12-5.88-.87-4.8-5.87s2.36-10,3.32-15.05c.61-3.21,2-4.33,5.06-2.78a5.8,5.8,0,0,0,1.45.35c3,.57,7.74.18,8.72,1.92C262.8,344.79,261.7,348.88,261.7,352.35Z" transform="translate(-13.9 -56.14)"/><path class="cls-8" d="M142.29,347.56h55C190.16,356.9,153.48,357.2,142.29,347.56Z" transform="translate(-13.9 -56.14)"/><path class="cls-8" d="M195.44,331.72c-.43-7.05-.43-7.05,10.31-6.21C204.16,331,198.47,328.24,195.44,331.72Z" transform="translate(-13.9 -56.14)"/><path class="cls-8" d="M204.93,321.2c-3.13,0-5.34,0-7.55,0-1,0-2.06-.06-2.1-1.43s.9-1.58,2-1.61C199.73,318.07,202.17,318.15,204.93,321.2Z" transform="translate(-13.9 -56.14)"/><path class="cls-4" d="M321.47,236.67c-.06-.36-.13-.72-.19-1.08l1,.36Z" transform="translate(-13.9 -56.14)"/><path class="cls-3" d="M139.18,211.71A32.18,32.18,0,0,1,106.85,180c-.27-18.19,13.75-33.41,31.75-33.42a32.34,32.34,0,0,1,32.9,31.9C172,196.12,156.84,211.5,139.18,211.71Zm-25.24-20.56c.26-.15.66-.24.75-.46,2-4.69,5.52-7.14,10.64-6.32,4.91.78,7.4,4.16,8.06,8.92.33,2.45,1.3,3.8,4,4.21,3.22.49,5.63,2.51,5.76,5.95.14,3.92,2.36,3.32,4.68,2.54A28.49,28.49,0,0,0,163.6,192.9c.72-1.25,2.17-2.69,1.36-4.07s-2.74-.49-4.14-.36a16.84,16.84,0,0,1-17.89-11.34c-1.1-3.08-1-6.23-.94-9.38,0-2-.36-3.9-2.55-4.26s-3.14,1.27-3.51,3.31c-.74,4.1-3,6.68-7.42,6.56s-7.48-2.54-8.68-6.87a52.8,52.8,0,0,1-1-6.23C110.31,167.51,108.12,181.78,113.94,191.15Zm25.43-40.1c-11.1,0-15.11,2.94-15.67,11.43-.2,3.12.33,5.81,3.73,6.64,3.82.93,4.06-1.87,4.78-4.64a6.49,6.49,0,0,1,7.51-5.13A6.73,6.73,0,0,1,146,166c.14,1.82,0,3.66.07,5.48.5,9.12,8.12,14.79,16.95,12.66,2.76-.66,4.05-2.11,4.16-5.19C167.64,164.23,154.68,151.1,139.37,151.05Zm-4.45,56.15c1.62-.33,3.71,1,4.16-1.68.4-2.34-.38-3.91-2.94-4.21-4.34-.51-6.34-3.24-6.83-7.3-.34-2.93-1.57-5.1-4.65-5.65a4.73,4.73,0,0,0-5.67,3c-1.13,2.82-1.78,5.76.76,8.31A27,27,0,0,0,134.92,207.2Z" transform="translate(-13.9 -56.14)"/><path class="cls-3" d="M93.68,177.61c2.33,0,4.66-.11,7,0a2,2,0,1,1,.07,4.09,70.19,70.19,0,0,1-14.42-.13,2,2,0,0,1-2-1.93,2.16,2.16,0,0,1,2.36-2.09c2.33-.07,4.66,0,7,0Z" transform="translate(-13.9 -56.14)"/><path class="cls-3" d="M184,177.53c2.17,0,4.33,0,6.5,0,1.22,0,2.36.32,2.52,1.83a2,2,0,0,1-2,2.34q-7,.19-14,0a2,2,0,0,1-2-2.32c.16-1.49,1.3-1.83,2.52-1.86C179.62,177.5,181.78,177.54,184,177.53Z" transform="translate(-13.9 -56.14)"/><path class="cls-3" d="M95.62,207.09c-2.42-.76-6.7,1.33-6.78-2.09-.09-3.93,4.3-2.38,6.75-2.37s7-1.64,6.94,2.14S98,206.17,95.62,207.09Z" transform="translate(-13.9 -56.14)"/><path class="cls-3" d="M181.56,207.13c-2.18-1-6.41,1.58-6.41-2.34,0-3.61,4.13-2.22,6.46-2.17,2.51.06,7-1.6,7,2.14S184,206.19,181.56,207.13Z" transform="translate(-13.9 -56.14)"/><path class="cls-3" d="M180.91,152.36c1.83,0,3.66,0,5.5,0,1.25,0,2.36.38,2.45,1.88s-1,2-2.28,2.05c-3.82.07-7.65.06-11.48,0-1.25,0-2.43-.42-2.46-1.9,0-1.79,1.35-2.06,2.78-2.08,1.83,0,3.66,0,5.49,0Z" transform="translate(-13.9 -56.14)"/><path class="cls-3" d="M96.75,156.36c-1.84,0-3.67,0-5.5,0-1.44,0-2.77-.46-2.6-2.25.14-1.44,1.36-1.74,2.6-1.74,3.67,0,7.33,0,11,0,1.22,0,2.44.24,2.59,1.73.19,1.86-1.2,2.19-2.6,2.25C100.41,156.42,98.58,156.36,96.75,156.36Z" transform="translate(-13.9 -56.14)"/><path class="cls-3" d="M283.76,198.28a18.41,18.41,0,0,1-13.17-4.82c-1-.92-2.07-1.82-.93-3.32s2.35-.62,3.39.18c7.17,5.48,14.28,5.35,21.37-.13,1-.74,2-1.44,3-.28s.6,2.43-.54,3.42A18.93,18.93,0,0,1,283.76,198.28Z" transform="translate(-13.9 -56.14)"/><path class="cls-3" d="M300.68,160.78c3.27.19,5.94,1.51,7.5,4.66.57,1.16.76,2.21-.39,3.08s-2.08.22-2.87-.78c-3.12-3.92-6.15-4-9.11.21a1.72,1.72,0,0,1-2.54.65c-1.21-.78-1.28-1.76-.66-3A8.54,8.54,0,0,1,300.68,160.78Z" transform="translate(-13.9 -56.14)"/><path class="cls-3" d="M268.25,160.86a7.61,7.61,0,0,1,6.25,4.47c.56,1.1.86,2.19-.3,3.11s-2.17.24-2.9-.75c-2.91-3.92-5.82-3.84-8.8-.09-.74.92-1.5,1.91-2.85.93s-.94-2.1-.46-3.15C260.65,162.14,263.39,160.87,268.25,160.86Z" transform="translate(-13.9 -56.14)"/><path class="cls-2" d="M308.48,185.28c-3.47,0-5.48-1.29-5.45-4.63,0-2.86,1.82-5,4.4-5.11s5.36,1.44,5.41,4.63C312.89,183,311.63,185.35,308.48,185.28Z" transform="translate(-13.9 -56.14)"/><path class="cls-2" d="M264.09,179.68c-.15,3.71-1.5,5.55-4.57,5.54-3.36,0-4.58-2.06-4.56-5.21s2.1-4.62,4.76-4.5S264.37,177.26,264.09,179.68Z" transform="translate(-13.9 -56.14)"/><path class="cls-6" d="M113.94,191.15c-5.82-9.37-3.63-23.64,4.93-30.89a52.8,52.8,0,0,0,1,6.23c1.2,4.33,4.16,6.74,8.68,6.87s6.68-2.46,7.42-6.56c.37-2,1.25-3.68,3.51-3.31s2.56,2.26,2.55,4.26c0,3.15-.16,6.3.94,9.38a16.84,16.84,0,0,0,17.89,11.34c1.4-.13,3.26-1.11,4.14.36s-.64,2.82-1.36,4.07A28.49,28.49,0,0,1,147.81,206c-2.32.78-4.54,1.38-4.68-2.54-.13-3.44-2.54-5.46-5.76-5.95-2.68-.41-3.65-1.76-4-4.21-.66-4.76-3.15-8.14-8.06-8.92-5.12-.82-8.61,1.63-10.64,6.32C114.6,190.91,114.2,191,113.94,191.15Z" transform="translate(-13.9 -56.14)"/><path class="cls-2" d="M139.37,151.05c15.31,0,28.27,13.18,27.79,27.89-.11,3.08-1.4,4.53-4.16,5.19-8.83,2.13-16.45-3.54-16.95-12.66-.1-1.82.07-3.66-.07-5.48a6.73,6.73,0,0,0-6.26-6.64,6.49,6.49,0,0,0-7.51,5.13c-.72,2.77-1,5.57-4.78,4.64-3.4-.83-3.93-3.52-3.73-6.64C124.26,154,128.27,151,139.37,151.05Z" transform="translate(-13.9 -56.14)"/><path class="cls-2" d="M134.92,207.2a27,27,0,0,1-15.17-7.55c-2.54-2.55-1.89-5.49-.76-8.31a4.73,4.73,0,0,1,5.67-3c3.08.55,4.31,2.72,4.65,5.65.49,4.06,2.49,6.79,6.83,7.3,2.56.3,3.34,1.87,2.94,4.21C138.63,208.16,136.54,206.87,134.92,207.2Z" transform="translate(-13.9 -56.14)"/></svg>