<svg id="Layer_1" data-name="Layer 1" xmlns="http://www.w3.org/2000/svg" viewBox="0 0 400.15 400.2"><defs><style>.cls-1{fill:#fefefe;}.cls-2{fill:#eae2f7;}.cls-3{fill:#9359d4;}.cls-4{fill:#fbfcfe;}</style></defs><title>img-10</title><path class="cls-1" d="M14,256.28q0-98-.08-195.94c0-3.2.34-4.21,4-4.21q196.2.19,392.38,0c3.18,0,3.81.78,3.8,3.86q-.12,196.19,0,392.37c0,2.88-.32,4-3.7,3.95q-196.44-.16-392.88,0c-3,0-3.56-.68-3.56-3.6Q14.07,354.5,14,256.28Zm355.54,31c1.09-.42,1.22-1.39,1.52-2.37,2.18-7,2.26-14.42,2.76-21.61a140.69,140.69,0,0,0-5.48-49.18c-8.68-29.91-23.7-56-47.51-76.75a163.73,163.73,0,0,0-39.69-26.15C252,98,221.79,93.17,190,98.15c-34,5.34-63.38,20.09-88.09,43.82A153.57,153.57,0,0,0,67.5,192.12a162.6,162.6,0,0,0-13.45,58.73c-.47,11.63.85,23.14,2.88,34.6A160,160,0,0,0,108,376,163,163,0,0,0,155,404.66a158.51,158.51,0,0,0,48.24,10.91,168.87,168.87,0,0,0,39-2c16.87-2.63,32.64-8.74,47.71-16.74a149,149,0,0,0,38.81-29.15c3.44-3.65,8.48-6.62,9.27-12.44C363.78,339.68,375.21,317.47,369.54,287.32Z" transform="translate(-13.92 -56.13)"/><path class="cls-2" d="M338,355.22c-.79,5.82-5.83,8.79-9.27,12.44a149,149,0,0,1-38.81,29.15c-15.07,8-30.84,14.11-47.71,16.74a168.87,168.87,0,0,1-39,2A158.51,158.51,0,0,1,155,404.66,163,163,0,0,1,108,376a160,160,0,0,1-51.11-90.52c-2-11.46-3.35-23-2.88-34.6A162.6,162.6,0,0,1,67.5,192.12,153.57,153.57,0,0,1,101.93,142C126.64,118.24,156,103.49,190,98.15c31.77-5,62-.18,91.12,13.11a163.73,163.73,0,0,1,39.69,26.15c23.81,20.75,38.83,46.84,47.51,76.75a140.69,140.69,0,0,1,5.48,49.18c-.5,7.19-.58,14.57-2.76,21.61-.3,1-.43,1.95-1.52,2.36-6.79-23.53-21.65-39-45.74-44.59-4.31-1-5.12-2.67-5.09-6.6.17-21.49,0-43,.17-64.49.05-4.63-1.1-6.4-6.12-6.39q-110,.21-220,0c-4.5,0-6,1.13-6,5.86q.27,68.49,0,137c0,4.88,1.45,6.14,6.21,6.13,51.16-.16,102.32-.06,153.48-.17,3.94,0,5.92.68,7.34,5.05,6.69,20.69,20.93,34,41.76,40C310.12,363.26,324.28,361,338,355.22ZM209.42,386.46c6.89.39,19.22-1.64,31.62-2.38,4.23-.26,8.38-1.86,12.56-2.87,1.36-.33,2.76-1.11,2.73-2.5s-1.44-2.1-2.8-2.47c-1.12-.31-2.22-.69-3.34-1-11.78-3.11-23.92-3.17-35.94-3.86a221.82,221.82,0,0,0-31.34.69c-8.42.7-16.84,1.17-25,3.23-2.4.6-6.43.46-6.4,3.44s4,2.88,6.47,3.4C173.05,385.42,188.43,386,209.42,386.46Z" transform="translate(-13.92 -56.13)"/><path class="cls-3" d="M338,355.22c-13.72,5.78-27.88,8-42.4,3.88-20.83-6-35.07-19.31-41.76-40-1.42-4.37-3.4-5.06-7.34-5.05-51.16.11-102.32,0-153.48.17-4.76,0-6.23-1.25-6.21-6.13q.27-68.49,0-137c0-4.73,1.48-5.87,6-5.86q110,.18,220,0c5,0,6.17,1.76,6.12,6.39-.19,21.5,0,43-.17,64.49,0,3.93.78,5.59,5.09,6.6,24.09,5.62,38.95,21.06,45.74,44.59C375.21,317.47,363.78,339.68,338,355.22Zm-135.45-109c3.5-.31,6.21-2.28,8.95-4.16q47.63-32.53,95.21-65.16c2.2-1.52,6.55-2.67,5.81-5.21-.92-3.16-5.21-1.83-8.06-1.83q-101.71-.09-203.45-.05a33.14,33.14,0,0,0-4,.07c-1.58.18-3.74-.25-4.23,1.77-.45,1.82,1.63,2.28,2.78,3.06q49.65,34,99.34,68A19.88,19.88,0,0,0,202.55,246.19Zm-100.4,63.87H247c2.32,0,4.64.53,4.31-3.39a59.59,59.59,0,0,1,7-33.74c1-1.77.89-2.95-.64-4.32q-15.64-14-31.16-28.14c-1.81-1.64-3.22-1.76-5.2-.28-3.33,2.49-6.91,4.64-10.29,7.06-5.61,4-11.1,3.83-16.64-.12-3-2.12-6.19-3.94-9-6.23-2.68-2.16-4.46-2.06-7.12.4-12,11.1-24.21,21.9-36.33,32.84C129,285.74,116.19,297.36,102.15,310.06ZM91,176.72v5.44q0,61.23.06,122.46c0,1.78-1.21,4.31,1.24,5.25s4.41-.41,6.26-2.09q38.18-34.51,76.48-68.91c2.83-2.53,2.06-3.63-.57-5.36-8.05-5.33-16-10.84-24-16.27Zm223.75,0c-2.33,1.51-3.73,2.38-5.1,3.3l-56.56,38.52q-11.35,7.74-22.69,15.5c-1.25.86-3.46,1.46-1.14,3.55q15.42,13.88,30.8,27.79c1.66,1.5,2.43.6,3.51-.75,12.32-15.38,28.33-23.33,48.07-23.36,3.55,0,3.11-2,3.11-4.19q0-22,0-44ZM367,301.69c.08-31.09-25.1-56.47-56-56.43-30.67,0-55.83,25.28-55.9,56.07-.07,30.23,25.08,55.71,55,55.76C341.66,357.15,366.9,332.55,367,301.69Z" transform="translate(-13.92 -56.13)"/><path class="cls-3" d="M209.42,386.46c-21-.44-36.37-1-51.49-4.3-2.43-.52-6.44-.47-6.47-3.4s4-2.84,6.4-3.44c8.21-2.06,16.63-2.53,25-3.23a221.82,221.82,0,0,1,31.34-.69c12,.69,24.16.75,35.94,3.86,1.12.29,2.22.67,3.34,1,1.36.37,2.77,1.09,2.8,2.47s-1.37,2.17-2.73,2.5c-4.18,1-8.33,2.61-12.56,2.87C228.64,384.82,216.31,386.85,209.42,386.46Z" transform="translate(-13.92 -56.13)"/><path class="cls-4" d="M202.55,246.19a19.88,19.88,0,0,1-7.64-3.55q-49.68-34-99.34-68c-1.15-.78-3.23-1.24-2.78-3.06.49-2,2.65-1.59,4.23-1.77a33.14,33.14,0,0,1,4-.07q101.73,0,203.45.05c2.85,0,7.14-1.33,8.06,1.83.74,2.54-3.61,3.69-5.81,5.21Q259.16,209.54,211.5,242C208.76,243.91,206.05,245.88,202.55,246.19Z" transform="translate(-13.92 -56.13)"/><path class="cls-4" d="M102.15,310.06c14-12.7,26.86-24.32,39.71-35.92C154,263.2,166.22,252.4,178.19,241.3c2.66-2.46,4.44-2.56,7.12-.4,2.85,2.29,6.06,4.11,9,6.23,5.54,4,11,4.13,16.64.12,3.38-2.42,7-4.57,10.29-7.06,2-1.48,3.39-1.36,5.2.28q15.5,14.16,31.16,28.14c1.53,1.37,1.59,2.55.64,4.32a59.59,59.59,0,0,0-7,33.74c.33,3.92-2,3.39-4.31,3.39H102.15Z" transform="translate(-13.92 -56.13)"/><path class="cls-1" d="M91,176.72l59.51,40.52c8,5.43,15.91,10.94,24,16.27,2.63,1.73,3.4,2.83.57,5.36q-38.35,34.33-76.48,68.91c-1.85,1.68-3.89,3-6.26,2.09S91,306.4,91,304.62q-.11-61.23-.06-122.46Z" transform="translate(-13.92 -56.13)"/><path class="cls-4" d="M314.72,176.76v16.37q0,22,0,44c0,2.17.44,4.18-3.11,4.19-19.74,0-35.75,8-48.07,23.36-1.08,1.35-1.85,2.25-3.51.75q-15.36-13.94-30.8-27.79c-2.32-2.09-.11-2.69,1.14-3.55q11.32-7.77,22.69-15.5l56.56-38.52C311,179.14,312.39,178.27,314.72,176.76Z" transform="translate(-13.92 -56.13)"/><path class="cls-2" d="M367,301.69c-.08,30.86-25.32,55.46-56.84,55.4-30,0-55.12-25.53-55-55.76.07-30.79,25.23-56,55.9-56.07C341.88,245.22,367.06,270.6,367,301.69ZM310.3,346.4c3.65-.08,7.35.19,10.85-1.13,8-3,17-4.95,18.62-15.61.28-1.85,2-1.34,3.19-1.75,7.7-2.73,12.65-7.72,13.54-16.19.48-4.66-.06-9.27-.31-13.91-1.27-23.69-24.48-45.18-51.11-41.79-24.06,3.06-41.29,23.65-40,48.44C266.33,327.55,286.58,346.34,310.3,346.4Z" transform="translate(-13.92 -56.13)"/><path class="cls-3" d="M310.3,346.4c-23.72-.06-44-18.85-45.2-41.94-1.31-24.79,15.92-45.38,40-48.44,26.63-3.39,49.84,18.1,51.11,41.79.25,4.64.79,9.25.31,13.91-.89,8.47-5.84,13.46-13.54,16.19-1.16.41-2.91-.1-3.19,1.75-1.65,10.66-10.6,12.59-18.62,15.61C317.65,346.59,314,346.32,310.3,346.4Zm30.34-51c0,4.83,0,9.66,0,14.49,0,1.33-.12,2.93-1.82,3.09-2.1.2-2.2-1.66-2.39-3.09a29.59,29.59,0,0,1-.07-4c0-8.16.1-16.32-.05-24.48-.09-4.8-4.95-7.65-8.1-4.5-2.94,2.95-5,1.75-7.82.61a25.44,25.44,0,0,0-28.93,7.32,25.8,25.8,0,0,0-2,29.82c7.27,11.42,21.39,15.12,33.74,8.69,3.7-1.93,7.25-3.22,11.31-1A12.08,12.08,0,0,0,352,313.2a57.67,57.67,0,0,0-.37-19.4c-4.66-22.9-26.83-37.72-49.2-33.3S266,286.2,270,309.12c4.8,27.53,37.94,42.41,60.83,27.37,3.46-2.27,5.78-4.79,3.23-8.94-2.43-3.95-5.51-2.37-8.64-.71-12.59,6.7-27.12,4.26-36.42-6-8.79-9.73-10-24.85-2.85-35.63,7.82-11.8,21.57-16.5,35-11.78a5.65,5.65,0,0,0,5.08-.17c7.48-3.85,14.08.13,14.44,8.65C340.8,286.37,340.65,290.87,340.64,295.37Z" transform="translate(-13.92 -56.13)"/><path class="cls-4" d="M340.65,295.37c0-4.5.15-9,0-13.49-.36-8.52-7-12.5-14.44-8.65a5.65,5.65,0,0,1-5.08.17c-13.39-4.72-27.14,0-35,11.78C279,296,280.19,311.08,289,320.81c9.3,10.29,23.83,12.73,36.42,6,3.13-1.66,6.21-3.24,8.64.71,2.55,4.15.23,6.67-3.23,8.94-22.89,15-56,.16-60.83-27.37-4-22.92,10.23-44.23,32.45-48.62s44.54,10.4,49.2,33.3a57.67,57.67,0,0,1,.37,19.4,12.08,12.08,0,0,1-17.5,9.09c-4.06-2.19-7.61-.9-11.31,1-12.35,6.43-26.47,2.73-33.74-8.69a25.8,25.8,0,0,1,2-29.82,25.44,25.44,0,0,1,28.93-7.32c2.85,1.14,4.88,2.34,7.82-.61,3.15-3.15,8-.3,8.1,4.5.15,8.16,0,16.32.05,24.48a29.59,29.59,0,0,0,.07,4c.19,1.43.29,3.29,2.39,3.09,1.7-.16,1.81-1.76,1.82-3.09C340.67,305,340.64,300.2,340.65,295.37Zm-29.51,20.5a15.23,15.23,0,0,0,14.71-15.2c-.21-7.54-7.15-14.35-14.56-14.3a14.75,14.75,0,1,0-.15,29.5Z" transform="translate(-13.92 -56.13)"/><path class="cls-3" d="M311.14,315.87a14.75,14.75,0,1,1,.15-29.5c7.41-.05,14.35,6.76,14.56,14.3A15.23,15.23,0,0,1,311.14,315.87Zm0-4c5.67-.13,10.77-5.52,10.54-11.12s-5.41-10.54-10.77-10.32c-5.75.24-10.84,5.5-10.67,11C300.43,306.67,306.05,312,311.17,311.91Z" transform="translate(-13.92 -56.13)"/><path class="cls-2" d="M311.17,311.91c-5.12.12-10.74-5.24-10.9-10.4-.17-5.54,4.92-10.8,10.67-11,5.36-.22,10.54,4.75,10.77,10.32S316.84,311.78,311.17,311.91Z" transform="translate(-13.92 -56.13)"/></svg>