<svg id="Layer_1" data-name="Layer 1" xmlns="http://www.w3.org/2000/svg" viewBox="0 0 401.73 400.21"><defs><style>.cls-1{fill:#fefefe;}.cls-2{fill:#9359d4;}.cls-3{fill:#eef0fe;}.cls-4{fill:#edf0fe;}.cls-5{fill:#fbfbfe;}.cls-6{fill:#eae2f7;}.cls-7{fill:#d4d8fe;}</style></defs><title>img-03</title><path class="cls-1" d="M14,267.24q0-103.5-.1-207c0-3.43.68-4.1,4.1-4.1q196,.16,392,0c3.42,0,4.1.67,4.1,4.1q-.18,170.49-.1,341c-1.47-1.68-2.85-3.45-4.42-5q-25-25.05-50-50.05c-1.7-1.7-3.72-3.43-6.07-2.8-4.29,1.14-6.44-1.18-8.5-4.14a27.47,27.47,0,0,0,1.69-2.46c17.15-30.65,25.26-63.2,21.44-98.51a161.22,161.22,0,0,0-14.86-53.34c-11.68-24.21-28.89-43.92-50.3-60-1.78-1.34-3.57-3.17-6.24-2.61-4.06-16.52-13.26-28.9-29.49-35-17.06-6.4-32.59-2.69-46.72,8.25-1.91-1.25-4-1.3-6.23-1.34a167.67,167.67,0,0,0-28.22,2,163.36,163.36,0,0,0-71.58,29.33c-1.24.89-2.39,1.83-2.51,3.52-16.91-.15-31.85,13-31.17,32.19-2.06,0-2.55,1.84-3.51,3.13a124.7,124.7,0,0,0-13.86,24.1c-6.31,14.26-10.93,29-12.45,44.66-12.91,3.06-23.59,9.5-30.63,21C17.82,258.22,16.1,262.84,14,267.24Z" transform="translate(-13.45 -56.14)"/><path class="cls-1" d="M414,416.24c0,12.49-.06,25,.06,37.46,0,2.08-.31,2.91-2.53,2.58a30.55,30.55,0,0,0-4.49,0q-194.09,0-388.18.09c-3.82,0-5-.43-5-4.73.2-53.79.13-107.57.13-161.36,1.76,3.84,3.12,7.93,5.34,11.49C30.08,319,45.74,326.52,66,324.49c.1,3.74,2.67,6.35,4.34,9.37C82.58,356.13,99.71,374,120.73,388a155.07,155.07,0,0,0,74.41,26A159.21,159.21,0,0,0,308,380.5c7.44-5.78,14.58-12.08,20.21-19.81,1.42,1,2.61,1.94,2,4-1.07,3.87.85,6.62,3.5,9.23,6.17,6.05,12.18,12.28,18.28,18.41,9.86,9.9,19.57,20,29.66,29.62,10.29,9.84,23,8,30.87-4C412.94,417.37,412.93,416.35,414,416.24Z" transform="translate(-13.45 -56.14)"/><path class="cls-2" d="M412.52,418c-7.85,12-20.58,13.81-30.87,4-10.09-9.65-19.8-19.72-29.66-29.62-6.1-6.13-12.11-12.36-18.28-18.41-2.65-2.61-4.57-5.36-3.5-9.23.58-2.1-.61-3.07-2-4-3.36-3.45-6.87-6.78-10-10.41-2.24-2.58-3.91-2.36-6.65-.53-27.59,18.4-56.63,21.27-87,7.56a10.53,10.53,0,0,0-7.22-.89q-12.31,3.09-24.69,6c-2.3.55-3.35,1.47-3.82,4.16a30,30,0,0,1-38.9,23.69c-15.45-4.82-24.09-21.4-19.41-37.52.72-2.5,1.41-4.33-1.3-6.39-12.87-9.73-25.56-19.71-38.26-29.66-1.81-1.42-3.22-1.77-5.23-.21-5.78,4.48-12.54,6.71-19.67,8-20.23,2-35.89-5.47-46.63-22.76-2.22-3.56-7.62-16-5.34-34.49,1.62-6.65,3.82-9,6.36-13.15,7-11.48,17.72-17.92,30.63-21,7.3-.83,14.58-.91,21.62,1.54,2.34.81,2.82-.38,3.56-2.05Q85.7,211,95.38,189.46c1.05-2.34.93-3.61-1.37-5.27a31,31,0,0,1-13.2-23C80.13,142,95.07,128.88,112,129c13.49,1.41,23.07,8,27.53,21.11.93,2.72,2.39,2.61,4.5,2.16q29-6.18,58.08-12.29c2.19-.46,3.43-1.25,3.15-4-1.7-16,3.86-29.38,15.28-40.48,14.13-10.94,29.66-14.65,46.72-8.25,16.23,6.09,25.43,18.47,29.5,35,1.93,17.16-2.58,32-16.05,43.4-2.28,1.93-1.22,3.27-.11,5q8.71,13.68,17.31,27.42a12.15,12.15,0,0,0,4.77,4.17C344,225.4,359.8,274.15,340,316.57c-1.9,4.05-7.15,7.7-5.28,12.09,1.75,4.11,6.46,7,9.88,10.36a1.55,1.55,0,0,0,.45.21c2.06,3,4.21,5.28,8.5,4.14,2.35-.63,4.37,1.1,6.07,2.8q25,25,50,50.05a45.22,45.22,0,0,1,4.42,5C417.19,408.64,412.94,417.37,412.52,418ZM262,361.6c44,.59,82.39-36.42,82.39-83.32,0-44.84-36.92-81.91-83.22-82.12-44.6-.2-82.47,36.82-82.36,82.9C178.87,322.79,214.18,361.91,262,361.6Zm-202.84-41c23.43.16,41.86-18.34,42-42.14a41.66,41.66,0,0,0-41.49-41.68c-23.26-.12-42.42,18.57-42.46,41.42A42,42,0,0,0,59.12,320.59Zm124.3-79.74c9.91-19.52,24.48-33.28,43.93-41.83a4.64,4.64,0,0,0,2.87-3.14c1.94-6.35,3.95-12.68,6.15-18.95.68-1.94.17-2.59-1.57-3.24a43.65,43.65,0,0,1-15.44-9.84c-1.31-1.28-2.32-1.9-4.16-.45q-28.62,22.51-57.41,44.8c-1.81,1.41-1.72,2.33-.27,3.92C166,221.45,174.42,230.85,183.42,240.85ZM205,143.6a4.27,4.27,0,0,1-.48.13q-30.48,6.5-61,13c-2,.42-2.62,1.44-2.64,3.42A28,28,0,0,1,133,179.51c-1.89,2-1.91,3.27,0,5.28,4.72,4.93,9.23,10.06,13.74,15.18,6.07,6.9,6.06,7,13.18,1.44,17.09-13.27,34.11-26.64,51.27-39.83,2.64-2,3.27-3.53,1-6.3A30.66,30.66,0,0,1,207.5,146C207.12,144.91,207.12,143.08,205,143.6ZM396.39,424.19a15.27,15.27,0,0,0,13-9.42c2.61-5.76,1.62-11.21-2.76-15.64-16.51-16.71-33.16-33.27-49.72-49.92-2.34-2.34-4.32-2.52-6.73,0q-6.89,7.23-14.13,14.13c-2.85,2.72-2.55,4.87.13,7.53q24.12,23.94,48.09,48A16.75,16.75,0,0,0,396.39,424.19ZM214.23,353c-.25-.83-.25-1.23-.45-1.4-.63-.53-1.33-1-2-1.46a87.91,87.91,0,0,1-26.61-29.93,82.77,82.77,0,0,1-10.37-39.11c0-2.22.36-4.4-3.18-4-9.26,1-18.54,1.71-27.81,2.56-2,.18-2.86.78-2.25,3.18q5.83,22.95,11.28,46c.53,2.27,1.47,3.05,3.71,2.84a30.24,30.24,0,0,1,32.29,25.07c.25,1.4.27,2.46,2.36,1.91C198.83,356.6,206.52,354.84,214.23,353Zm36.66-180.63A41.86,41.86,0,0,0,293,130.14c0-22.93-19-41.93-42.06-41.87-22.77.07-41.85,19-41.91,41.59A42,42,0,0,0,250.89,172.35ZM134,280.54c-8.59.84-17.53,1.74-26.47,2.58-1.5.14-2.39.51-2.62,2.25a42.85,42.85,0,0,1-11.64,24.34c-1.35,1.43-1.73,2.49.2,4q19.19,14.76,38.21,29.74c1.79,1.41,2.83,1,4-.6a28,28,0,0,1,11.34-8.75c1.87-.85,2.41-1.94,1.93-3.88q-5.9-23.7-11.67-47.44C136.9,281,136.31,280,134,280.54Zm11-5.23c9.14-.8,17.58-1.58,26-2.27,2.66-.22,3.92-1.12,4.24-4.16a74.51,74.51,0,0,1,5.06-20.74c1.12-2.72.39-4.28-1.31-6.15-8.14-9-16.27-18-24.26-27.16-1.72-2-2.9-2-4.84-.42-5.82,4.7-11.67,9.38-17.71,13.78-2.5,1.82-3.25,3.39-2.41,6.56,3.13,11.7,6,23.47,8.65,35.3C139.38,274.41,140.8,276.93,145,275.31ZM102.3,188.14c-1.87-.66-2.5,1.19-3.25,2.9q-9.49,21.45-19,42.88c-.85,1.91-1.15,3.11,1.17,4.32a39.6,39.6,0,0,1,13.08,10.63c1.47,1.88,2.7,1.74,4.5.29q11.31-9,22.86-17.8c2-1.55,2.54-3,1.87-5.47-2.35-8.84-4.38-17.76-6.6-26.63-.8-3.2-1-6.95-2.94-9.32-1.59-2-5.38-.33-8.14-.82C104.85,188.94,103.91,188.59,102.3,188.14Zm16.21-21.46c4.25,2.08,7.62,4.27,10,7.6,1.72,2.41,2.68,1.51,3.9-.35A25.84,25.84,0,0,0,136,152.47a26.44,26.44,0,0,0-22.56-19.16,26.08,26.08,0,0,0-25.8,14.47c-4.74,9.64-3.21,20.82,3.71,28.08,1.8-1.7,3.51-3.53,5.44-5.06s4.11-2.78,6.38-4.28c-3.22-3.45-3.37-7.71-3.23-12.11.2-6.64,3.9-10.86,10.13-11.28,6.4-.43,11.16,3.56,11.82,10.14C122.39,158,122.28,162.64,118.51,166.68Zm59.91,211.68c7.69-8,8.86-20.21,3-30.13a26.26,26.26,0,0,0-29.35-11.7c-16.59,4.5-24.36,24.81-14.92,39,1.44,2.16,2.72,4,4.86.45a13.12,13.12,0,0,1,5.68-4.78c2.67-1.28,3.62-2.23,1.74-5.4-2.43-4.13-2.14-9-.6-13.55,1.61-4.73,6.3-7.42,11.44-7,4.43.36,8.74,3.8,9.45,8.28s1.33,9.32-1.49,13.55c-.81,1.23-1.57,2.21.38,3C172.72,371.84,175.56,375.13,178.42,378.36ZM135.15,274.18c-.07-.46-.09-.79-.16-1.11-3-12.28-6-24.55-9-36.85-.63-2.66-1.77-1.74-3.07-.73Q111.73,244.25,100.5,253c-1.17.92-1.79,1.77-.93,3.34a42.56,42.56,0,0,1,5.6,20.49c0,1.72.73,2.36,2.44,2.18q12.67-1.35,25.34-2.62C134.42,276.26,135.65,276,135.15,274.18Zm157.72-76.55c-6-9.45-11.31-17.8-16.59-26.18-.82-1.3-1.64-1.3-2.88-.6-9.36,5.32-19.49,6.29-30,5.16-1.26-.14-2.42,0-2.86,1.31-2,6.05-3.93,12.12-6.11,18.88a94.33,94.33,0,0,1,29-4.11C273.13,192.3,282.43,194.49,292.87,197.63ZM149.69,210c-.86-1.3-1.15-1.88-1.57-2.36-6.4-7.21-12.59-14.63-19.33-21.5-2.92-3-5.44,1.63-8.38,2-2.27.26-1.48,2.24-1.15,3.59,2.54,10.48,5.21,20.93,7.68,31.43.65,2.73,1.6,2.83,3.62,1.22,5.6-4.44,11.27-8.78,16.93-13.14A16.6,16.6,0,0,1,149.69,210ZM331.62,332a2.52,2.52,0,0,0-2.21,1.23c-3,3.5-5.79,7.25-9.55,10.07-1.83,1.36-.77,2.46.36,3.59,3.76,3.73,7.55,7.44,11.23,11.26,1.43,1.49,2.48,1.72,4,.09q4.43-4.71,9.15-9.12c1.72-1.61,1.76-2.77,0-4.43-3.84-3.64-7.52-7.46-11.28-11.2C332.76,332.86,332.1,332.36,331.62,332ZM110.74,185.23a27,27,0,0,0,13.33-3.57c2.4-1.26,3-2.52,1.19-4.93-6.89-9-21.78-9-28.67.07-1.62,2.13-1.37,3.34.9,4.65A27,27,0,0,0,110.74,185.23Zm48.11,202.1a24.29,24.29,0,0,0,13.83-3.52c1.87-1.09,2.42-2.25,1-4.35-6.06-9.33-22.42-9.63-28.89-.48-1.41,2-1.5,3.52.86,4.83C149.83,386.11,154.14,387.62,158.85,387.33ZM118,156.53c.48-3.17-.65-4.15-4-2.21a12,12,0,0,1-7.23,1.25c-2.67-.24-3,1.13-2.81,3.27a6.91,6.91,0,0,0,7.39,6.41C115.41,165,118,161.82,118,156.53Zm47.52,198.88c-1.86.69-3.71,1.35-5.52,2.08a13,13,0,0,1-5.9.65c-1.45-.1-2,.45-2.11,2a7,7,0,0,0,6,7.38C164.27,368.3,167.09,363.86,165.54,355.41ZM114.8,148.76c-1.06-1.68-2.62-1.62-4.1-1.58a6.69,6.69,0,0,0-5.21,2.5c-.47.56-.61,1.35,0,1.73,1.76,1.08,3.55.11,5.31-.18A5.57,5.57,0,0,0,114.8,148.76ZM153,353.81c3.87.7,7,.16,9.63-2.17.85-.76-.23-1.55-1-1.76C158.08,348.85,155.11,349.51,153,353.81Z" transform="translate(-13.45 -56.14)"/><path class="cls-3" d="M345,339.23a1.55,1.55,0,0,1-.45-.21c-3.42-3.4-8.13-6.25-9.88-10.36-1.87-4.39,3.38-8,5.28-12.09,19.85-42.42,4.06-91.17-37.29-114.28a12.15,12.15,0,0,1-4.77-4.17q-8.56-13.77-17.31-27.42c-1.11-1.74-2.17-3.08.11-5,13.47-11.42,18-26.24,16.05-43.4,2.66-.56,4.45,1.27,6.23,2.61,21.41,16.1,38.62,35.81,50.3,60a161.22,161.22,0,0,1,14.86,53.34c3.82,35.31-4.29,67.86-21.44,98.51A27.47,27.47,0,0,1,345,339.23Z" transform="translate(-13.45 -56.14)"/><path class="cls-3" d="M220.52,95.55c-11.42,11.1-17,24.46-15.28,40.48.28,2.73-1,3.52-3.15,4Q173,146.13,144,152.3c-2.11.45-3.57.56-4.5-2.16-4.46-13.07-14-19.7-27.53-21.11.12-1.69,1.27-2.63,2.51-3.52a163.36,163.36,0,0,1,71.58-29.33,167.67,167.67,0,0,1,28.22-2C216.48,94.25,218.61,94.3,220.52,95.55Z" transform="translate(-13.45 -56.14)"/><path class="cls-4" d="M80.81,161.22a31,31,0,0,0,13.2,23c2.3,1.66,2.42,2.93,1.37,5.27Q85.66,211,76.17,232.6c-.74,1.67-1.22,2.86-3.56,2.05-7-2.45-14.32-2.37-21.62-1.54,1.52-15.62,6.14-30.4,12.45-44.66a124.7,124.7,0,0,1,13.86-24.1C78.26,163.06,78.75,161.26,80.81,161.22Z" transform="translate(-13.45 -56.14)"/><path class="cls-3" d="M66,324.49c7.13-1.27,13.89-3.5,19.67-8,2-1.56,3.42-1.21,5.23.21,12.7,9.95,25.39,19.93,38.26,29.66,2.71,2.06,2,3.89,1.3,6.39-4.68,16.12,4,32.7,19.41,37.52a30,30,0,0,0,38.9-23.69c.47-2.69,1.52-3.61,3.82-4.16q12.38-2.93,24.69-6a10.53,10.53,0,0,1,7.22.89c30.4,13.71,59.44,10.84,87-7.56,2.74-1.83,4.41-2.05,6.65.53,3.16,3.63,6.67,7,10,10.41-5.63,7.73-12.77,14-20.21,19.81A159.21,159.21,0,0,1,195.14,414a155.07,155.07,0,0,1-74.41-26c-21-14-38.15-31.86-50.42-54.13C68.64,330.84,66.07,328.23,66,324.49Z" transform="translate(-13.45 -56.14)"/><path class="cls-5" d="M262,361.6c-47.78.31-83.09-38.81-83.19-82.54-.11-46.08,37.76-83.1,82.36-82.9,46.3.21,83.22,37.28,83.22,82.12C344.35,325.18,306,362.19,262,361.6Zm69.52-82.92c-.2-39.09-31.32-69.82-70.48-69.59-38.88.22-69,31.3-69.38,70.17-.33,37,31.26,69.87,70,69.82A70.22,70.22,0,0,0,331.48,278.68Z" transform="translate(-13.45 -56.14)"/><path class="cls-5" d="M59.12,320.59a42,42,0,0,1-41.94-42.4c0-22.85,19.2-41.54,42.46-41.42a41.66,41.66,0,0,1,41.49,41.68C101,302.25,82.55,320.75,59.12,320.59Zm.27-76.39C49.73,244.2,41.22,249,41,256c-.15,5.1-2.19,9-4,13.28-2.86,6.85-1.3,14.39-3.07,21.45a3.55,3.55,0,0,0,1.84,3.85c2,1.06,2.47,2.93,3.36,4.69,3.82,7.53,9.94,12,18.37,12.73,8.67.69,15.51-3,20.39-10.13,2-3,2.92-6.59,5.9-9a3.62,3.62,0,0,0,.69-4.64c-2.44-3.28-1.38-6.87-1.42-10.35,0-3.19-.27-6.27-1.8-9.17-2.06-3.88-4.3-7.6-3.49-12.48.4-2.4-1.52-4.64-3.39-6.41C70.18,245.81,65.08,244.22,59.39,244.2Z" transform="translate(-13.45 -56.14)"/><path class="cls-4" d="M183.42,240.85c-9-10-17.41-19.4-25.9-28.73-1.45-1.59-1.54-2.51.27-3.92q28.77-22.3,57.41-44.8c1.84-1.45,2.85-.83,4.16.45a43.65,43.65,0,0,0,15.44,9.84c1.74.65,2.25,1.3,1.57,3.24-2.2,6.27-4.21,12.6-6.15,18.95a4.64,4.64,0,0,1-2.87,3.14C207.9,207.57,193.33,221.33,183.42,240.85Z" transform="translate(-13.45 -56.14)"/><path class="cls-4" d="M205,143.6c2.08-.52,2.08,1.31,2.46,2.39a30.66,30.66,0,0,0,4.73,9.29c2.26,2.77,1.63,4.26-1,6.3C194.06,174.77,177,188.14,160,201.41c-7.12,5.53-7.11,5.46-13.18-1.44-4.51-5.12-9-10.25-13.74-15.18-1.92-2-1.9-3.27,0-5.28a28,28,0,0,0,7.92-19.41c0-2,.65-3,2.64-3.42q30.51-6.42,61-13A4.27,4.27,0,0,0,205,143.6Z" transform="translate(-13.45 -56.14)"/><path class="cls-6" d="M396.39,424.19a16.75,16.75,0,0,1-12.08-5.28q-24-24-48.09-48c-2.68-2.66-3-4.81-.13-7.53q7.25-6.89,14.13-14.13c2.41-2.54,4.39-2.36,6.73,0,16.56,16.65,33.21,33.21,49.72,49.92,4.38,4.43,5.37,9.88,2.76,15.64A15.27,15.27,0,0,1,396.39,424.19Z" transform="translate(-13.45 -56.14)"/><path class="cls-4" d="M214.23,353c-7.71,1.86-15.4,3.62-23,5.6-2.09.55-2.11-.51-2.36-1.91a30.24,30.24,0,0,0-32.29-25.07c-2.24.21-3.18-.57-3.71-2.84q-5.47-23-11.28-46c-.61-2.4.28-3,2.25-3.18,9.27-.85,18.55-1.6,27.81-2.56,3.54-.37,3.16,1.81,3.18,4a82.77,82.77,0,0,0,10.37,39.11,87.91,87.91,0,0,0,26.61,29.93c.67.48,1.37.93,2,1.46C214,351.75,214,352.15,214.23,353Z" transform="translate(-13.45 -56.14)"/><path class="cls-5" d="M250.89,172.35A42,42,0,0,1,209,129.86c.06-22.59,19.14-41.52,41.91-41.59,23-.06,42.1,18.94,42.06,41.87A41.86,41.86,0,0,1,250.89,172.35Zm29-46.76c0-1.92,0-3.42,0-4.91-.17-11.9-7.05-18.82-19-19.05-4.33-.09-8.65,0-13,0a6.38,6.38,0,0,1-4.22-1,13,13,0,0,0-16.34.55c-4.73,3.88-6.45,10.47-3.74,15.74,3.88,7.55,3.52,15.15.87,22.87-.92,2.67-.43,5.33,1.69,6.77,2.45,1.67,3.13,4.11,4.34,6.39,4.77,9,12.42,14,22.46,14.07,9.66.06,17.14-4.75,22-13.2,1.55-2.69,2.57-5.51,5.1-7.73s2.44-5.64.29-8.6c-.63-.86-2-1.39-1.28-2.89C280.53,131.52,279.58,128.29,279.87,125.59Z" transform="translate(-13.45 -56.14)"/><path class="cls-4" d="M134,280.54c2.31-.58,2.9.5,3.32,2.21q5.76,23.73,11.67,47.44c.48,1.94-.06,3-1.93,3.88a28,28,0,0,0-11.34,8.75c-1.21,1.64-2.25,2-4,.6q-19-15-38.21-29.74c-1.93-1.48-1.55-2.54-.2-4a42.85,42.85,0,0,0,11.64-24.34c.23-1.74,1.12-2.11,2.62-2.25C116.47,282.28,125.41,281.38,134,280.54Z" transform="translate(-13.45 -56.14)"/><path class="cls-4" d="M145,275.31c-4.18,1.62-5.6-.9-6.56-5.26-2.61-11.83-5.52-23.6-8.65-35.3-.84-3.17-.09-4.74,2.41-6.56,6-4.4,11.89-9.08,17.71-13.78,1.94-1.57,3.12-1.55,4.84.42C162.72,224,170.85,233,179,242c1.7,1.87,2.43,3.43,1.31,6.15a74.51,74.51,0,0,0-5.06,20.74c-.32,3-1.58,3.94-4.24,4.16C162.56,273.73,154.12,274.51,145,275.31Z" transform="translate(-13.45 -56.14)"/><path class="cls-4" d="M102.3,188.14c1.61.45,2.55.8,3.53,1,2.76.49,6.55-1.17,8.14.82,1.9,2.37,2.14,6.12,2.94,9.32,2.22,8.87,4.25,17.79,6.6,26.63.67,2.51.17,3.92-1.87,5.47q-11.56,8.73-22.86,17.8c-1.8,1.45-3,1.59-4.5-.29A39.6,39.6,0,0,0,81.2,238.24c-2.32-1.21-2-2.41-1.17-4.32q9.57-21.4,19-42.88C99.8,189.33,100.43,187.48,102.3,188.14Z" transform="translate(-13.45 -56.14)"/><path class="cls-5" d="M118.51,166.68c3.77-4,3.88-8.7,3.4-13.41-.66-6.58-5.42-10.57-11.82-10.14-6.23.42-9.93,4.64-10.13,11.28-.14,4.4,0,8.66,3.23,12.11-2.27,1.5-4.44,2.74-6.38,4.28s-3.64,3.36-5.44,5.06c-6.92-7.26-8.45-18.44-3.71-28.08a26.08,26.08,0,0,1,25.8-14.47A26.44,26.44,0,0,1,136,152.47a25.84,25.84,0,0,1-3.64,21.46c-1.22,1.86-2.18,2.76-3.9.35C126.13,171,122.76,168.76,118.51,166.68Z" transform="translate(-13.45 -56.14)"/><path class="cls-5" d="M178.42,378.36c-2.86-3.23-5.7-6.52-9.8-8.24-2-.83-1.19-1.81-.38-3,2.82-4.23,2.22-9,1.49-13.55s-5-7.92-9.45-8.28c-5.14-.42-9.83,2.27-11.44,7-1.54,4.53-1.83,9.42.6,13.55,1.88,3.17.93,4.12-1.74,5.4A13.12,13.12,0,0,0,142,376c-2.14,3.55-3.42,1.71-4.86-.45-9.44-14.19-1.67-34.5,14.92-39a26.26,26.26,0,0,1,29.35,11.7C187.28,358.15,186.11,370.39,178.42,378.36Z" transform="translate(-13.45 -56.14)"/><path class="cls-4" d="M135.15,274.18c.5,1.82-.73,2.08-2.2,2.23q-12.67,1.29-25.34,2.62c-1.71.18-2.44-.46-2.44-2.18a42.56,42.56,0,0,0-5.6-20.49c-.86-1.57-.24-2.42.93-3.34q11.25-8.75,22.45-17.53c1.3-1,2.44-1.93,3.07.73,2.93,12.3,6,24.57,9,36.85C135.06,273.39,135.08,273.72,135.15,274.18Z" transform="translate(-13.45 -56.14)"/><path class="cls-4" d="M292.87,197.63c-10.44-3.14-19.74-5.33-29.42-5.54a94.33,94.33,0,0,0-29,4.11c2.18-6.76,4.11-12.83,6.11-18.88.44-1.34,1.6-1.45,2.86-1.31,10.48,1.13,20.61.16,30-5.16,1.24-.7,2.06-.7,2.88.6C281.56,179.83,286.87,188.18,292.87,197.63Z" transform="translate(-13.45 -56.14)"/><path class="cls-4" d="M149.69,210a16.6,16.6,0,0,0-2.2,1.22c-5.66,4.36-11.33,8.7-16.93,13.14-2,1.61-3,1.51-3.62-1.22-2.47-10.5-5.14-21-7.68-31.43-.33-1.35-1.12-3.33,1.15-3.59,2.94-.35,5.46-4.95,8.38-2,6.74,6.87,12.93,14.29,19.33,21.5C148.54,208.1,148.83,208.68,149.69,210Z" transform="translate(-13.45 -56.14)"/><path class="cls-5" d="M331.62,332c.48.41,1.14.91,1.72,1.49,3.76,3.74,7.44,7.56,11.28,11.2,1.75,1.66,1.71,2.82,0,4.43q-4.71,4.41-9.15,9.12c-1.53,1.63-2.58,1.4-4-.09-3.68-3.82-7.47-7.53-11.23-11.26-1.13-1.13-2.19-2.23-.36-3.59,3.76-2.82,6.51-6.57,9.55-10.07A2.52,2.52,0,0,1,331.62,332Z" transform="translate(-13.45 -56.14)"/><path class="cls-7" d="M110.74,185.23a27,27,0,0,1-13.25-3.78c-2.27-1.31-2.52-2.52-.9-4.65,6.89-9.08,21.78-9.1,28.67-.07,1.83,2.41,1.21,3.67-1.19,4.93A27,27,0,0,1,110.74,185.23Z" transform="translate(-13.45 -56.14)"/><path class="cls-7" d="M158.85,387.33c-4.71.29-9-1.22-13.15-3.52-2.36-1.31-2.27-2.82-.86-4.83,6.47-9.15,22.83-8.85,28.89.48,1.37,2.1.82,3.26-1,4.35A24.29,24.29,0,0,1,158.85,387.33Z" transform="translate(-13.45 -56.14)"/><path class="cls-3" d="M118,156.53c0,5.29-2.61,8.5-6.62,8.72a6.91,6.91,0,0,1-7.39-6.41c-.2-2.14.14-3.51,2.81-3.27a12,12,0,0,0,7.23-1.25C117.37,152.38,118.5,153.36,118,156.53Z" transform="translate(-13.45 -56.14)"/><path class="cls-7" d="M165.54,355.41c1.55,8.45-1.27,12.89-7.54,12.08a7,7,0,0,1-6-7.38c.1-1.52.66-2.07,2.11-2a13,13,0,0,0,5.9-.65C161.83,356.76,163.68,356.1,165.54,355.41Z" transform="translate(-13.45 -56.14)"/><path class="cls-7" d="M114.8,148.76a5.57,5.57,0,0,1-4,2.47c-1.76.29-3.55,1.26-5.31.18-.62-.38-.48-1.17,0-1.73a6.69,6.69,0,0,1,5.21-2.5C112.18,147.14,113.74,147.08,114.8,148.76Z" transform="translate(-13.45 -56.14)"/><path class="cls-7" d="M153,353.81c2.15-4.3,5.12-5,8.67-3.93.73.21,1.81,1,1,1.76C160,354,156.83,354.51,153,353.81Z" transform="translate(-13.45 -56.14)"/><path class="cls-2" d="M331.48,278.68a70.22,70.22,0,0,1-69.89,70.4c-38.71.05-70.3-32.78-70-69.82.34-38.87,30.5-69.95,69.38-70.17C300.16,208.86,331.28,239.59,331.48,278.68Zm-4.25-6.31c.08-21.58-17.31-47.05-43.64-55.47-27.2-8.7-51.19-3-71,18.09-24.6,26.2-21.87,70.58,5.67,93.44,2.13,1.77,3,1.55,4.55-.55,6-8.17,14.28-13.32,23.78-16.59,1.38-.48,3.27-.45,3.27-2.41,0-1.66-1.79-1.8-2.92-2.32a31.82,31.82,0,0,1-16-15.77c-.48-1-.75-2.22-2-2.73-6.64-2.73-8.17-7.69-6.24-14.22a6.54,6.54,0,0,0,0-2.92,50.18,50.18,0,0,1,.53-21.79c2.89-11,7.34-21.1,18.42-26.56,3.22-1.58,6.08-1.42,8.82.82a20.63,20.63,0,0,0,9.06,3.93c6.17,1.34,12.4,2.43,18.5,4,10.32,2.7,16.64,9.51,18.69,19.94,1,5.2,1.81,10.46.63,15.86a16.18,16.18,0,0,0,.2,8.85c1.22,3.61.15,7.89-2.83,9.43-5.08,2.63-6.75,7.47-9.74,11.47a33.48,33.48,0,0,1-11.1,9.11c-1.28.71-3.14.88-3.17,2.73,0,2.21,2,2.27,3.53,2.84,9.38,3.54,17.66,8.74,23.41,17.11,2.37,3.45,3.82,2.77,6.43.49C319.22,316,327.25,299.5,327.23,272.37Zm-67.6,33c11.87-.81,20.65-6.05,25.55-17.05,1-2.2,1.92-3.8,4.67-4.47,3.77-.92,4.58-4.22,3.48-7.57-1.43-4.33-4.34-2.45-6.78-1-3,1.74-4.57.87-5.4-2.31-1.1-4.17-2.29-8.32-3.48-12.48-.8-2.8-2.48-4.15-5.56-3.48a58.67,58.67,0,0,1-24.75,0c-3.35-.71-4.9.74-5.68,3.86-1,3.86-2.42,7.61-3.29,11.49-.84,3.73-2.37,4.91-5.82,2.67-2.19-1.42-4.8-2.71-6.15.71-1.25,3.13-1,6.89,2.71,7.91,3.33.9,4.34,2.93,5.58,5.53C239.71,299.58,248.37,304.53,259.63,305.33Zm-33.78-44.09c.07,1.49.14,3.49.28,5.48.07,1.13.07,2.14,1.63,2.63,6.63,2.07,6.6,2.14,8.62-4.84.55-1.92,1-3.87,1.69-5.74,1.64-4.45,4.76-6.9,9.61-5.88a60.43,60.43,0,0,0,24.26,0c4.56-.89,7.77,1.2,9.26,5.61,1,3,1.8,6,2.75,9.06.4,1.26.67,4,2.09,2.94,2.24-1.67,6.43.82,7.1-3.52a36.76,36.76,0,0,0-2.27-20c-4.1-9.83-13.15-11.89-22.29-13.63-6-1.15-12.19-1.82-17.73-4.74-6.46-3.42-9.08-3.13-14,2.41C229.25,239.41,226.17,249.58,225.85,261.24Zm18.74,55.39c-7.43,2.84-14.57,8.18-18.43,13.4-1.45,2-1.61,3.06.67,4.67,17.33,12.23,48.92,12.92,66.94,1.53,2.81-1.77,2.22-3,.74-5a45.65,45.65,0,0,0-15-12.88c-2.8-1.56-4.31-1.7-6,1.76-2.78,5.66-7.79,8.46-14.28,8.16-6.25-.29-10.55-3.52-13.36-8.95C245.38,318.42,245,317.51,244.59,316.63Zm16-7.39c-5.61.06-6.05-.06-6.54,1.84-.73,2.8-4.4,2.62-4.82,5.16-.55,3.3,5.94,8,10.72,8s11.39-4.71,10.63-8c-.59-2.55-3.92-3.41-4.89-6.35C265.09,308,262.14,309.53,260.61,309.24Z" transform="translate(-13.45 -56.14)"/><path class="cls-2" d="M59.39,244.2c5.69,0,10.79,1.61,15,5.61,1.87,1.77,3.79,4,3.39,6.41-.81,4.88,1.43,8.6,3.49,12.48,1.53,2.9,1.75,6,1.8,9.17,0,3.48-1,7.07,1.42,10.35a3.62,3.62,0,0,1-.69,4.64c-3,2.44-3.88,6.07-5.9,9C73,309,66.18,312.71,57.51,312c-8.43-.68-14.55-5.2-18.37-12.73-.89-1.76-1.37-3.63-3.36-4.69a3.55,3.55,0,0,1-1.84-3.85c1.77-7.06.21-14.6,3.07-21.45,1.81-4.3,3.85-8.18,4-13.28C41.22,249,49.73,244.2,59.39,244.2Zm-1.66,63.85c7.85.12,14.12-3.55,17.33-9.24,1.49-2.65,1.56-6.12,4.93-7.73,1.3-.62.69-2.15-.46-2.82-5-2.86-7.69-9.68-15.3-8.28-2.29.43-5-1.31-7.18-3-6.2-4.67-8.79-3.71-10.38,3.94-.74,3.55-1.54,6.32-6,6.5-1.72.08-4.24,2.14-2.1,3.58,3.06,2.07,3.29,5.21,4.84,7.8C47,304.74,52.22,307.68,57.73,308.05ZM40.88,283.8c1.32-3.67,2-6.4,3.23-8.8,3.36-6.39,7.36-7.24,13.35-3.13a26.46,26.46,0,0,0,3.25,2.32c2.25,1.09,4.53,2.6,7.43,1-1.39-1.63-2.6-3-3.68-4.38a1.63,1.63,0,0,1,.18-2.26c.64-.64,1.74-1.07,2.22-.42,2.5,3.46,8.47,3.57,8.76,9.29,0,1.17-.24,4.11,2.32,3.51,2.12-.5,1-2.86,1-4.31-.77-11.12-11.77-20-22.43-18.19C44.48,260.47,37.76,270.64,40.88,283.8Zm32.9-24.74c-.5-7.33-6.44-11.18-15.82-10.83-7.68.28-12.83,4.27-12.69,10.26C54.76,252.92,64.16,252.8,73.78,259.06Z" transform="translate(-13.45 -56.14)"/><path class="cls-2" d="M279.87,125.59c-.29,2.7.66,5.93-.82,8.93-.74,1.5.65,2,1.28,2.89,2.15,3,2.34,6.27-.29,8.6s-3.55,5-5.1,7.73c-4.85,8.45-12.33,13.26-22,13.2-10-.06-17.69-5.06-22.46-14.07-1.21-2.28-1.89-4.72-4.34-6.39-2.12-1.44-2.61-4.1-1.69-6.77,2.65-7.72,3-15.32-.87-22.87-2.71-5.27-1-11.86,3.74-15.74a13,13,0,0,1,16.34-.55,6.38,6.38,0,0,0,4.22,1c4.33,0,8.65-.06,13,0,11.95.23,18.83,7.15,19,19.05C279.89,122.17,279.87,123.67,279.87,125.59Zm-32.5-.72c.27,2.62,3.67,3.54,2,6.17a3.39,3.39,0,0,1-4,1.29c-5.84-1.7-10.76-1.71-12.64,5.51,0,.13-.24.23-.38.31-4,2.22-5.26,4.42-.33,7.19.9.51,1.1,2.3,1.58,3.52,3.27,8.43,10.29,13.43,18.94,13.5,9.1.07,16.19-4.71,19.63-13.27.85-2.11,1.26-4.36,3.92-5.35,1.34-.5,1.46-2.35.44-3.44-4.49-4.81-9.11-9.49-13.67-14.23a4.64,4.64,0,0,0-3.66-1.2Zm28.3,7.84c0-5.65.39-10.27-.08-14.81-.78-7.46-5.88-11.82-13.44-12-4.82-.12-9.64,0-14.47,0-2.32,0-4.56-.22-6.53-1.86-3.38-2.84-8.2-2.48-11.57.62s-4.61,9-1.36,11.63c4.73,3.8,8.79,8.4,13.94,11.67.11.06.49-.29.74-.45-1.47-5.5-.5-6.34,5.25-6.93,10.09-1,18.77.85,24.82,9.79A18.82,18.82,0,0,0,275.67,132.71Zm-45.62.57c2.47-2.13,2.67-4.37,3.45-6.27.62-1.52-.14-2.6-1.78-2.8-1.84-.22-1.63,1.21-1.65,2.32C230,128.51,230.05,130.5,230.05,133.28Z" transform="translate(-13.45 -56.14)"/><path class="cls-6" d="M327.23,272.37c0,27.13-8,43.59-23.2,56.81-2.61,2.28-4.06,3-6.43-.49-5.75-8.37-14-13.57-23.41-17.11-1.51-.57-3.56-.63-3.53-2.84,0-1.85,1.89-2,3.17-2.73a33.48,33.48,0,0,0,11.1-9.11c3-4,4.66-8.84,9.74-11.47,3-1.54,4.05-5.82,2.83-9.43a16.18,16.18,0,0,1-.2-8.85c1.18-5.4.4-10.66-.63-15.86-2.05-10.43-8.37-17.24-18.69-19.94-6.1-1.6-12.33-2.69-18.5-4a20.63,20.63,0,0,1-9.06-3.93c-2.74-2.24-5.6-2.4-8.82-.82-11.08,5.46-15.53,15.58-18.42,26.56a50.18,50.18,0,0,0-.53,21.79,6.54,6.54,0,0,1,0,2.92c-1.93,6.53-.4,11.49,6.24,14.22,1.24.51,1.51,1.69,2,2.73a31.82,31.82,0,0,0,16,15.77c1.13.52,2.93.66,2.92,2.32,0,2-1.89,1.93-3.27,2.41-9.5,3.27-17.74,8.42-23.78,16.59-1.55,2.1-2.42,2.32-4.55.55C190.69,305.57,188,261.19,212.56,235c19.84-21.12,43.83-26.79,71-18.09C309.92,225.32,327.31,250.79,327.23,272.37Z" transform="translate(-13.45 -56.14)"/><path class="cls-5" d="M259.63,305.33c-11.26-.8-19.92-5.75-24.92-16.21-1.24-2.6-2.25-4.63-5.58-5.53-3.76-1-4-4.78-2.71-7.91,1.35-3.42,4-2.13,6.15-.71,3.45,2.24,5,1.06,5.82-2.67.87-3.88,2.31-7.63,3.29-11.49.78-3.12,2.33-4.57,5.68-3.86a58.67,58.67,0,0,0,24.75,0c3.08-.67,4.76.68,5.56,3.48,1.19,4.16,2.38,8.31,3.48,12.48.83,3.18,2.41,4.05,5.4,2.31,2.44-1.42,5.35-3.3,6.78,1,1.1,3.35.29,6.65-3.48,7.57-2.75.67-3.69,2.27-4.67,4.47C280.28,299.28,271.5,304.52,259.63,305.33Zm.22-11.13c2.76.12,5.2-.92,7.59-2.09,1.12-.55,1.92-1.43,1.47-2.79s-1.87-1.49-2.86-.92c-4.3,2.54-8.46,2.33-12.72-.06a1.82,1.82,0,0,0-2.58.75c-.82,1.4.07,2.22,1.08,2.83A14.77,14.77,0,0,0,259.85,294.2Zm9.47-25.79a3.52,3.52,0,0,0-3.45,3.45c-.17,2.2.77,3.48,3.11,3.52,2.17,0,3.61-.89,3.66-3.13C272.69,270.17,271.51,268.87,269.32,268.41ZM254,272c-.24-1.86-1.26-3.42-3.37-3.5s-3.38,1.31-3.54,3.42,1,3.4,3.26,3.45S253.78,274.47,254,272Zm26.77,8.16c-.52-1.54-1.47-2.69-3.11-2.74-1.83-.05-2.58,1.2-2.53,2.91s.89,2.91,2.71,2.71A3.35,3.35,0,0,0,280.72,280.16Zm-39.09-2.81a2.63,2.63,0,0,0-2.56,3c0,1.49.78,2.65,2.28,2.68a2.89,2.89,0,0,0,3.22-2.94C244.54,278.55,243.16,277.65,241.63,277.35Z" transform="translate(-13.45 -56.14)"/><path class="cls-5" d="M225.85,261.24c.32-11.66,3.4-21.83,11-30.28,5-5.54,7.58-5.83,14-2.41,5.54,2.92,11.7,3.59,17.73,4.74,9.14,1.74,18.19,3.8,22.29,13.63a36.76,36.76,0,0,1,2.27,20c-.67,4.34-4.86,1.85-7.1,3.52-1.42,1.06-1.69-1.68-2.09-2.94-.95-3-1.73-6.07-2.75-9.06-1.49-4.41-4.7-6.5-9.26-5.61a60.43,60.43,0,0,1-24.26,0c-4.85-1-8,1.43-9.61,5.88-.69,1.87-1.14,3.82-1.69,5.74-2,7-2,6.91-8.62,4.84-1.56-.49-1.56-1.5-1.63-2.63C226,264.73,225.92,262.73,225.85,261.24Z" transform="translate(-13.45 -56.14)"/><path class="cls-5" d="M244.59,316.63c.41.88.79,1.79,1.25,2.67,2.81,5.43,7.11,8.66,13.36,8.95,6.49.3,11.5-2.5,14.28-8.16,1.7-3.46,3.21-3.32,6-1.76a45.65,45.65,0,0,1,15,12.88c1.48,2,2.07,3.25-.74,5-18,11.39-49.61,10.7-66.94-1.53-2.28-1.61-2.12-2.7-.67-4.67C230,324.81,237.16,319.47,244.59,316.63Z" transform="translate(-13.45 -56.14)"/><path class="cls-5" d="M260.61,309.24c1.53.29,4.48-1.27,5.1.6,1,2.94,4.3,3.8,4.89,6.35.76,3.3-5.82,8-10.63,8s-11.27-4.66-10.72-8c.42-2.54,4.09-2.36,4.82-5.16C254.56,309.18,255,309.3,260.61,309.24Z" transform="translate(-13.45 -56.14)"/><path class="cls-5" d="M57.73,308.05c-5.51-.37-10.76-3.31-14.3-9.22-1.55-2.59-1.78-5.73-4.84-7.8-2.14-1.44.38-3.5,2.1-3.58,4.44-.18,5.24-2.95,6-6.5,1.59-7.65,4.18-8.61,10.38-3.94,2.22,1.66,4.89,3.4,7.18,3,7.61-1.4,10.3,5.42,15.3,8.28,1.15.67,1.76,2.2.46,2.82-3.37,1.61-3.44,5.08-4.93,7.73C71.85,304.5,65.58,308.17,57.73,308.05Zm1.59-5.63a42.94,42.94,0,0,0,4.29-1.34c1.37-.57,3-1.3,2.32-3.22-.74-2.14-2.3-1.34-3.66-.65a6.07,6.07,0,0,1-5.72.14c-1.25-.59-2.84-1.83-3.87.19-1.14,2.25,1,2.88,2.33,3.56A27.47,27.47,0,0,0,59.32,302.42Zm9.82-16.5c-.06-1.41-.61-2.56-2.25-2.6a2.35,2.35,0,0,0-2.52,2.48,2.22,2.22,0,0,0,2.08,2.36C68.05,288.33,68.94,287.6,69.14,285.92Zm-17.75,2.25c1.69,0,2.6-.79,2.66-2.34a2.28,2.28,0,0,0-2-2.47,2.24,2.24,0,0,0-2.81,2.09C49,287.06,50,287.85,51.39,288.17Zm-.71,4.05a2.07,2.07,0,0,0-2.45-1.82,2.16,2.16,0,0,0-2.09,2.28c0,1.28.69,2.35,2,2.16A2.94,2.94,0,0,0,50.68,292.22Zm19.66-1.86a2.25,2.25,0,0,0-2.17,2.05c-.15,1.29.39,2.34,1.77,2.42s1.91-1.07,2-2.28A1.75,1.75,0,0,0,70.34,290.36Z" transform="translate(-13.45 -56.14)"/><path class="cls-5" d="M40.88,283.8c-3.12-13.16,3.6-23.33,15.58-25.33,10.66-1.78,21.66,7.07,22.43,18.19.1,1.45,1.17,3.81-1,4.31-2.56.6-2.27-2.34-2.32-3.51-.29-5.72-6.26-5.83-8.76-9.29-.48-.65-1.58-.22-2.22.42a1.63,1.63,0,0,0-.18,2.26c1.08,1.43,2.29,2.75,3.68,4.38-2.9,1.56-5.18,0-7.43-1a26.46,26.46,0,0,1-3.25-2.32c-6-4.11-10-3.26-13.35,3.13C42.84,277.4,42.2,280.13,40.88,283.8Z" transform="translate(-13.45 -56.14)"/><path class="cls-3" d="M73.78,259.06c-9.62-6.26-19-6.14-28.51-.57-.14-6,5-10,12.69-10.26C67.34,247.88,73.28,251.73,73.78,259.06Z" transform="translate(-13.45 -56.14)"/><path class="cls-5" d="M247.37,124.87h11.84a4.64,4.64,0,0,1,3.66,1.2c4.56,4.74,9.18,9.42,13.67,14.23,1,1.09.9,2.94-.44,3.44-2.66,1-3.07,3.24-3.92,5.35-3.44,8.56-10.53,13.34-19.63,13.27-8.65-.07-15.67-5.07-18.94-13.5-.48-1.22-.68-3-1.58-3.52-4.93-2.77-3.62-5,.33-7.19.14-.08.35-.18.38-.31,1.88-7.22,6.8-7.21,12.64-5.51a3.39,3.39,0,0,0,4-1.29C251,128.41,247.64,127.49,247.37,124.87Zm5.76,30.55a9.86,9.86,0,0,0,5.23-1.47c1.23-.75,2.88-1.45,1.85-3.39-.88-1.65-2.21-1.05-3.42-.38a8.2,8.2,0,0,1-6.23.76c-1.67-.42-3.9-3.08-4.92,0-.91,2.72,2.33,3,4.09,3.91A11.64,11.64,0,0,0,253.13,155.42Zm-6-18.47a2.44,2.44,0,0,0-2.64-2.7,2.81,2.81,0,1,0-.2,5.61C246,140,247,139,247.11,137Zm14.42,3c1.7-.31,2.71-1.14,2.65-3s-.86-2.81-2.7-2.74-2.61,1.09-2.62,2.86S260,139.71,261.53,140ZM243,144.75c.05-1.58-.61-2.54-2.28-2.44a2.36,2.36,0,0,0-2.53,2.43c0,1.54,1,2.33,2.53,2.42C242.36,147.26,243,146.32,243,144.75Zm22.49-2.42a2.52,2.52,0,0,0-2.4,2.59c-.09,1.35.47,2.24,2,2.24s2.63-.6,2.8-2.18S267,142.57,265.46,142.33Z" transform="translate(-13.45 -56.14)"/><path class="cls-7" d="M275.67,132.71a18.82,18.82,0,0,1-2.7-2.39c-6.05-8.94-14.73-10.83-24.82-9.79-5.75.59-6.72,1.43-5.25,6.93-.25.16-.63.51-.74.45C237,124.64,233,120,228.22,116.24c-3.25-2.59-1.86-8.66,1.36-11.63s8.19-3.46,11.57-.62c2,1.64,4.21,1.84,6.53,1.86,4.83.05,9.65-.08,14.47,0,7.56.19,12.66,4.55,13.44,12C276.06,122.44,275.67,127.06,275.67,132.71Z" transform="translate(-13.45 -56.14)"/><path class="cls-7" d="M230.05,133.28c0-2.78,0-4.77,0-6.75,0-1.11-.19-2.54,1.65-2.32,1.64.2,2.4,1.28,1.78,2.8C232.72,128.91,232.52,131.15,230.05,133.28Z" transform="translate(-13.45 -56.14)"/><path class="cls-2" d="M259.86,294.2a14.78,14.78,0,0,1-8-2.28c-1-.61-1.9-1.43-1.08-2.83a1.82,1.82,0,0,1,2.58-.75c4.26,2.39,8.42,2.6,12.72.06,1-.57,2.36-.59,2.86.92s-.35,2.24-1.47,2.79C265.05,293.28,262.61,294.32,259.86,294.2Z" transform="translate(-13.45 -56.14)"/><path class="cls-2" d="M269.32,268.41c2.19.46,3.37,1.76,3.32,3.84-.05,2.24-1.49,3.17-3.66,3.13-2.34,0-3.28-1.32-3.11-3.52A3.52,3.52,0,0,1,269.32,268.41Z" transform="translate(-13.45 -56.14)"/><path class="cls-2" d="M254,272c-.17,2.47-1.49,3.41-3.65,3.37s-3.44-1.2-3.26-3.45,1.44-3.5,3.54-3.42S253.71,270.14,254,272Z" transform="translate(-13.45 -56.14)"/><path class="cls-7" d="M280.72,280.16a3.35,3.35,0,0,1-2.93,2.88c-1.82.2-2.67-1-2.71-2.71s.7-3,2.53-2.91C279.25,277.47,280.2,278.62,280.72,280.16Z" transform="translate(-13.45 -56.14)"/><path class="cls-7" d="M241.63,277.35c1.53.3,2.91,1.2,2.94,2.76a2.89,2.89,0,0,1-3.22,2.94c-1.5,0-2.25-1.19-2.28-2.68A2.63,2.63,0,0,1,241.63,277.35Z" transform="translate(-13.45 -56.14)"/><path class="cls-2" d="M59.32,302.42A27.47,27.47,0,0,1,55,301.1c-1.37-.68-3.47-1.31-2.33-3.56,1-2,2.62-.78,3.87-.19a6.07,6.07,0,0,0,5.72-.14c1.36-.69,2.92-1.49,3.66.65.66,1.92-1,2.65-2.32,3.22A42.94,42.94,0,0,1,59.32,302.42Z" transform="translate(-13.45 -56.14)"/><path class="cls-2" d="M69.14,285.92c-.2,1.68-1.09,2.41-2.69,2.24a2.22,2.22,0,0,1-2.08-2.36,2.35,2.35,0,0,1,2.52-2.48C68.53,283.36,69.08,284.51,69.14,285.92Z" transform="translate(-13.45 -56.14)"/><path class="cls-2" d="M51.39,288.17c-1.39-.32-2.39-1.11-2.13-2.72a2.24,2.24,0,0,1,2.81-2.09,2.28,2.28,0,0,1,2,2.47C54,287.38,53.08,288.21,51.39,288.17Z" transform="translate(-13.45 -56.14)"/><path class="cls-7" d="M50.68,292.22a2.94,2.94,0,0,1-2.49,2.62c-1.36.19-2.06-.88-2-2.16a2.16,2.16,0,0,1,2.09-2.28A2.07,2.07,0,0,1,50.68,292.22Z" transform="translate(-13.45 -56.14)"/><path class="cls-7" d="M70.34,290.36A1.75,1.75,0,0,1,72,292.55c-.1,1.21-.59,2.35-2,2.28s-1.92-1.13-1.77-2.42A2.25,2.25,0,0,1,70.34,290.36Z" transform="translate(-13.45 -56.14)"/><path class="cls-2" d="M253.13,155.42a11.64,11.64,0,0,1-3.4-.56c-1.76-.87-5-1.19-4.09-3.91,1-3.09,3.25-.43,4.92,0a8.2,8.2,0,0,0,6.23-.76c1.21-.67,2.54-1.27,3.42.38,1,1.94-.62,2.64-1.85,3.39A9.86,9.86,0,0,1,253.13,155.42Z" transform="translate(-13.45 -56.14)"/><path class="cls-2" d="M247.11,137c-.09,2-1.12,3-2.84,2.91a2.81,2.81,0,1,1,.2-5.61A2.44,2.44,0,0,1,247.11,137Z" transform="translate(-13.45 -56.14)"/><path class="cls-2" d="M261.53,140c-1.55-.28-2.69-1-2.67-2.85s.84-2.79,2.62-2.86,2.63,1,2.7,2.74S263.23,139.68,261.53,140Z" transform="translate(-13.45 -56.14)"/><path class="cls-7" d="M243,144.74c.06,1.58-.61,2.52-2.28,2.42-1.49-.09-2.54-.88-2.53-2.42a2.36,2.36,0,0,1,2.53-2.43C242.36,142.21,243,143.17,243,144.74Z" transform="translate(-13.45 -56.14)"/><path class="cls-7" d="M265.46,142.33c1.58.24,2.53,1.06,2.36,2.65s-1.31,2.18-2.8,2.18-2-.89-2-2.24A2.52,2.52,0,0,1,265.46,142.33Z" transform="translate(-13.45 -56.14)"/></svg>