<svg id="Layer_1" data-name="Layer 1" xmlns="http://www.w3.org/2000/svg" viewBox="0 0 400.19 400.19"><defs><style>.cls-1{fill:#fefefe;}.cls-2{fill:#eae2f7;}.cls-3{fill:#9359d4;}.cls-4{fill:#d5d9fe;}.cls-5{fill:#fdfdfe;}.cls-6{fill:#fbfbfe;}</style></defs><title>img-06</title><path class="cls-1" d="M414,256.24q0,98,.1,196c0,3.42-.68,4.09-4.1,4.09q-196-.16-392,0c-3.42,0-4.1-.67-4.1-4.09q.18-196,0-392c0-3.43.68-4.1,4.1-4.1q196,.16,392,0c3.42,0,4.1.67,4.1,4.1Q413.91,158.23,414,256.24Zm-34.68-48.77c-2-.17-3.21-1.61-4.48-2.91L354,183.21c.18-1.94-.74-3.55-1.63-5.15a150.5,150.5,0,0,0-42-48.48c-33.47-24.93-70.89-36.52-112.94-32.49a157.88,157.88,0,0,0-56.93,16.48c-25,12.71-45.66,30.69-61.09,54.23-2.92,4.46-7.11,8.53-7.42,14.44l-5.68,6.21c-5.36,5.84-11.71,10.73-16.4,17.21-1.28-.47-2.59-.91-3.46.65s.43,2.42,1.3,3.33c3.06,3.22,6.15,6.4,9.24,9.6a166.89,166.89,0,0,0-3,56.32,152.27,152.27,0,0,0,12.48,45.38c10,22,23.86,41.26,42.56,57a160.78,160.78,0,0,0,49.29,28.49,166.73,166.73,0,0,0,42.58,9.18A156.9,156.9,0,0,0,240,413.86c19.63-3.22,38-10.48,55.2-20.64a152.16,152.16,0,0,0,41.32-35.45,159.4,159.4,0,0,0,27.85-50.85,162.91,162.91,0,0,0,7.4-69.05c-.49-4.56-.35-9.55-3.1-13.73L380.4,212C382.41,209.93,382.51,208.3,379.32,207.47Z" transform="translate(-13.9 -56.14)"/><path class="cls-2" d="M368.65,224.14c2.75,4.18,2.61,9.17,3.1,13.73a162.91,162.91,0,0,1-7.4,69.05,159.4,159.4,0,0,1-27.85,50.85,152.16,152.16,0,0,1-41.32,35.45C278,403.38,259.61,410.64,240,413.86a156.9,156.9,0,0,1-39.09,1.72,166.73,166.73,0,0,1-42.58-9.18A160.78,160.78,0,0,1,109,377.91c-18.7-15.71-32.52-35-42.56-57A152.27,152.27,0,0,1,54,275.56a166.89,166.89,0,0,1,3-56.32Q72.9,235.1,88.81,251c2.13,2.12,4.44,5.15,7.43,4.43,5.46-1.3,7.78,2.35,10.72,5.3,2,2,4.34,5,7,4,4.71-1.77,6.63,1.25,9.14,3.72,2,2,4.07,3.94,6,6,2.91,3.15,8.38,5.78,8.19,9.38-.16,3-5.38,5.81-8.42,8.64-8.89,8.28-6.68,20.57,4.67,24.67,2.68,1,2.69,1.68,1.87,4.13-3.58,10.59,3.35,19.67,14.5,19,2.82-.16,3.85.12,4.44,3.29,1.68,8.93,10.12,13.83,18.43,10.77,3.28-1.2,3.6-.27,4.28,2.61,2.07,8.79,11.87,13.65,19.52,9.13,4.31-2.55,6.15-1.2,9,1.67,8.9,9,20.67,6.08,24.47-5.95.73-2.33,1.53-2.74,3.82-2.28,9.18,1.88,15.37-1.75,17.75-10.66.68-2.55,1.31-2.49,3.56-1.95,9.14,2.2,16.51-2.66,17.77-11.83.43-3.07,1.41-4,4.52-4.31,6.06-.56,10.57-3.62,12.53-9.79s-.06-11.06-4.55-15.26c-1.7-1.6-3.32-3.29-5.14-4.73-2.33-1.83-2.57-3.18-.22-5.47,9.87-9.67,19.53-19.56,29.28-29.35.92-.93,2-2.68,3.13-2.18,6.76,2.89,9.54-2.63,13.4-6,1.42-1.22,2.31-3.52,4.85-2.78,4.58,1.35,7.54-1.2,10.48-4.11C350.35,242.07,359.51,233.12,368.65,224.14Z" transform="translate(-13.9 -56.14)"/><path class="cls-2" d="M72,182.24c.31-5.91,4.5-10,7.42-14.44,15.43-23.54,36.05-41.52,61.09-54.23a157.88,157.88,0,0,1,56.93-16.48c42.05-4,79.47,7.56,112.94,32.49a150.5,150.5,0,0,1,42,48.48c.89,1.6,1.81,3.21,1.63,5.15-4.58-3.37-8.25-7.7-12.19-11.71-8.73-8.89-18-17.22-26.16-26.69-.22-4.59-2.1-3.72-4.46-1.37l-40.3,40.27c-1.54,1.54-3.48,3.32-2.87,5.54,1.53,5.57-2.44,8.13-5.52,11.2-2.32,2.3-4.72,4.71-3.51,8.2,1,2.95-.37,3.73-2.58,4.68A35.73,35.73,0,0,1,235.91,216c-8.61-1.5-16.89-1.1-24.87,2.69-1.34.63-2.67,1.41-4.25.61-6.19-3.11-12.88-3-19.55-2.93a28,28,0,0,1-13.53-2.89c-1.26-.66-3.43-1.34-2.83-3,2.36-6.31-2.6-9-5.75-12.62-1.34-1.53-3.86-2.47-3.13-5.22,1.2-4.53-1.15-7.56-4.12-10.52-9.08-9.06-18-18.23-27.07-27.35-4.57-4.61-9.12-9.25-13.75-13.82-2-2-4.21-3.8-4.89,1C99.27,155.9,85.81,169.24,72,182.24Z" transform="translate(-13.9 -56.14)"/><path class="cls-3" d="M112.17,142c.68-4.84,2.86-3.05,4.89-1,4.63,4.57,9.18,9.21,13.75,13.82,9,9.12,18,18.29,27.07,27.35,3,3,5.32,6,4.12,10.52-.73,2.75,1.79,3.69,3.13,5.22,3.15,3.64,8.11,6.31,5.75,12.62-.6,1.62,1.57,2.3,2.83,3a28,28,0,0,0,13.53,2.89c6.67-.05,13.36-.18,19.55,2.93,1.58.8,2.91,0,4.25-.61,8-3.79,16.26-4.19,24.87-2.69a35.73,35.73,0,0,0,20.52-2.64c2.21-1,3.61-1.73,2.58-4.68-1.21-3.49,1.19-5.9,3.51-8.2,3.08-3.07,7.05-5.63,5.52-11.2-.61-2.22,1.33-4,2.87-5.54l40.3-40.27c2.36-2.35,4.24-3.22,4.46,1.37Q295.52,164.9,275.38,185c-4.75,4.74-4.74,5.43-.13,10q26.46,26.48,52.93,52.94c4.77,4.76,5.68,4.77,10.48,0q20.34-20.22,40.66-40.48c3.19.83,3.09,2.46,1.08,4.54l-11.75,12.13c-9.14,9-18.3,17.93-27.4,27-2.94,2.91-5.9,5.46-10.48,4.11-2.54-.74-3.43,1.56-4.85,2.78-3.86,3.33-6.64,8.85-13.4,6-1.17-.5-2.21,1.25-3.13,2.18-9.75,9.79-19.41,19.68-29.28,29.35-2.35,2.29-2.11,3.64.22,5.47,1.82,1.44,3.44,3.13,5.14,4.73,4.49,4.2,6.52,9.09,4.55,15.26s-6.47,9.23-12.53,9.79C274.38,331,273.4,332,273,335c-1.26,9.17-8.63,14-17.77,11.83-2.25-.54-2.88-.6-3.56,1.95-2.38,8.91-8.57,12.54-17.75,10.66-2.29-.46-3.09-.05-3.82,2.28-3.8,12-15.57,14.92-24.47,5.95-2.84-2.87-4.68-4.22-9-1.67-7.65,4.52-17.45-.34-19.52-9.13-.68-2.88-1-3.81-4.28-2.61-8.31,3.06-16.75-1.84-18.43-10.77-.59-3.17-1.62-3.45-4.44-3.29-11.15.64-18.08-8.44-14.5-19,.82-2.45.81-3.17-1.87-4.13C122.22,313,120,300.68,128.9,292.4c3-2.83,8.26-5.62,8.42-8.64.19-3.6-5.28-6.23-8.19-9.38-1.92-2.08-4-4-6-6-2.51-2.47-4.43-5.49-9.14-3.72-2.7,1-5-1.94-7-4-2.94-2.95-5.26-6.6-10.72-5.3-3,.72-5.3-2.31-7.43-4.43Q72.9,235.11,57,219.24c-3.09-3.2-6.18-6.38-9.24-9.6-.87-.91-2.2-1.74-1.3-3.33s2.18-1.12,3.46-.65c14.14,14.31,28.34,28.56,42.37,43,3.31,3.4,5.65,3.41,9,0,17.74-18,35.69-35.82,53.57-53.7,4.45-4.45,4.47-5.28.11-9.68Q133.61,163.61,112.17,142Zm91.36,80.45a35.89,35.89,0,0,0-13.64-2c-7.23.07-14.39-.27-20.55-4.71-1.8-1.31-2.87-.75-4.2.58q-20.82,20.9-41.72,41.69c-1.86,1.84-1.88,3,0,4.82q7.75,7.43,15.2,15.19c2,2.07,3.74,2.91,6.89,2.39,9-1.52,16.27,4.24,16.41,12.93,0,3.47,1.21,4.2,4.39,4.57,7.72.91,13,7.33,12.18,15-.36,3.21.72,3.26,3.18,3.64,7.79,1.19,12.73,7.32,12.07,15.14-.22,2.71.14,3.37,3,3.61,11.2,1,16.94,13.49,9.92,22.17-2.67,3.3-1.61,4.7.79,6.64a33.57,33.57,0,0,0,4.34,3.33A9.9,9.9,0,0,0,224,365.09a9.62,9.62,0,0,0,.4-12c-1.49-2-3.31-3.73-5-5.59-.91-1-1.87-2-.58-3.43s2.42-.44,3.39.47c2.79,2.62,5.52,5.3,8.29,7.95,4.55,4.37,10.13,4.63,14.22.68s4.12-9.53-.11-14.26c-2.33-2.6-4.94-4.95-7.32-7.51-1.17-1.25-3.28-2.63-1.23-4.53,1.87-1.74,3,.48,4,1.51,4.08,3.93,7.93,8.1,12.12,11.9,4.44,4,10,3.95,14,.22,3.77-3.59,4-9.45.16-13.9-3.6-4.14-7.63-7.91-11.42-11.89-1.06-1.11-3.1-2.31-1.21-4s3,.34,4.1,1.42c3.73,3.58,7.29,7.33,11.11,10.79,5.18,4.68,11.12,4.83,15.07.62s3.48-10.46-1.48-15.12c-21-19.74-42.06-39.37-63-59.18-2.19-2.08-3.7-1.93-6-.63-6.08,3.43-12.23,6.76-18.45,9.94-7.9,4-16.06,1.8-19.82-5.25-3.88-7.27-1-15.41,7-19.73C189,230,195.79,226.49,203.53,222.45Zm23.74-3.33a29.37,29.37,0,0,0-14,3.11c-10,5-19.89,10-29.67,15.31-5.75,3.12-7.34,8.86-4.47,14s8.34,6.39,14.31,3.29c6.48-3.37,13-6.7,19.27-10.47,3.8-2.3,6.17-1.73,9.35,1.33,16.41,15.81,33.1,31.34,49.67,47,1.58,1.5,2.64,3,5,.53,9.84-10.16,19.91-20.11,30-30,1.88-1.86,1.7-3-.15-4.75-14-13-27.09-27-40.23-40.92-2-2.15-3.72-2.66-6.46-1.29a41.46,41.46,0,0,1-27.67,3.38A40.62,40.62,0,0,0,227.27,219.12Zm-60-12.34c-.73-2.59-3.55-3.88-5.19-6.1-2.3-3.1-4.09-3-6.89-.12-14.66,15-29.56,29.71-44.38,44.53-7.18,7.17-7.11,7.1.3,13.9,2.25,2.06,3.77,1.9,5.83-.17Q141,234.57,165.2,210.44C166.14,209.5,167.21,208.65,167.24,206.78Zm159.08,44.46a35.53,35.53,0,0,1-3.29-2.57q-22.47-22.41-44.89-44.86c-6.94-6.94-6.94-6.94-13.52.42a4,4,0,0,1-.35.36c-2,1.94-1.65,3.67.28,5.51,3.24,3.1,6.35,6.33,9.54,9.49,13.13,13,26.35,25.93,39.32,39.08,2.51,2.53,4,2.15,6.06-.1,1.57-1.72,3.3-3.29,4.93-5C324.94,253.05,325.39,252.39,326.32,251.24Zm-187.64,75c.06,4.34,1.94,7.33,5.54,9.06A9.32,9.32,0,0,0,155,333.91c5.15-4.47,10.18-9.08,15.15-13.74s5.71-10.64,1.92-15-9.84-4.52-15.06,0c-5,4.33-9.91,8.87-14.77,13.42C139.94,320.7,138.5,323.29,138.68,326.24Zm51.15,4.34c-.37-4.21-2.11-7.35-5.67-9.1a8.8,8.8,0,0,0-10.24,1.18c-4.12,3.61-8.19,7.28-12.17,11-4.42,4.19-4.87,9.46-1.33,13.73a9.48,9.48,0,0,0,13.79,1.34c4.52-3.63,8.63-7.77,12.86-11.74A10,10,0,0,0,189.83,330.58Zm-62.09-25.7c-.14,2.74,1.86,5.77,5.31,7.55,3.24,1.67,6.9,1.86,9.86-.62,4.45-3.73,8.79-7.63,12.85-11.77,2.64-2.69,3-6.27,1.48-9.77a9.53,9.53,0,0,0-8.44-6.08C142.21,283.67,127.81,296.93,127.74,304.88Zm77.59,44.41a9.75,9.75,0,0,0-9.53-10.11c-6.18-.2-14.93,8.26-14.91,14.41a9.59,9.59,0,0,0,9.78,9.76C196.87,363.37,205.23,355.35,205.33,349.29Z" transform="translate(-13.9 -56.14)"/><path class="cls-4" d="M112.17,142q21.42,21.6,42.84,43.22c4.36,4.4,4.34,5.23-.11,9.68-17.88,17.88-35.83,35.69-53.57,53.7-3.39,3.44-5.73,3.43-9,0-14-14.41-28.23-28.66-42.37-43,4.69-6.48,11-11.37,16.4-17.21L72,182.24C85.81,169.24,99.27,155.9,112.17,142Z" transform="translate(-13.9 -56.14)"/><path class="cls-4" d="M379.32,207.47Q359,227.71,338.66,248c-4.8,4.77-5.71,4.76-10.48,0Q301.7,221.49,275.25,195c-4.61-4.61-4.62-5.3.13-10q20.13-20.1,40.29-40.16c8.13,9.47,17.43,17.8,26.16,26.69,3.94,4,7.61,8.34,12.19,11.71l20.82,21.35C376.11,205.86,377.31,207.3,379.32,207.47Z" transform="translate(-13.9 -56.14)"/><path class="cls-5" d="M203.53,222.45c-7.74,4-14.53,7.52-21.25,11.12-8.05,4.32-10.89,12.46-7,19.73,3.76,7.05,11.92,9.29,19.82,5.25,6.22-3.18,12.37-6.51,18.45-9.94,2.31-1.3,3.82-1.45,6,.63,20.9,19.81,42,39.44,63,59.18,5,4.66,5.45,10.9,1.48,15.12s-9.89,4.06-15.07-.62c-3.82-3.46-7.38-7.21-11.11-10.79-1.12-1.08-2.31-3.06-4.1-1.42s.15,2.93,1.21,4c3.79,4,7.82,7.75,11.42,11.89,3.87,4.45,3.61,10.31-.16,13.9-3.92,3.73-9.53,3.8-14-.22-4.19-3.8-8-8-12.12-11.9-1.07-1-2.15-3.25-4-1.51-2,1.9.06,3.28,1.23,4.53,2.38,2.56,5,4.91,7.32,7.51,4.23,4.73,4.21,10.29.11,14.26s-9.67,3.69-14.22-.68c-2.77-2.65-5.5-5.33-8.29-7.95-1-.91-2-1.94-3.39-.47s-.33,2.42.58,3.43c1.66,1.86,3.48,3.6,5,5.59a9.62,9.62,0,0,1-.4,12,9.9,9.9,0,0,1-12.19,2.29,33.57,33.57,0,0,1-4.34-3.33c-2.4-1.94-3.46-3.34-.79-6.64,7-8.68,1.28-21.21-9.92-22.17-2.85-.24-3.21-.9-3-3.61.66-7.82-4.28-13.95-12.07-15.14-2.46-.38-3.54-.43-3.18-3.64.86-7.64-4.46-14.06-12.18-15-3.18-.37-4.34-1.1-4.39-4.57-.14-8.69-7.39-14.45-16.41-12.93-3.15.52-4.9-.32-6.89-2.39q-7.44-7.75-15.2-15.19c-1.89-1.82-1.87-3,0-4.82q20.94-20.76,41.72-41.69c1.33-1.33,2.4-1.89,4.2-.58,6.16,4.44,13.32,4.78,20.55,4.71A35.89,35.89,0,0,1,203.53,222.45Z" transform="translate(-13.9 -56.14)"/><path class="cls-5" d="M227.27,219.12a40.62,40.62,0,0,1,5,.44,41.46,41.46,0,0,0,27.67-3.38c2.74-1.37,4.43-.86,6.46,1.29,13.14,13.9,26.22,27.88,40.23,40.92,1.85,1.72,2,2.89.15,4.75-10.07,9.93-20.14,19.88-30,30-2.4,2.48-3.46,1-5-.53-16.57-15.63-33.26-31.16-49.67-47-3.18-3.06-5.55-3.63-9.35-1.33-6.26,3.77-12.79,7.1-19.27,10.47-6,3.1-11.5,1.75-14.31-3.29s-1.28-10.87,4.47-14c9.78-5.31,19.71-10.35,29.67-15.31A29.37,29.37,0,0,1,227.27,219.12Z" transform="translate(-13.9 -56.14)"/><path class="cls-6" d="M167.24,206.78c0,1.87-1.1,2.72-2,3.66q-24.15,24.17-48.29,48.38c-2.06,2.07-3.58,2.23-5.83.17-7.41-6.8-7.48-6.73-.3-13.9,14.82-14.82,29.72-29.57,44.38-44.53,2.8-2.86,4.59-3,6.89.12C163.69,202.9,166.51,204.19,167.24,206.78Z" transform="translate(-13.9 -56.14)"/><path class="cls-6" d="M326.32,251.24c-.93,1.15-1.38,1.81-1.92,2.37-1.63,1.67-3.36,3.24-4.93,5-2,2.25-3.55,2.63-6.06.1-13-13.15-26.19-26.07-39.32-39.08-3.19-3.16-6.3-6.39-9.54-9.49-1.93-1.84-2.32-3.57-.28-5.51a4,4,0,0,0,.35-.36c6.58-7.36,6.58-7.36,13.52-.42q22.44,22.44,44.89,44.86A35.53,35.53,0,0,0,326.32,251.24Z" transform="translate(-13.9 -56.14)"/><path class="cls-6" d="M138.68,326.24c-.18-2.95,1.26-5.54,3.51-7.65,4.86-4.55,9.73-9.09,14.77-13.42,5.22-4.49,11.23-4.36,15.06,0s3.1,10.27-1.92,15-10,9.27-15.15,13.74a9.32,9.32,0,0,1-10.73,1.39C140.62,333.57,138.74,330.58,138.68,326.24Z" transform="translate(-13.9 -56.14)"/><path class="cls-6" d="M189.83,330.58a10,10,0,0,1-2.76,6.46c-4.23,4-8.34,8.11-12.86,11.74a9.48,9.48,0,0,1-13.79-1.34c-3.54-4.27-3.09-9.54,1.33-13.73,4-3.77,8.05-7.44,12.17-11a8.8,8.8,0,0,1,10.24-1.18C187.72,323.23,189.46,326.37,189.83,330.58Z" transform="translate(-13.9 -56.14)"/><path class="cls-6" d="M127.74,304.88c.07-7.95,14.47-21.21,21.06-20.69a9.53,9.53,0,0,1,8.44,6.08c1.5,3.5,1.16,7.08-1.48,9.77-4.06,4.14-8.4,8-12.85,11.77-3,2.48-6.62,2.29-9.86.62C129.6,310.65,127.6,307.62,127.74,304.88Z" transform="translate(-13.9 -56.14)"/><path class="cls-6" d="M205.33,349.29c-.1,6.06-8.46,14.08-14.66,14.06a9.59,9.59,0,0,1-9.78-9.76c0-6.15,8.73-14.61,14.91-14.41A9.75,9.75,0,0,1,205.33,349.29Z" transform="translate(-13.9 -56.14)"/></svg>