<svg id="Layer_1" data-name="Layer 1" xmlns="http://www.w3.org/2000/svg" viewBox="0 0 400.21 400.12"><defs><style>.cls-1{fill:#fefefe;}.cls-2{fill:#eae2f7;}.cls-3{fill:#9359d4;}.cls-4{fill:#d4d8fe;}.cls-5{fill:#fdfdfe;}</style></defs><title>img-04</title><path class="cls-1" d="M14,456.24q0-198.44-.09-396.85c0-3,.87-3.22,3.44-3.22q196.68.11,393.37,0c2.72,0,3.36.47,3.36,3.3q-.13,196.68,0,393.37c0,3.92-1.71,3.44-4.22,3.44Q212,456.21,14,456.24Zm349.54-254c-.11-9.47-.2-18.93-.32-28.4-.1-8.82-4-12.61-12.85-12.75-3.16-.05-6.31-.19-9.46-.29.21-1.46-.53-2.49-1.42-3.56a197.3,197.3,0,0,0-16.23-17.38,156.1,156.1,0,0,0-37.72-26.41c-31.44-15.89-64.63-20.65-99.1-14.93-32.83,5.46-61.15,20.65-84.9,43.88a154.4,154.4,0,0,0-33.65,48.91C55,220.79,50.73,251.43,56.28,283.07a159.32,159.32,0,0,0,32.87,73.2,156.43,156.43,0,0,0,52.56,42.53c26.69,13.44,55,19.34,85.19,16.59,23-2.09,44.51-8.25,64.69-19.4a160.34,160.34,0,0,0,33.94-25,154.57,154.57,0,0,0,21-25.16c1.49-2.22,3.7-4.4,3.48-7.53,9.58-3.56,14-10.4,13.26-20.63a67.88,67.88,0,0,1,.27-7.39c.89-.25,1.22-.91,1.54-1.75,5.51-14.34,7.91-29.37,8.78-44.54a152,152,0,0,0-8-57.66C365.36,204.88,365.54,202.87,363.54,202.2Z" transform="translate(-13.91 -56.16)"/><path class="cls-2" d="M350,338.29c.22,3.13-2,5.31-3.48,7.53a154.57,154.57,0,0,1-21,25.16,160.34,160.34,0,0,1-33.94,25c-20.18,11.15-41.68,17.31-64.69,19.4-30.15,2.75-58.5-3.15-85.19-16.59a156.43,156.43,0,0,1-52.56-42.53,159.32,159.32,0,0,1-32.87-73.2c-5.55-31.64-1.33-62.28,11.61-91.8a154.4,154.4,0,0,1,33.65-48.91c23.75-23.23,52.07-38.42,84.9-43.88,34.47-5.72,67.66-1,99.1,14.93a156.1,156.1,0,0,1,37.72,26.41,197.3,197.3,0,0,1,16.23,17.38c.89,1.07,1.63,2.1,1.42,3.56-12.5.05-25,.12-37.48.14s-12.51,0-16.18-11.93c-2.95-9.61-7.72-12.2-17.3-9.32-15.44,4.64-31,8.9-46.28,14.11C207.88,159.15,192,162,175.21,161c-10.62-.63-21.32-.24-32,0-7.33.19-11.17,4.36-11.56,11.67a10,10,0,0,0,0,2.5c1,5.18-1.49,7.06-6.33,8.4-15.06,4.17-29.95,8.94-44.9,13.5-10,3-12.56,8.13-9.23,18.1Q89.54,270.11,107.89,325c3.51,10.51,7.28,13.27,18.19,13.28ZM233.63,370.23H221c-12.11,0-24.16.59-35.91,3.86-1.55.43-3.74.59-3.81,2.58s2.15,2.17,3.66,2.68c8.9,3,18.22,3.28,27.43,3.76,10.45.54,21,.12,31.44.13a155.87,155.87,0,0,0,32.54-3.12c2.13-.45,5.33-.83,5.25-3.55-.07-2.19-3.12-2.51-5.09-3.24a7.9,7.9,0,0,0-1-.1C261.16,370.1,246.58,370.1,233.63,370.23Z" transform="translate(-13.91 -56.16)"/><path class="cls-3" d="M350,338.29l-223.93,0c-10.91,0-14.68-2.77-18.19-13.28Q89.56,270.11,71.21,215.24c-3.33-10-.73-15.06,9.23-18.1,15-4.56,29.84-9.33,44.9-13.5,4.84-1.34,7.33-3.22,6.33-8.4a10,10,0,0,1,0-2.5c.39-7.31,4.23-11.48,11.56-11.67,10.65-.28,21.35-.67,32,0,16.75,1,32.67-1.88,48.46-7.27,15.25-5.21,30.84-9.47,46.28-14.11,9.58-2.88,14.35-.29,17.3,9.32,3.67,11.94,3.67,11.95,16.18,11.93s25-.09,37.48-.14c3.15.1,6.3.24,9.46.29,8.9.14,12.75,3.93,12.85,12.75.12,9.47.21,18.93.32,28.4-.11,2-.31,4-.31,6q0,47.34,0,94.68c0,2.48.2,5,.31,7.44a67.88,67.88,0,0,0-.27,7.39C364,327.89,359.59,334.73,350,338.29Zm-217.73-4.07H342.61c12,0,16.56-4.57,16.56-16.55q0-70.71,0-141.43c0-9.52-1.58-11.13-10.91-11.13H146.87c-9.32,0-11,1.69-11,11q.06,71.72.17,143.42C136,324.45,135.86,329.17,132.28,334.22Zm-.44-78.16c0-21.8-.1-43.61.08-65.41,0-4.12-1-4.72-4.78-3.51-14.89,4.72-29.87,9.13-44.81,13.65-8.46,2.56-9.85,5.19-7.07,13.51q10.67,31.92,21.35,63.82c5.38,16.08,10.67,32.19,16.13,48.24,2.42,7.09,7.56,9.46,13.49,6.5,4.71-2.36,5.6-6.68,5.6-11.38Q131.85,288.78,131.84,256.06Zm85.06-95.89.18.92h57.65c12.41,0,12.41,0,8.34-11.93-2-5.77-5.29-7.6-11.1-5.85-13.69,4.11-27.36,8.3-41,12.48C226.25,157.22,221.58,158.71,216.9,160.17Z" transform="translate(-13.91 -56.16)"/><path class="cls-2" d="M363.54,310.27c-.11-2.48-.31-5-.31-7.44q0-47.34,0-94.68c0-2,.2-4,.31-6,2,.67,1.82,2.68,2.31,4.12a152,152,0,0,1,8,57.66c-.87,15.17-3.27,30.2-8.78,44.54C364.76,309.36,364.43,310,363.54,310.27Z" transform="translate(-13.91 -56.16)"/><path class="cls-4" d="M220.74,370.23c18.86-.13,40.09-.13,61,3,.46.07,1,0,1.43.1,2.88.73,7.32,1.05,7.42,3.24.12,2.72-4.54,3.1-7.64,3.55a327.87,327.87,0,0,1-47.39,3.12c-15.27,0-30.57.41-45.79-.13-13.4-.48-27-.76-39.94-3.76-2.21-.51-5.45-.61-5.34-2.68s3.29-2.15,5.55-2.58c17.12-3.27,34.66-3.88,52.3-3.86Z" transform="translate(-13.91 -56.16)"/><path class="cls-5" d="M132.28,334.22c3.58-5.05,3.76-9.77,3.75-14.65q-.18-71.71-.17-143.42c0-9.35,1.69-11,11-11H348.26c9.33,0,10.91,1.61,10.91,11.13q0,70.71,0,141.43c0,12-4.57,16.55-16.56,16.55H132.28ZM210,276.82h0c0-9.15-.06-18.31,0-27.46,0-2.76-.53-4.44-3.78-4.43q-23,.12-45.94,0c-2.7,0-4,1-4,3.78q0,27.71,0,55.42c0,3.07,1.07,4.39,4.39,4.45q22.47.41,44.92,0c3.59-.06,4.54-1.47,4.48-4.8C209.9,294.8,210,285.81,210,276.82Zm37.47-56.6H159.53c-1.46,0-2.75.36-2.64,2.18.08,1.48,1.22,1.81,2.48,1.82l3,0h170.4c1,0,2,0,3,0,1.27,0,2.34-.42,2.4-1.91s-.95-2-2.24-2.07-2.67,0-4,0Zm9.45-18.33-.78-.08c-1-4.71-2-9.4-2.91-14.13-.41-2.25-1.15-4-3.79-3.42s-2.51,2.63-2,4.72c1.52,6.46,3.06,12.92,4.55,19.39.52,2.26,1.34,4.17,4.06,4.25s3.76-1.63,4.44-3.89c1.25-4.13,2.55-8.24,4.28-13.8,1.73,5.58,3,9.65,4.23,13.74.67,2.28,1.85,4,4.41,4s3.59-1.95,4.11-4.22c1.46-6.3,3.05-12.58,4.36-18.91.39-1.9,1.51-4.63-1.76-5.28s-3.55,2-4.13,4.31c-1.06,4.18-1,8.68-3.45,13.32-1.46-4.9-2.62-9-3.95-13.13-.64-1.95-.82-4.51-3.78-4.53s-3.22,2.39-3.85,4.42C259.6,193.05,258.27,197.48,256.93,201.89ZM285,264.46h-9c-13.15,0-26.3,0-39.45.05-2.08,0-5.62-1.05-5.51,2.32s3.61,2.13,5.72,2.13q47.92.1,95.86.05c1.17,0,2.33,0,3.49-.1s2.42-.74,2.47-2c.07-1.61-1.25-2.22-2.67-2.34s-2.66-.06-4-.06Zm.06,20H237.11a33,33,0,0,0-4,.13c-1.21.15-2.31.74-2.28,2.18s1.15,2,2.36,2.11a27.08,27.08,0,0,0,3.49.12h96.36a21.25,21.25,0,0,0,3.48-.16,2.25,2.25,0,0,0,2-1.91c.12-1.41-.94-2.11-2.13-2.3a25.2,25.2,0,0,0-4-.16Zm-85.76-87.15,1.53-.47c3.29,4.31,6.56,8.62,9.86,12.92,1.22,1.58,2.45,3.39,4.86,2.57,2.2-.76,2.06-2.83,2.07-4.62.06-6.15.08-12.3,0-18.45,0-2.32-.1-5.16-3.39-5-3,.14-2.68,2.81-2.85,5-.29,3.61.73,7.35-.9,11.5-3.89-5.18-7.36-9.83-10.86-14.47-1-1.39-2.29-2.55-4.2-1.95s-2,2.42-2,4.11q0,10,0,20c0,2.18.59,4.34,3.1,4.24s2.83-2.36,2.81-4.5C199.26,204.51,199.28,200.91,199.28,197.31Zm98,15.74c5.33.12,9.61-3.15,10.53-8.05.83-4.45-1.47-7.57-6.74-9.64-2.24-.87-6.57-.44-5.7-4s4.46-1.25,6.91-.92c1.74.24,3-.35,3.49-2a2.71,2.71,0,0,0-1.7-3.26,12.12,12.12,0,0,0-8.21-1.12c-4.55,1-6.85,3.91-7.35,8.28s2.39,6.24,5.93,7.48c1.41.5,2.84.93,4.28,1.35,1.6.47,2.74,1.34,2.49,3.17a3.13,3.13,0,0,1-3.59,2.75,25,25,0,0,1-5.34-1.16c-1.7-.47-3-.08-3.75,1.52s.27,2.88,1.56,3.75C292.24,212.66,294.8,212.71,297.27,213.05Zm-64.17-.53a16.67,16.67,0,0,0,2,0c2.43-.31,6.23,1.09,6.26-2.87,0-3.66-3.61-2.55-5.9-2.64s-3.84-.16-3.88-3.1c0-3.28,2.09-2.77,4-2.79,2.2,0,4.94.14,5-2.69.13-3.31-2.82-3-5.15-3-2,0-4,.3-3.91-2.89.11-2.85,1.92-2.6,3.75-2.61.84,0,1.67,0,2.5-.05,1.81-.19,3.31-.87,3.18-3-.11-1.85-1.46-2.5-3.11-2.54-2.49-.06-5,.1-7.48-.06-3.71-.24-5.11,1.57-5.08,5.05,0,5.16,0,10.31,0,15.47C225.38,212.48,225.41,212.52,233.1,212.52Zm66.4,32.54c-11.5,0-23,0-34.5,0-1.64,0-4.29-.84-4.32,1.88s2.52,2.11,4.27,2.11q34.49,0,69,0c1.73,0,4.27.57,4.31-2.05,0-2.82-2.63-1.93-4.25-1.94C322.5,245,311,245.06,299.5,245.06Zm-29.44,63.35c11.3,0,22.6,0,33.9,0,1.76,0,4.67,1,4.67-2,0-2.38-2.62-2-4.39-2q-34.41,0-68.81,0c-1.71,0-4.34-.59-4.37,1.95,0,3.07,2.88,2,4.59,2C247.12,308.46,258.59,308.41,270.06,308.41Z" transform="translate(-13.91 -56.16)"/><path class="cls-4" d="M131.84,256.06q0,32.71,0,65.42c0,4.7-.89,9-5.6,11.38-5.93,3-11.07.59-13.49-6.5-5.46-16.05-10.75-32.16-16.13-48.24q-10.67-31.9-21.35-63.82c-2.78-8.32-1.39-11,7.07-13.51,14.94-4.52,29.92-8.93,44.81-13.65,3.82-1.21,4.82-.61,4.78,3.51C131.74,212.45,131.84,234.26,131.84,256.06Z" transform="translate(-13.91 -56.16)"/><path class="cls-4" d="M216.9,160.17c4.68-1.46,9.35-2.95,14-4.38,13.68-4.18,27.35-8.37,41-12.48,5.81-1.75,9.13.08,11.1,5.85,4.07,11.93,4.07,11.93-8.34,11.93H217.08Z" transform="translate(-13.91 -56.16)"/><path class="cls-3" d="M210,276.82c0,9-.11,18,.05,27,.06,3.33-.89,4.74-4.48,4.8q-22.46.39-44.92,0c-3.32-.06-4.4-1.38-4.39-4.45q.09-27.7,0-55.42c0-2.78,1.29-3.79,4-3.78q23,.09,45.94,0c3.25,0,3.81,1.67,3.78,4.43-.1,9.15,0,18.31,0,27.46Zm-26.22-27.69c-6.33,0-12.66.16-19-.07-3.36-.12-4.29,1.14-4.18,4.33a158.58,158.58,0,0,1,0,18c-.41,5.22,1.31,6.86,6.4,6.07,2.57-.39,5.3.21,8,.37,9.17.52,18,3.08,27,4.5,3,.48,4.14-.34,4.06-3.58-.19-8.65-.16-17.32,0-26,.05-2.87-.93-3.75-3.73-3.67C196.12,249.25,190,249.13,183.79,249.13Zm-.29,55.24H199c7,0,7,0,7-6.86,0-10.11,0-10.11-9.94-12.1-10.43-2.08-20.82-4.33-31.58-3.72-3,.17-4,1.25-3.89,4.24.22,4.48.2,9,0,13.48-.15,3.63,1.23,5.12,4.94,5C171.51,304.23,177.51,304.37,183.5,304.37Z" transform="translate(-13.91 -56.16)"/><path class="cls-3" d="M247.48,220.22h84.45c1.33,0,2.66,0,4,0s2.31.56,2.24,2.07-1.13,1.88-2.4,1.91c-1,0-2,0-3,0H162.37l-3,0c-1.26,0-2.4-.34-2.48-1.82-.11-1.82,1.18-2.16,2.64-2.18h87.95Z" transform="translate(-13.91 -56.16)"/><path class="cls-3" d="M256.93,201.89c1.34-4.41,2.67-8.84,4-13.25.63-2,.91-4.44,3.85-4.42s3.14,2.58,3.78,4.53c1.33,4.09,2.49,8.23,3.95,13.13,2.44-4.64,2.39-9.14,3.45-13.32.58-2.32.81-5,4.13-4.31s2.15,3.38,1.76,5.28c-1.31,6.33-2.9,12.61-4.36,18.91-.52,2.27-1.45,4.21-4.11,4.22s-3.74-1.71-4.41-4c-1.21-4.09-2.5-8.16-4.23-13.74-1.73,5.56-3,9.67-4.28,13.8-.68,2.26-1.79,4-4.44,3.89s-3.54-2-4.06-4.25c-1.49-6.47-3-12.93-4.55-19.39-.49-2.09-.69-4.16,2-4.72s3.38,1.17,3.79,3.42c.87,4.73,1.93,9.42,2.91,14.13Z" transform="translate(-13.91 -56.16)"/><path class="cls-3" d="M285,264.46h46.93c1.34,0,2.67-.05,4,.06s2.74.73,2.67,2.34c-.05,1.3-1.21,1.93-2.47,2s-2.32.1-3.49.1q-47.92,0-95.86-.05c-2.11,0-5.61,1.1-5.72-2.13s3.43-2.3,5.51-2.32c13.15-.09,26.3-.05,39.45-.05Z" transform="translate(-13.91 -56.16)"/><path class="cls-3" d="M285,284.46h47.44a25.2,25.2,0,0,1,4,.16c1.19.19,2.25.89,2.13,2.3a2.25,2.25,0,0,1-2,1.91,21.25,21.25,0,0,1-3.48.16H236.7a27.08,27.08,0,0,1-3.49-.12c-1.21-.16-2.33-.68-2.36-2.11s1.07-2,2.28-2.18a33,33,0,0,1,4-.13Z" transform="translate(-13.91 -56.16)"/><path class="cls-3" d="M199.28,197.31c0,3.6,0,7.2,0,10.8,0,2.14-.29,4.41-2.81,4.5s-3.1-2.06-3.1-4.24q0-10,0-20c0-1.69,0-3.47,2-4.11s3.16.56,4.2,1.95c3.5,4.64,7,9.29,10.86,14.47,1.63-4.15.61-7.89.9-11.5.17-2.16-.11-4.83,2.85-5,3.29-.16,3.35,2.68,3.39,5,.08,6.15.06,12.3,0,18.45,0,1.79.13,3.86-2.07,4.62-2.41.82-3.64-1-4.86-2.57-3.3-4.3-6.57-8.61-9.86-12.92Z" transform="translate(-13.91 -56.16)"/><path class="cls-3" d="M297.27,213.06c-2.47-.35-5-.4-7.19-1.85-1.29-.87-2.35-2-1.56-3.75s2.05-2,3.75-1.52a25,25,0,0,0,5.34,1.16,3.13,3.13,0,0,0,3.59-2.75c.25-1.83-.89-2.7-2.49-3.17-1.44-.42-2.87-.85-4.28-1.35-3.54-1.24-6.43-3.15-5.93-7.48s2.8-7.31,7.35-8.28a12.12,12.12,0,0,1,8.21,1.12,2.71,2.71,0,0,1,1.7,3.26c-.49,1.68-1.75,2.27-3.49,2-2.45-.33-6-2.56-6.91.92s3.46,3.09,5.7,4c5.27,2.07,7.57,5.19,6.74,9.64C306.88,209.9,302.6,213.17,297.27,213.06Z" transform="translate(-13.91 -56.16)"/><path class="cls-3" d="M233.1,212.52c-7.69,0-7.72,0-7.73-7.81,0-5.16,0-10.31,0-15.47,0-3.48,1.37-5.29,5.08-5.05,2.48.16,5,0,7.48.06,1.65,0,3,.69,3.11,2.54.13,2.16-1.37,2.84-3.18,3-.83.09-1.66,0-2.5.05-1.83,0-3.64-.24-3.75,2.61-.13,3.19,1.88,2.89,3.91,2.89,2.33,0,5.28-.26,5.15,3-.11,2.83-2.85,2.68-5,2.69-1.94,0-4.07-.49-4,2.79,0,2.94,1.69,3,3.88,3.1s5.92-1,5.9,2.64c0,4-3.83,2.56-6.26,2.87A16.67,16.67,0,0,1,233.1,212.52Z" transform="translate(-13.91 -56.16)"/><path class="cls-3" d="M299.5,245.06c11.5,0,23,0,34.5,0,1.62,0,4.28-.88,4.25,1.94,0,2.62-2.58,2-4.31,2.05q-34.5,0-69,0c-1.75,0-4.3.49-4.27-2.11s2.68-1.87,4.32-1.88C276.5,245,288,245.06,299.5,245.06Z" transform="translate(-13.91 -56.16)"/><path class="cls-3" d="M270.06,308.41c-11.47,0-22.94,0-34.41-.05-1.71,0-4.62,1.05-4.59-2,0-2.54,2.66-1.95,4.37-1.95q34.41-.06,68.81,0c1.77,0,4.39-.39,4.39,2,0,3-2.91,2-4.67,2C292.66,308.45,281.36,308.41,270.06,308.41Z" transform="translate(-13.91 -56.16)"/><path class="cls-2" d="M183.79,249.13c6.17,0,12.33.12,18.49,0,2.8-.08,3.78.8,3.73,3.67-.15,8.66-.18,17.33,0,26,.08,3.24-1,4.06-4.06,3.58-9-1.42-17.86-4-27-4.5-2.65-.16-5.38-.76-8-.37-5.09.79-6.81-.85-6.4-6.07a158.58,158.58,0,0,0,0-18c-.11-3.19.82-4.45,4.18-4.33C171.13,249.29,177.46,249.13,183.79,249.13Z" transform="translate(-13.91 -56.16)"/><path class="cls-5" d="M183.5,304.37c-6,0-12-.14-18,.05-3.71.11-5.09-1.38-4.94-5,.18-4.49.2-9,0-13.48-.14-3,.88-4.07,3.89-4.24,10.76-.61,21.15,1.64,31.58,3.72,10,2,10,2,9.94,12.1,0,6.84,0,6.85-7,6.86Z" transform="translate(-13.91 -56.16)"/></svg>