<svg id="Layer_1" data-name="Layer 1" xmlns="http://www.w3.org/2000/svg" viewBox="0 0 400.2 400.15"><defs><style>.cls-1{fill:#fefefe;}.cls-2{fill:#eae2f7;}.cls-3{fill:#9359d4;}.cls-4{fill:#fcfcfe;}.cls-5{fill:#f8f8fd;}.cls-6{fill:#eff1fe;}.cls-7{fill:#d4d8fe;}</style></defs><title>img-05</title><path class="cls-1" d="M14,456.24Q14,258,13.9,59.87c0-3.4,1.11-3.69,4-3.69q196.19.09,392.38,0c3.09,0,3.84.66,3.84,3.81q-.13,196.2,0,392.38c0,3.65-1,4-4.22,4Q212,456.18,14,456.24ZM363,320.05a34.08,34.08,0,0,1,1.28-4.28c7.14-15.94,10.12-32.89,11.58-50.1a138.22,138.22,0,0,0-2.09-36.2c-6-32.88-20.43-61.64-43.78-85.55a158.21,158.21,0,0,0-50.69-34.58,162.66,162.66,0,0,0-55.86-13c-12.27-.71-24.46.9-36.61,2.84a143.18,143.18,0,0,0-50.67,18.43c-15.48,9.17-29.52,20.11-41.26,34a161.79,161.79,0,0,0-23.55,36.2A164.18,164.18,0,0,0,57.64,234.4a158.65,158.65,0,0,0,.91,49.93c2.17,12.29,6,24.08,10.43,35.72-3.33.06-6.65.1-10,.18-1.41,0-2.85.26-2.8,2s1.5,2,2.89,2c1.17,0,2.34,0,3.5,0q16.5,0,33,0c1.52,0,3.61-.62,3.52,2.14-.16,4.83-.31,9.65-.51,14.47a2.48,2.48,0,0,1-2,2.51c-4,1.25-5,4.42-5,8.24,0,1.73.92,4.31-1.21,4.95-6.53,2-5.11,7.14-5.53,11.84s1.22,6,5.87,5.93c34.65-.18,69.31-.1,104-.1q75,0,149.94,0c1.75,0,3.74.7,5.22-.82,2.31-2.37.77-14.47-2.37-15.58-3.59-1.26-3.8-3.52-3.58-6.47s-.35-6.09-3-6.84c-4.55-1.29-4-4.43-4.07-7.62s0-6.35-.41-9.48c-.31-2.55.63-3.21,2.95-3.18,5.67.08,11.33,0,17,0,4.16,0,8.33,0,12.49,0,1.39,0,2.85-.19,2.9-2s-1.39-2-2.81-2.06Zm-318.33-.14c-1.85,1.47-6.24-1.58-6.22,2.3,0,3.6,4.26,1.92,6.58,1.92s6.55,1.69,6.48-2S47.18,321.06,44.69,319.91Zm337.47,4.34c1.9,0,3.39,0,4.87,0s2.78-.45,2.76-2.14-1.55-1.85-2.89-1.88a20,20,0,0,0-4.45,0c-2.14.45-6.05-1.62-6,2C376.48,325.66,380.43,323.63,382.16,324.25Z" transform="translate(-13.9 -56.16)"/><path class="cls-2" d="M69,320.05c-4.39-11.64-8.26-23.43-10.43-35.72a158.65,158.65,0,0,1-.91-49.93,164.18,164.18,0,0,1,13.73-46.58,161.79,161.79,0,0,1,23.55-36.2c11.74-13.92,25.78-24.86,41.26-34a143.18,143.18,0,0,1,50.67-18.43c12.15-1.94,24.34-3.55,36.61-2.84a162.66,162.66,0,0,1,55.86,13A158.21,158.21,0,0,1,330,143.92c23.35,23.91,37.83,52.67,43.78,85.55a138.22,138.22,0,0,1,2.09,36.2c-1.46,17.21-4.44,34.16-11.58,50.1a34.08,34.08,0,0,0-1.28,4.28c-7.83.06-15.66.05-23.48.2-2.39,0-3.5-.39-3.59-3.21-.41-13.64-1-27.27-1.72-40.9-.08-1.74.32-2.44,1.9-3.35,4.37-2.52,6.58-9,3.63-13s-2.59-8-2.62-12.19c-.05-8.16,0-16.33,0-24.49,0-1.29-.56-2.87.53-3.83,3.35-2.93,3.1-6.79,3-10.62a10.6,10.6,0,0,1,1.6-6.15c4.64-7.44,4.06-9.72-3.4-14.43-35.43-22.43-70.83-44.93-106.37-67.19-4.26-2.67-6.3-5.41-6-10.65.49-8.36.13-8.38-8.23-8.38h-.5c-10.14,0-8.72-.52-8.85,8.87,0,3.19.62,6.16-3.21,8.52-23.91,14.81-47.61,30-71.37,45L95.14,189.11c-3.5,2.22-6.61,5.29-4,9.35a25.93,25.93,0,0,1,4.06,16,2.72,2.72,0,0,0,.58,1.87c3.34,3.21,2.54,7.32,2.55,11.24,0,8.32,0,16.65,0,25a9.29,9.29,0,0,1-1.73,6,9.9,9.9,0,0,0,2.54,14,4.36,4.36,0,0,1,2.19,4.46c-.58,13.14-1.15,26.27-1.63,39.41-.09,2.59-.75,3.92-3.72,3.85C87,320.06,78,320.1,69,320.05Z" transform="translate(-13.9 -56.16)"/><path class="cls-3" d="M69,320.05c9,.05,18,0,27,.21,3,.07,3.63-1.26,3.72-3.85.48-13.14,1-26.27,1.63-39.41a4.36,4.36,0,0,0-2.19-4.46,9.9,9.9,0,0,1-2.54-14,9.29,9.29,0,0,0,1.73-6c0-8.32,0-16.65,0-25,0-3.92.79-8-2.55-11.24a2.72,2.72,0,0,1-.58-1.87,25.93,25.93,0,0,0-4.06-16c-2.56-4.06.55-7.13,4-9.35l39.24-24.83c23.76-15,47.46-30.19,71.37-45,3.83-2.36,3.17-5.33,3.21-8.52.13-9.39-1.29-8.86,8.85-8.87h.5c8.36,0,8.72,0,8.23,8.38-.32,5.24,1.72,8,6,10.65,35.54,22.26,70.94,44.76,106.37,67.19,7.46,4.71,8,7,3.4,14.43a10.6,10.6,0,0,0-1.6,6.15c.09,3.83.34,7.69-3,10.62-1.09,1-.53,2.54-.53,3.83,0,8.16-.06,16.33,0,24.49,0,4.21-.32,8.22,2.62,12.19s.74,10.45-3.63,13c-1.58.91-2,1.61-1.9,3.35.68,13.63,1.31,27.26,1.72,40.9.09,2.82,1.2,3.25,3.59,3.21,7.82-.15,15.65-.14,23.48-.2l6,.17c1.42,0,2.85.27,2.81,2.06s-1.51,2-2.9,2c-4.16,0-8.33,0-12.49,0-5.67,0-11.33.06-17,0-2.32,0-3.26.63-2.95,3.18.39,3.13.32,6.32.41,9.48s-.48,6.33,4.07,7.62c2.66.75,3.22,4,3,6.84s0,5.21,3.58,6.47c3.14,1.11,4.68,13.21,2.37,15.58-1.48,1.52-3.47.82-5.22.82q-75,.06-149.94,0c-34.65,0-69.31-.08-104,.1-4.65,0-6.27-1.31-5.87-5.93s-1-9.87,5.53-11.84c2.13-.64,1.22-3.22,1.21-4.95,0-3.82.93-7,5-8.24a2.48,2.48,0,0,0,2-2.51c.2-4.82.35-9.64.51-14.47.09-2.76-2-2.13-3.52-2.14q-16.5,0-33,0c-1.16,0-2.33,0-3.5,0-1.39,0-2.85-.19-2.89-2s1.39-2,2.8-2C62.33,320.15,65.65,320.11,69,320.05Zm261.5-117.86c-37.64-23-74-45.14-110.24-67.42-2.46-1.5-4-.48-5.82.64Q161.65,167.66,108.88,200c-.85.52-2.34.62-2.2,2.24ZM218,256.21H322.45c10.64,0,10.36,0,10.74-10.55.17-4.76-1.41-5.64-5.81-5.64q-106.9.21-213.82.1c-11,0-10.73,0-11.09,10.83-.16,4.67,1.46,5.37,5.63,5.35C144.74,256.14,181.38,256.21,218,256.21Zm.08-36c-37.13,0-74.27.06-111.41-.09-3.9,0-5,1.85-4,4.71,1.34,3.66-4.2,9.88,3.77,11,3.11.43,6.36-.21,9.48.14,4.6.52,6.94-.69,6.1-5.8-.24-1.44-.7-3.79,1.85-3.81s2.29,2.22,2,3.76c-.82,5,1.36,6.54,6,5.82,1.63-.25,3.33.06,5-.06,2.62-.18,5.67,1,7.75-.7,1.62-1.38.42-4.13.68-6.25.14-1.17.21-2.44,1.72-2.64,1.9-.25,2.08,1.25,2.37,2.54,1.59,7.07,1.59,7.07,8.93,7.07a32,32,0,0,1,4.49,0c4.49.64,7-.51,6.15-5.72-.23-1.4-.82-3.79,1.75-3.86,2.39-.07,2.43,2.16,2.13,3.7-1.11,5.72,2.05,6.38,6.48,5.87,1.32-.15,2.67,0,4,0,2.64-.1,5.67.52,7.81-.58s.52-4.27,1-6.49c.28-1.4.73-2.7,2.45-2.55s1.39,1.56,1.51,2.69c.77,6.93.77,6.93,8,6.93a37.33,37.33,0,0,1,4.49,0c5.11.64,8.55-.34,7.3-6.69-.24-1.23-.11-2.87,1.81-2.93s1.95,1.4,2.14,2.76c1,6.84,1,6.83,8,6.83h3c7,0,7.06,0,8.34-7,.25-1.42.61-2.72,2.35-2.61s1.49,1.49,1.64,2.63c.91,7,.91,7,7.92,7a39.71,39.71,0,0,1,4.5,0c5,.6,8.59-.26,7.32-6.66-.24-1.21-.15-2.89,1.78-2.94s2,1.36,2.18,2.75c1,6.83,1,6.82,8,6.82a36.11,36.11,0,0,1,5,0c4.74.66,7.34-.62,6.37-6-.29-1.59-.15-3.73,2.28-3.54,2.11.17,1.86,2.26,1.62,3.58-1,5.58,1.91,6.57,6.5,6,1.14-.15,2.33,0,3.49,0,3-.18,6.33,1,8.81-.58,2.23-1.46.52-4.66,1-7,.2-1,.46-2,1.76-2a2,2,0,0,1,2,1.81,9,9,0,0,1,.16,3c-.66,4.1,1.22,5.38,5,4.85a25.38,25.38,0,0,1,3.49,0c10.78,0,10.58,0,10.85-10.53.1-4.12-.95-5.27-5.17-5.24C291.38,220.29,254.74,220.22,218.1,220.22Zm123-24.06c.11-2.53-2-3.23-3.63-4.26q-21.74-13.76-43.5-27.47-31.46-19.85-63-39.65c-1.16-.73-2.85-2.67-3.8-1.44-4.36,5.7-10.24,1.44-15.21,2.71a2,2,0,0,1-2.49-1.25c-.71-3.2-2.17-1.75-3.68-.79q-54.06,34.11-108.14,68.17c-3,1.88-3.76,3.63-1.89,6.88,2.2,3.8,4.09,1.28,6,.11,36.81-22.44,73.65-44.82,110.32-67.49,4.36-2.69,7.37-2.52,11.62.11,36.83,22.73,73.8,45.22,110.73,67.77C337.76,201.59,340.92,200,341.06,196.16Zm-123,10.38H154.15c-16.82,0-33.64,0-50.45.05-1.59,0-3.77-1.09-4.62,1.58-1.61,5.07.42,7.93,5.78,7.93q112.89,0,225.77.06c4,0,6.09-.68,6.18-5.39.08-5-2.86-4.24-5.84-4.24Zm-.6,163.67q62,0,124,0c3.08,0,5.37.14,5.18-4.27-.16-3.84-1.15-5.18-5.17-5.17q-123.69.15-247.39,0c-3.92,0-5,1.27-5.16,5.19-.17,4.46,2.09,4.24,5.14,4.23Q155.76,370.17,217.48,370.21Zm.6-13.86c39,0,78-.06,117,.09,3.93,0,5.11-1,5-4.95-.15-4.29-2.58-4.25-5.64-4.25q-116.46,0-232.94,0c-3.84,0-5.64.68-5.71,5.14-.08,4.68,2.57,4,5.38,4ZM119.8,284.27h.25c.67,16.75,1.38,33.51,2,50.27.33,8.67.27,8.67,9.13,8.67a24.78,24.78,0,0,1,4.48,0c4.71.9,6-1.56,6.16-5.66q1.08-30.37,2.3-60.75c.07-1.73.11-3.1-1.86-4.07a7.61,7.61,0,0,1-4.26-8.3c.48-3.74-1.2-4.68-4.51-4.23a13.51,13.51,0,0,1-3.48,0c-3.31-.45-4.44.88-4.06,4.17.42,3.59-.87,6.64-4.23,8.31-1.89.94-2,2.3-2,4.07C119.88,279.28,119.8,281.77,119.8,284.27Zm97.72,58.94c2.16,0,4.33-.12,6.49,0,2.4.16,3.18-.88,3.27-3.17.89-21.11,1.87-42.21,2.78-63.31.06-1.43.39-3-1.52-3.77-4.27-1.8-5-5.53-4.65-9.56.2-2.39-.52-3.39-3-3.19a30.5,30.5,0,0,1-5.49,0c-2.93-.31-3.8.95-3.55,3.72.27,3.12-.34,6.39-3.18,7.92-3.23,1.75-3.08,4.23-3,7.07.78,18.28,1.58,36.56,2.26,54.84C208.34,343.21,208.23,343.21,217.52,343.21Zm-54.69-57.9h.2c.71,17.95,1.51,35.89,2.05,53.84.1,3.4,1.36,4.31,4.49,4.12a83.29,83.29,0,0,1,10.48,0c3.18.21,4.42-.77,4.34-4.13-.1-4.31.45-8.62.64-12.94.7-15.95,1.42-31.89,2-47.85.07-1.76,1.18-4.09-1.38-5.28-3.9-1.82-5.12-5.09-4.63-9.06.41-3.31-1.12-4.08-4-3.76a17.75,17.75,0,0,1-4,0c-3.24-.42-4.57.81-4.15,4.13.38,3-.26,6.05-3,7.48-3.15,1.69-3.41,4-3.13,7C163,281,162.83,283.14,162.83,285.31Zm97.71,57.9c2,0,4-.12,6,0,2.42.17,3.57-.49,3.68-3.23.85-21.1,1.83-42.19,2.81-63.29.09-1.76,0-3.12-2-4a7.4,7.4,0,0,1-4.36-8.25c.65-4.44-1.57-4.51-4.68-4.24a14.23,14.23,0,0,1-3,0c-3.11-.37-4.56.56-4.2,4.06a8.11,8.11,0,0,1-4.68,8.65c-1.71.83-1.86,1.87-1.78,3.56q1.37,28.65,2.53,57.31C251.27,343.21,251.16,343.21,260.54,343.21Zm42.81,0c2.16,0,4.33-.1,6.49,0s3.2-.57,3.31-3c.86-20.94,1.88-41.88,2.79-62.82.07-1.65.73-3.54-1.83-4.51a6.84,6.84,0,0,1-4.39-7.68c.79-5.14-1.94-5.29-5.58-4.93a10.91,10.91,0,0,1-2.49,0c-3-.41-4.27.69-4,3.85.36,3.77-.9,7.06-4.45,8.76-2.24,1.07-2.1,2.67-2,4.51.89,18.94,1.86,37.88,2.64,56.82C294.24,343.2,294.07,343.21,303.35,343.21ZM118,335.83c-.84-21.4-1.59-39.32-2.21-57.25-.13-3.8-1.37-5.18-5.54-5.36-5.46-.24-4.91,3.24-5,6.33-.86,19.74-1.54,39.49-2.43,59.24-.16,3.32.52,4.56,4.2,4.52C118.16,343.21,118.16,343.39,118,335.83ZM146,334.36c-.17,9.29-.17,9.18,11.63,8.93,2.85-.06,3.7-.89,3.56-3.68-1-20.57-2-41.13-2.58-61.7-.14-5.14-2.88-4.28-6-4.57-4-.37-4.26,2-4.37,4.89C147.48,296.15,146.77,314.07,146,334.36ZM189,330.63c-.3,13.13-.31,13,11.73,12.67,3.13-.08,3.49-1.34,3.37-3.9-1-20.74-2-41.48-2.67-62.23-.15-4.26-2.57-3.75-5.27-3.78s-5-.19-5.1,4C190.6,295.12,189.74,312.87,189,330.63Zm135.75,12.59c8.51,0,8.46,0,8.05-8.42-.93-18.92-1.92-37.83-2.59-56.75-.13-3.69-1-5-4.8-4.73-3.2.23-5.44-.09-5.55,4.57-.46,19.26-1.43,38.52-2.26,57.77C317.29,343.22,317.22,343.22,324.77,343.22ZM232,329.89h-.08c0,.84,0,1.67,0,2.5-.24,11-.24,10.82,10.94,10.92,3.61,0,4.41-1,4.24-4.5-1-20.27-2-40.55-2.62-60.84-.14-4.31-2.08-4.55-5.51-4.67-3.69-.12-4.79,1-4.9,4.72C233.52,295.31,232.68,312.6,232,329.89Zm49.89,13.33c8.24,0,8.33,0,8-8.47-.84-18.92-2-37.83-2.52-56.76-.13-4.42-1.92-4.58-5.34-4.68-3.61-.11-4.89.88-5,4.67-.61,19.26-1.49,38.52-2.29,57.78C274.34,343.22,274.32,343.22,281.85,343.22Zm-171.4-74v0c2.5,0,5-.13,7.49,0,3.67.23,3.92-2.13,4.06-4.84.15-2.87-.76-4.36-3.94-4.25-4.65.16-9.33.13-14,0-3-.08-5.2.17-5.12,4.13s1.64,5.42,5.51,4.94A49.84,49.84,0,0,1,110.45,269.25Zm42.74,0v.05c2.66,0,5.33-.06,8,0,3.39.1,3.58-2.15,3.66-4.66s-.25-4.57-3.68-4.44c-4.65.19-9.32.17-14,0-3.27-.11-5.45.27-5.26,4.46.18,3.73,1.69,5,5.28,4.62A54.19,54.19,0,0,1,153.19,269.25Zm43.3-9c-2.5,0-5,.18-7.48,0-3.6-.33-4.1,1.59-4,4.55s.77,4.72,4.25,4.56a118.68,118.68,0,0,1,13.47,0c3.67.23,5.12-1.08,5.2-4.74s-1.63-4.64-4.9-4.37C200.83,260.4,198.65,260.26,196.49,260.26Zm42.76,9v0c2.5,0,5-.13,7.49,0,3.73.25,3.88-2.31,4.06-4.88.19-2.79-.82-4.35-4-4.23-4.49.18-9,.11-13.48,0-3-.06-5.61-.26-5.54,4.16.06,4,1.68,5.34,5.48,4.89A51.84,51.84,0,0,1,239.25,269.25Zm43.16-9c-2.67,0-5.34.12-8,0-3.55-.21-3.57,2-3.54,4.55s.39,4.64,3.78,4.53c4.49-.14,9-.24,13.49,0,3.44.18,5.21-.55,5.32-4.52s-1.57-4.92-5.06-4.56C286.42,260.43,284.41,260.26,282.41,260.27Zm43,0c-2.5,0-5,.18-7.49,0-3.53-.32-4.18,1.48-4.11,4.49s.58,4.8,4.15,4.61a116.58,116.58,0,0,1,13.48,0c3.82.25,4.91-1.31,5-4.89.08-3.87-1.92-4.41-5-4.19C329.43,260.38,327.43,260.26,325.43,260.26ZM213,114c0,1.82.06,3.64,0,5.46s.71,3,2.58,2.57c2.33-.52,6.05,1.92,6.79-1.78.79-4,.21-8.23.2-12.36a1.82,1.82,0,0,0-1.4-1.78c-4.77-1.84-8.15.38-8.16,5.41Z" transform="translate(-13.9 -56.16)"/><path class="cls-3" d="M44.69,319.91c2.49,1.15,6.77-1.42,6.84,2.22s-4.19,2-6.48,2-6.56,1.68-6.58-1.92C38.45,318.33,42.84,321.38,44.69,319.91Z" transform="translate(-13.9 -56.16)"/><path class="cls-3" d="M382.16,324.25c-1.73-.62-5.68,1.41-5.72-2,0-3.58,3.87-1.51,6-2a20,20,0,0,1,4.45,0c1.34,0,2.86.07,2.89,1.88s-1.34,2.1-2.76,2.14S384.06,324.25,382.16,324.25Z" transform="translate(-13.9 -56.16)"/><path class="cls-4" d="M330.48,202.19H106.68c-.14-1.62,1.35-1.72,2.2-2.24q52.76-32.31,105.54-64.54c1.83-1.12,3.36-2.14,5.82-.64C256.5,157.05,292.84,179.2,330.48,202.19Zm-183.17-8.85c1.33-.78,2.49-1.42,3.61-2.11,20.83-12.84,41.72-25.59,62.41-38.65,3.56-2.24,5.92-1.89,9.26.21,20.72,13,41.58,25.8,62.43,38.6,1.35.83,3.09,3.14,4.62.77s-1.18-3-2.51-4a17.24,17.24,0,0,0-1.69-1.07c-21.21-13.17-42.45-26.3-63.59-39.59-2.93-1.84-5.07-1.94-8.06-.06-21.27,13.39-42.66,26.59-64,39.87a30.15,30.15,0,0,0-3.66,2.58,1.57,1.57,0,0,0-.27,2.24A9.14,9.14,0,0,0,147.31,193.34Z" transform="translate(-13.9 -56.16)"/><path class="cls-1" d="M218,256.21c-36.64,0-73.28-.07-109.92.09-4.17,0-5.79-.68-5.63-5.35.36-10.82.08-10.83,11.09-10.83q106.91,0,213.82-.1c4.4,0,6,.88,5.81,5.64-.38,10.54-.1,10.55-10.74,10.55Z" transform="translate(-13.9 -56.16)"/><path class="cls-5" d="M218.1,220.22c36.64,0,73.28.07,109.92-.1,4.22,0,5.27,1.12,5.17,5.24-.27,10.53-.07,10.53-10.85,10.53a25.38,25.38,0,0,0-3.49,0c-3.8.53-5.68-.75-5-4.85a9,9,0,0,0-.16-3,2,2,0,0,0-2-1.81c-1.3,0-1.56.92-1.76,2-.46,2.38,1.25,5.58-1,7-2.48,1.61-5.84.4-8.81.58-1.16.07-2.35-.11-3.49,0-4.59.58-7.52-.41-6.5-6,.24-1.32.49-3.41-1.62-3.58-2.43-.19-2.57,2-2.28,3.54,1,5.42-1.63,6.7-6.37,6a36.11,36.11,0,0,0-5,0c-7,0-7,0-8-6.82-.2-1.39-.38-2.8-2.18-2.75s-2,1.73-1.78,2.94c1.27,6.4-2.27,7.26-7.32,6.66a39.71,39.71,0,0,0-4.5,0c-7,0-7,0-7.92-7-.15-1.14,0-2.52-1.64-2.63s-2.1,1.19-2.35,2.61c-1.28,7-1.3,7-8.34,7h-3c-7,0-7,0-8-6.83-.19-1.36-.31-2.82-2.14-2.76s-2.05,1.7-1.81,2.93c1.25,6.35-2.19,7.33-7.3,6.69a37.33,37.33,0,0,0-4.49,0c-7.18,0-7.18,0-8-6.93-.12-1.13.1-2.55-1.51-2.69s-2.17,1.15-2.45,2.55c-.45,2.22,1.13,5.42-1,6.49s-5.17.48-7.81.58c-1.33,0-2.68-.12-4,0-4.43.51-7.59-.15-6.48-5.87.3-1.54.26-3.77-2.13-3.7-2.57.07-2,2.46-1.75,3.86.87,5.21-1.66,6.36-6.15,5.72a32,32,0,0,0-4.49,0c-7.34,0-7.34,0-8.93-7.07-.29-1.29-.47-2.79-2.37-2.54-1.51.2-1.58,1.47-1.72,2.64-.26,2.12.94,4.87-.68,6.25-2.08,1.75-5.13.52-7.75.7-1.66.12-3.36-.19-5,.06-4.67.72-6.85-.81-6-5.82.25-1.54.38-3.78-2-3.76s-2.09,2.37-1.85,3.81c.84,5.11-1.5,6.32-6.1,5.8-3.12-.35-6.37.29-9.48-.14-8-1.1-2.43-7.32-3.77-11-1-2.86.08-4.73,4-4.71C143.83,220.28,181,220.22,218.1,220.22Z" transform="translate(-13.9 -56.16)"/><path class="cls-5" d="M341.06,196.16c-.14,3.8-3.3,5.43-6.62,3.4-36.93-22.55-73.9-45-110.73-67.77-4.25-2.63-7.26-2.8-11.62-.11-36.67,22.67-73.51,45-110.32,67.49-1.91,1.17-3.8,3.69-6-.11-1.87-3.25-1.09-5,1.89-6.88q54.12-34,108.14-68.17c1.51-1,3-2.41,3.68.79a2,2,0,0,0,2.49,1.25c5-1.27,10.85,3,15.21-2.71.95-1.23,2.64.71,3.8,1.44q31.5,19.77,63,39.65,21.76,13.73,43.5,27.47C339.06,192.93,341.17,193.63,341.06,196.16Z" transform="translate(-13.9 -56.16)"/><path class="cls-6" d="M218.08,206.54H331c3,0,5.92-.72,5.84,4.24-.09,4.71-2.18,5.4-6.18,5.39q-112.89-.12-225.77-.06c-5.36,0-7.39-2.86-5.78-7.93.85-2.67,3-1.57,4.62-1.58,16.81-.09,33.63-.05,50.45-.05Z" transform="translate(-13.9 -56.16)"/><path class="cls-1" d="M217.48,370.21q-61.72,0-123.45,0c-3,0-5.31.23-5.14-4.23.15-3.92,1.24-5.19,5.16-5.19q123.69.12,247.39,0c4,0,5,1.33,5.17,5.17.19,4.41-2.1,4.27-5.18,4.27Q279.45,370.16,217.48,370.21Z" transform="translate(-13.9 -56.16)"/><path class="cls-1" d="M218.08,356.35h-117c-2.81,0-5.46.66-5.38-4,.07-4.46,1.87-5.14,5.71-5.14q116.48.12,232.94,0c3.06,0,5.49,0,5.64,4.25.14,3.95-1,5-5,4.95C296.06,356.29,257.07,356.35,218.08,356.35Z" transform="translate(-13.9 -56.16)"/><path class="cls-7" d="M119.8,284.27c0-2.5.08-5,0-7.48-.08-1.77.07-3.13,2-4.07,3.36-1.67,4.65-4.72,4.23-8.31-.38-3.29.75-4.62,4.06-4.17a13.51,13.51,0,0,0,3.48,0c3.31-.45,5,.49,4.51,4.23a7.61,7.61,0,0,0,4.26,8.3c2,1,1.93,2.34,1.86,4.07q-1.19,30.38-2.3,60.75c-.15,4.1-1.45,6.56-6.16,5.66a24.78,24.78,0,0,0-4.48,0c-8.86,0-8.8,0-9.13-8.67-.64-16.76-1.35-33.52-2-50.27Z" transform="translate(-13.9 -56.16)"/><path class="cls-7" d="M217.52,343.21c-9.29,0-9.18,0-9.53-9.43-.68-18.28-1.48-36.56-2.26-54.84-.12-2.84-.27-5.32,3-7.07,2.84-1.53,3.45-4.8,3.18-7.92-.25-2.77.62-4,3.55-3.72a30.5,30.5,0,0,0,5.49,0c2.46-.2,3.18.8,3,3.19-.34,4,.38,7.76,4.65,9.56,1.91.81,1.58,2.34,1.52,3.77-.91,21.1-1.89,42.2-2.78,63.31-.09,2.29-.87,3.33-3.27,3.17C221.85,343.09,219.68,343.21,217.52,343.21Z" transform="translate(-13.9 -56.16)"/><path class="cls-7" d="M162.83,285.31c0-2.17.16-4.35,0-6.49-.28-3,0-5.28,3.13-7,2.69-1.43,3.33-4.5,3-7.48-.42-3.32.91-4.55,4.15-4.13a17.75,17.75,0,0,0,4,0c2.88-.32,4.41.45,4,3.76-.49,4,.73,7.24,4.63,9.06,2.56,1.19,1.45,3.52,1.38,5.28-.57,16-1.29,31.9-2,47.85-.19,4.32-.74,8.63-.64,12.94.08,3.36-1.16,4.34-4.34,4.13a83.29,83.29,0,0,0-10.48,0c-3.13.19-4.39-.72-4.49-4.12-.54-17.95-1.34-35.89-2.05-53.84Z" transform="translate(-13.9 -56.16)"/><path class="cls-7" d="M260.54,343.21c-9.38,0-9.27,0-9.64-9.39q-1.14-28.65-2.53-57.31c-.08-1.69.07-2.73,1.78-3.56a8.11,8.11,0,0,0,4.68-8.65c-.36-3.5,1.09-4.43,4.2-4.06a14.23,14.23,0,0,0,3,0c3.11-.27,5.33-.2,4.68,4.24a7.4,7.4,0,0,0,4.36,8.25c2,.86,2.05,2.22,2,4-1,21.1-2,42.19-2.81,63.29-.11,2.74-1.26,3.4-3.68,3.23C264.54,343.09,262.53,343.21,260.54,343.21Z" transform="translate(-13.9 -56.16)"/><path class="cls-7" d="M303.35,343.21c-9.28,0-9.11,0-9.48-9-.78-18.94-1.75-37.88-2.64-56.82-.09-1.84-.23-3.44,2-4.51,3.55-1.7,4.81-5,4.45-8.76-.31-3.16,1-4.26,4-3.85a10.91,10.91,0,0,0,2.49,0c3.64-.36,6.37-.21,5.58,4.93a6.84,6.84,0,0,0,4.39,7.68c2.56,1,1.9,2.86,1.83,4.51-.91,20.94-1.93,41.88-2.79,62.82-.11,2.47-1,3.17-3.31,3S305.51,343.21,303.35,343.21Z" transform="translate(-13.9 -56.16)"/><path class="cls-4" d="M118,335.83c.12,7.56.12,7.38-11,7.48-3.68,0-4.36-1.2-4.2-4.52.89-19.75,1.57-39.5,2.43-59.24.13-3.09-.42-6.57,5-6.33,4.17.18,5.41,1.56,5.54,5.36C116.45,296.51,117.2,314.43,118,335.83Z" transform="translate(-13.9 -56.16)"/><path class="cls-4" d="M146,334.36c.8-20.29,1.51-38.21,2.21-56.13.11-2.86.36-5.26,4.37-4.89,3.15.29,5.89-.57,6,4.57.54,20.57,1.61,41.13,2.58,61.7.14,2.79-.71,3.62-3.56,3.68C145.8,343.54,145.8,343.65,146,334.36Z" transform="translate(-13.9 -56.16)"/><path class="cls-4" d="M189,330.64c.72-17.77,1.58-35.52,2.06-53.29.11-4.15,2.26-4,5.1-4s5.12-.48,5.27,3.78c.71,20.75,1.7,41.49,2.67,62.23.12,2.56-.24,3.82-3.37,3.9C188.71,343.63,188.72,343.76,189,330.64Z" transform="translate(-13.9 -56.16)"/><path class="cls-4" d="M324.77,343.22c-7.55,0-7.48,0-7.15-7.56.83-19.25,1.8-38.51,2.26-57.77.11-4.66,2.35-4.34,5.55-4.57,3.77-.26,4.67,1,4.8,4.73.67,18.92,1.66,37.83,2.59,56.75C333.23,343.22,333.28,343.22,324.77,343.22Z" transform="translate(-13.9 -56.16)"/><path class="cls-4" d="M232,329.89c.72-17.29,1.56-34.58,2.07-51.87.11-3.75,1.21-4.84,4.9-4.72,3.43.12,5.37.36,5.51,4.67.65,20.29,1.58,40.57,2.62,60.84.17,3.46-.63,4.53-4.24,4.5-11.18-.1-11.18.06-10.94-10.92,0-.83,0-1.66,0-2.5Z" transform="translate(-13.9 -56.16)"/><path class="cls-4" d="M281.85,343.22c-7.53,0-7.51,0-7.2-7.46.8-19.26,1.68-38.52,2.29-57.78.12-3.79,1.4-4.78,5-4.67,3.42.1,5.21.26,5.34,4.68.56,18.93,1.68,37.84,2.52,56.76C290.18,343.21,290.09,343.22,281.85,343.22Z" transform="translate(-13.9 -56.16)"/><path class="cls-4" d="M110.45,269.25a49.84,49.84,0,0,0-6,0c-3.87.48-5.44-1-5.51-4.94s2.12-4.21,5.12-4.13c4.66.13,9.34.16,14,0,3.18-.11,4.09,1.38,3.94,4.25-.14,2.71-.39,5.07-4.06,4.84-2.49-.15-5,0-7.49,0Z" transform="translate(-13.9 -56.16)"/><path class="cls-4" d="M153.19,269.25a54.19,54.19,0,0,0-6,0c-3.59.41-5.1-.89-5.28-4.62-.19-4.19,2-4.57,5.26-4.46,4.65.17,9.32.19,14,0,3.43-.13,3.76,1.82,3.68,4.44s-.27,4.76-3.66,4.66c-2.66-.07-5.33,0-8,0Z" transform="translate(-13.9 -56.16)"/><path class="cls-4" d="M196.49,260.26c2.16,0,4.34.14,6.49,0,3.27-.27,5,.71,4.9,4.37s-1.53,5-5.2,4.74a118.68,118.68,0,0,0-13.47,0c-3.48.16-4.2-1.57-4.25-4.56s.45-4.88,4-4.55C191.48,260.44,194,260.26,196.49,260.26Z" transform="translate(-13.9 -56.16)"/><path class="cls-4" d="M239.25,269.25a51.84,51.84,0,0,0-6,0c-3.8.45-5.42-.86-5.48-4.89-.07-4.42,2.55-4.22,5.54-4.16,4.49.08,9,.15,13.48,0,3.17-.12,4.18,1.44,4,4.23-.18,2.57-.33,5.13-4.06,4.88-2.49-.17-5,0-7.49,0Z" transform="translate(-13.9 -56.16)"/><path class="cls-1" d="M282.41,260.26a59.81,59.81,0,0,0,6,0c3.49-.36,5.18.56,5.06,4.56s-1.88,4.7-5.32,4.52c-4.49-.24-9-.14-13.49,0-3.39.11-3.75-1.95-3.78-4.53s0-4.76,3.54-4.55C277.07,260.39,279.74,260.27,282.41,260.26Z" transform="translate(-13.9 -56.16)"/><path class="cls-1" d="M325.43,260.26c2,0,4,.12,6,0,3.09-.22,5.09.32,5,4.19-.06,3.58-1.15,5.14-5,4.89a116.58,116.58,0,0,0-13.48,0c-3.57.19-4.09-1.69-4.15-4.61s.58-4.81,4.11-4.49C320.42,260.44,322.93,260.26,325.43,260.26Z" transform="translate(-13.9 -56.16)"/><path class="cls-6" d="M213,114v-2.48c0-5,3.39-7.25,8.16-5.41a1.82,1.82,0,0,1,1.4,1.78c0,4.13.59,8.39-.2,12.36-.74,3.7-4.46,1.26-6.79,1.78-1.87.41-2.66-.7-2.58-2.57S213,115.84,213,114Z" transform="translate(-13.9 -56.16)"/><path class="cls-3" d="M147.31,193.34a9.14,9.14,0,0,1-1.45-1.25,1.57,1.57,0,0,1,.27-2.24,30.15,30.15,0,0,1,3.66-2.58c21.34-13.28,42.73-26.48,64-39.87,3-1.88,5.13-1.78,8.06.06,21.14,13.29,42.38,26.42,63.59,39.59a17.24,17.24,0,0,1,1.69,1.07c1.33,1.06,4,1.79,2.51,4s-3.27.06-4.62-.77c-20.85-12.8-41.71-25.6-62.43-38.6-3.34-2.1-5.7-2.45-9.26-.21-20.69,13.06-41.58,25.81-62.41,38.65C149.8,191.92,148.64,192.56,147.31,193.34Z" transform="translate(-13.9 -56.16)"/></svg>