<svg id="Layer_1" data-name="Layer 1" xmlns="http://www.w3.org/2000/svg" viewBox="0 0 400.16 400.2"><defs><style>.cls-1{fill:#fefefe;}.cls-2{fill:#eff1fe;}.cls-3{fill:#9359d4;}.cls-4{fill:#d2d6fd;}.cls-5{fill:#fbfcfe;}.cls-6{fill:#f9f9fd;}</style></defs><title>img-02</title><path class="cls-1" d="M14,256.29q0-98-.08-195.94c0-3.19.32-4.23,4-4.22q196.19.19,392.37,0c3.16,0,3.82.75,3.82,3.84q-.13,196.19,0,392.38c0,2.85-.3,4-3.7,3.95q-196.44-.16-392.87,0c-3,0-3.57-.65-3.57-3.6Q14.07,354.5,14,256.29ZM89.82,156.22c-3.54,2.13-5.21,5.76-7.48,9-17.22,24.36-26.09,51.69-28.19,81.16-1.31,18.28,1.18,36.33,6.26,54,1.82,6.35,5.1,12.27,5.61,19-2.49.06-5,.09-7.48.2-1.77.07-4.31-.34-4.33,2.12s2.51,2.16,4.28,2.17c8.33,0,16.67-.11,25,.06,6.41.13,12.93-1.06,19.13,2a7.42,7.42,0,0,0,6.8-.44c4.39-2.6,5.58-1.23,5.77,3.53.24,5.82-.7,12.14,4.69,16.68.64.55.41,2.22.46,3.37.52,11,.87,21.95,1.6,32.91.23,3.44-.39,5.26-3.93,6.65a13.19,13.19,0,0,0-8.63,14.5c-2.94,1.57-8.18,1.39-7.94,5.55s5.22,3.83,8.47,4.58c21.28,4.93,42.72,5,64.21,1.66,4.57-.71,9.21-1.42,13.4-3.58,3.34-1.72,3.38-3.86.19-5.77-1.83-1.1-4.1-1.56-5.12-3.76.31-7.12-4.19-10.9-9.85-13.51-2.38-1.11-3.23-2.36-3.1-4.86.35-6.48.14-13,.87-19.44.89-7.92-1.82-16.59,4.58-23.54.85-.91.66-2.85.8-4.33a76,76,0,0,0,.55-8c0-3.41,1.38-4.47,4.82-4.39,11.64.28,23.3.31,34.95.3q74.16-.08,148.32-.23a22.87,22.87,0,0,0,3-.1c1.2-.17,2.4-.64,2.38-2.08s-1.23-1.92-2.44-2c-2.15-.19-4.31-.24-6.47-.34a3.86,3.86,0,0,1,.15-1c11.94-27.79,15.39-56.58,10.95-86.51-4.62-31.08-17.57-58.28-38-81.85-18.54-21.43-41.83-36.22-68.45-45.67-18.07-6.42-36.75-8.74-56-8.27a153.87,153.87,0,0,0-37.21,5.43c-.87-.48-1.75-1-2.62-1.45-29.37-17-67.21.79-69.75,34.86-.09,1.15.07,2.37-1.2,3.05C91.54,141.88,90.58,149,89.82,156.22ZM42.77,324c2.39-.77,6.73,1.26,6.78-2.07.05-4-4.38-2.16-6.86-2.27-2.24-.09-6.24-1.28-6.28,1.89C36.36,325.44,40.55,323.19,42.77,324Zm338.29,0c2.28-.83,6.57,1.36,6.53-2.31,0-3.43-4.25-2-6.64-2s-6.6-1.43-6.55,2.12S378.72,323.24,381.06,324Z" transform="translate(-13.92 -56.13)"/><path class="cls-2" d="M172.49,101.5a153.87,153.87,0,0,1,37.21-5.43c19.22-.47,37.9,1.85,56,8.27,26.62,9.45,49.91,24.24,68.45,45.67,20.39,23.57,33.34,50.77,38,81.85,4.44,29.93,1,58.72-10.95,86.51a3.86,3.86,0,0,0-.15,1c-6.82.07-13.66-.08-20.47.28-3.85.2-4.73-1.15-4.69-4.8.17-18.83.1-37.66.06-56.49,0-6.54-2.13-8.7-8.67-8.77-7.5-.09-15-.19-22.5.05-3.52.11-5.27-.58-4.89-4.59.35-3.8.09-7.66.07-11.5-.09-14.84-6.62-23.52-20.91-27.85-1-.31-2.33,0-3-1.4-1.84-3.84.57-11.09,4.4-13q6-3,12.05-6c3.29-1.66,3.47-3.42.06-5.15q-7.78-4-15.61-7.84c-4.45-2.19-5.48-1.56-5.49,3.6,0,8-.08,16,.32,24,.19,3.86-1,5.46-4.77,6.45-11.38,3-18.31,11.63-19.07,23.39a116.86,116.86,0,0,0-.18,15c.27,4.16-1.39,5.1-5.16,5-7-.24-14-.08-21-.06-8.19,0-9.91,1.73-9.92,10,0,18.49-.08,37,.06,55.49,0,3.47-1,4.66-4.53,4.57-8-.21-16,0-24-.1-1.92,0-4.83,1-5.55-.75a7.5,7.5,0,0,1,1.36-7.51c1.73-2.06,2.63-4.61,1.71-7-1.44-3.68.49-5.33,2.9-7.42,9.42-8.13,13.85-18.39,14.64-31,1-15.69-3.29-31.29-.28-47,.42-2.16.37-3.69,2.81-5.06,9.32-5.23,10.25-21.43,1.31-27.31-3.61-2.38-4.54-4.73-4-8.4.43-3.32-1.89-6.35.37-10.08,5-8.27,4.57-20.94-1.79-26.57-4.42-3.9-5.38-8.13-6.28-13.14C188.25,116.88,181.22,108.6,172.49,101.5Z" transform="translate(-13.92 -56.13)"/><path class="cls-3" d="M172.49,101.5c8.73,7.1,15.76,15.38,17.83,26.84.9,5,1.86,9.24,6.28,13.14,6.36,5.63,6.81,18.3,1.79,26.57-2.26,3.73.06,6.76-.37,10.08-.49,3.67.44,6,4,8.4,8.94,5.88,8,22.08-1.31,27.31-2.44,1.37-2.39,2.9-2.81,5.06-3,15.68,1.26,31.28.28,47-.79,12.59-5.22,22.85-14.64,31-2.41,2.09-4.34,3.74-2.9,7.42.92,2.37,0,4.92-1.71,7a7.5,7.5,0,0,0-1.36,7.51c.72,1.79,3.63.73,5.55.75,8,.09,16-.11,24,.1,3.51.09,4.56-1.1,4.53-4.57-.14-18.5-.08-37-.06-55.49,0-8.27,1.73-10,9.92-10,7,0,14-.18,21,.06,3.77.13,5.43-.81,5.16-5a116.86,116.86,0,0,1,.18-15c.76-11.76,7.69-20.42,19.07-23.39,3.8-1,5-2.59,4.77-6.45-.4-8-.33-16-.32-24,0-5.16,1-5.79,5.49-3.6q7.83,3.87,15.61,7.84c3.41,1.73,3.23,3.49-.06,5.15q-6,3-12.05,6c-3.83,1.92-6.24,9.17-4.4,13,.65,1.36,1.94,1.09,3,1.4,14.29,4.33,20.82,13,20.91,27.85,0,3.84.28,7.7-.07,11.5-.38,4,1.37,4.7,4.89,4.59,7.49-.24,15-.14,22.5-.05,6.54.07,8.66,2.23,8.67,8.77,0,18.83.11,37.66-.06,56.49,0,3.65.84,5,4.69,4.8,6.81-.36,13.65-.21,20.47-.28,2.16.1,4.32.15,6.47.34,1.21.1,2.41.59,2.44,2s-1.18,1.91-2.38,2.08a22.87,22.87,0,0,1-3,.1q-74.16.12-148.32.23c-11.65,0-23.31,0-34.95-.3-3.44-.08-4.84,1-4.82,4.39a76,76,0,0,1-.55,8c-.14,1.48.05,3.42-.8,4.33-6.4,6.95-3.69,15.62-4.58,23.54-.73,6.43-.52,13-.87,19.44-.13,2.5.72,3.75,3.1,4.86,5.66,2.61,10.16,6.39,9.85,13.51-1.49,2.83-3,5.41-6.87,5.56-19,.74-38.1.53-57.14.51-3.77,0-7.24-1-9.2-4.75a13.19,13.19,0,0,1,8.63-14.5c3.54-1.39,4.16-3.21,3.93-6.65-.73-11-1.08-21.94-1.6-32.91,0-1.15.18-2.82-.46-3.37-5.39-4.54-4.45-10.86-4.69-16.68-.19-4.76-1.38-6.13-5.77-3.53a7.42,7.42,0,0,1-6.8.44c-6.2-3.1-12.72-1.91-19.13-2-8.32-.17-16.66,0-25-.06-1.77,0-4.31.32-4.28-2.17s2.56-2,4.33-2.12c2.49-.11,5-.14,7.48-.2,8.15.05,16.3,0,24.45.2,3,.07,3.46-.81,3.07-3.74-.56-4.26-.31-8.63-.32-13,0-14.14.74-28.34-.19-42.42s4-27.87.42-41.89c-.58-2.24-1-3.63-3.08-5-9.24-5.86-9.71-21.36-.58-27.33,3.32-2.17,3.83-4.37,3.58-7.66-.24-3.07,2.15-6.22.31-9.19a28.18,28.18,0,0,1-3.86-13.23c.76-7.22,1.72-14.34,9.1-18.26,1.27-.68,1.11-1.9,1.2-3.05,2.54-34.07,40.38-51.86,69.75-34.86C170.74,100.55,171.62,101,172.49,101.5Zm21.26,120a41.73,41.73,0,0,0-.07-6.33c-.37-2.36-.1-3.54,2.6-4.25,5.29-1.4,7.73-5.35,7.71-11.29s-2.53-9.58-8.37-11.2c-1.84-.51-2.78-1.33-2.34-3a24.49,24.49,0,0,0-.64-13.78c-.46-1.47.27-2.59,1.11-3.65,4-5,4-10.86,3-16.67-.67-3.91-1.9-8.25-6.22-9.57-3.31-1-3.51-3-3.49-5.59a32.86,32.86,0,0,0-3.51-14.91C175.5,104.82,161,96.82,141.91,98.07c-19.85,1.3-35.45,16.25-37.23,35.81-.35,3.85-.34,7.54-5.29,8.69-1.14.26-2.2,2.05-2.77,3.36-3.17,7.22-3.83,14.43.72,21.42.91,1.39,2.12,2.71,1.5,4.54a27.48,27.48,0,0,0-.8,12.83c.29,2.11-.07,3.36-2.64,3.72-4.59.65-6.81,3.91-7.44,8.22-.69,4.75-1,11,3.8,12.38,7.21,2.13,6.09,6.68,6,11.58,0,.31.52.63.86,1C106,209,116.1,200.18,130,195.9c1.47-.46,3.24-.71,3.35-3s-1.62-2.94-3.25-3.76a34.77,34.77,0,0,1-17.63-19.53,9.69,9.69,0,0,0-4-5.29,8.2,8.2,0,0,1-2.22-11.83c2.17-2.73,4.62-5,4.11-8.94-.15-1.12,1-2,2.35-2.2,4.3-.65,6-3.52,6.78-7.48.9-4.41,3.8-7.1,8.35-7.24,3.68-.1,6.89-.72,9.28-3.81,1.11-1.44,2.4-1.44,3.8-.1,7.71,7.35,17.14,9.82,27.51,9.54,1.49,0,3.38-.18,3.54,1.85.58,7.08,11.6,7,10.38,15.33-.05.33,1,.77,1.48,1.24,4.51,4.46,4,10.43-1.28,14a6.68,6.68,0,0,0-3.07,3.59,34.55,34.55,0,0,1-19.1,21.26c-1.47.68-2.54,1.39-2.35,3.29.16,1.62,1,2.25,2.44,2.68C174.78,199.86,185.54,208.7,193.75,221.48Zm-48.12-32.91a31.11,31.11,0,0,0,30-22c.73-2.3,1.47-4,4-5.1,4.09-1.72,4.15-6,.4-8.49-1.08-.72-3-1.09-2.73-2.54.82-4.54-2.54-5.83-5.31-7.79a7.4,7.4,0,0,1-2.77-3.44c-.82-2.65-2.46-3-4.89-3A34.94,34.94,0,0,1,145,130.76c-3.63-2.39-6.79-4.32-10.83-.92-.89.75-2.55.83-3.85.79-4.38-.14-7,1.55-7.29,6.19a7.7,7.7,0,0,1-2.5,4.79c-2.83,2.81-7.82,4-6.78,9.66.08.44-1.76,1.21-2.69,1.86-3.27,2.27-3.19,6.87.51,8.29,2.85,1.09,3.58,3.08,4.36,5.45A31,31,0,0,0,145.63,188.57Zm-33,21.74c-8.89,8.45-14.36,18-14.66,29.65-.44,17.13-.23,34.28-.28,51.42,0,11.82,0,11.71,11.77,11.25,2.94-.11,3.62-1.21,3.57-3.88-.13-7.15-.22-14.31,0-21.46.23-6.82-.86-13.25-4.45-19.11-1.45-2.36-1.7-5-2.27-7.59-.3-1.36-.15-2.81,1.48-3.25,1.79-.47,2.24.94,2.6,2.28.53,1.91.65,4.06,1.63,5.7,4.63,7.78,5.54,16.2,5.06,25-.24,4.32-.06,8.66,0,13,0,1.92-.58,4.15,2.72,4.07,2.5-.06,4.57.1,4.47-3.47-.06-2.12.66-4.57,2.46-5.82,4.15-2.88,3.79-6.45,2.45-10.53a65.78,65.78,0,0,1-1.58-7.3c-1-5.12.8-8.39,5.73-10a50.85,50.85,0,0,1,7.25-1.8c2.47-.4,2.65-1.22,1.33-3.2-4.42-6.64-8.93-13.24-13-20.1-2.35-4-4.82-6.41-9.9-6.71-6.16-.36-8.18-4.18-7.15-10.47C112.19,215.76,113.46,213.61,112.61,210.31Zm61.66,58.88c0-5.82,0-11.64,0-17.46,0-1.75-.41-4.23,2.1-4.35s2.28,2.37,2.32,4.12c.1,4.33.24,8.67.1,13a23.29,23.29,0,0,1-17,22.16c-3.44,1-6.95.79-10.42.69-2.63-.07-3.53.87-3.42,3.47.58,13.93-3.15,13,12,11.61l.5-.06c16.07-1.39,30.17-13.79,32.56-29.7a121.43,121.43,0,0,0-.22-38.29c-1.58-9.34-6.3-17.2-14.66-24.23.53,2.93.77,4.54,1.13,6.12,2,8.68-.5,12-9.5,12.72-1.29.1-2.77-.31-3.65,1-5.54,8.44-11,16.91-16.87,25.84,6.4.61,11.68-4,17.21-1.31C172.51,257.49,170.76,264.47,174.27,269.19ZM145.4,342.08c7,0,14-.11,21,0,3.33.07,5.06-1.39,5.31-4.54.53-6.8.89-13.61,1.41-20.4.21-2.79-1-2.86-3.27-2.3-6.62,1.61-13.29,3-20,4.43-8.63,1.89-11,.39-13.24-8-.39-1.45.09-3.71-2-4.18-3.41-.75-5.87-2.77-8.48-4.93-2.13-1.77-5.14-.89-7.72-.5-1.49.22-1.1,1.75-1,2.91.85,10.94,1.74,21.87,2.49,32.82.23,3.32,1.7,4.75,5,4.7C131.74,342,138.57,342.08,145.4,342.08Zm154.5-55.67h0c0,9.81.07,19.63-.05,29.44,0,2.7.66,3.85,3.6,3.8q12.22-.25,24.45,0c3,.06,4-.9,4-4q-.17-28.69,0-57.38c0-3.17-1.06-4.51-4.33-4.46-8,.13-16,.19-23.95,0-3.34-.09-3.77,1.36-3.73,4.17C300,267.45,299.9,276.93,299.9,286.41Zm-84-.19c0,9.82.11,19.65-.06,29.47-.05,3.05.92,4,4,4,7.82-.18,15.65-.27,23.47,0,3.92.16,4.67-1.31,4.64-4.88q-.24-28.69,0-57.39c0-3-1.23-3.61-3.86-3.57-8,.11-16,.15-24,0-3.34-.07-4.27,1.26-4.22,4.43C216,267.58,215.87,276.9,215.87,286.22ZM274,276.12c-6.16,0-12.32.13-18.47-.06-2.86-.08-3.68.9-3.65,3.7q.19,18.23,0,36.44c0,3.15,1.47,3.46,4,3.43s4.23-.11,4.07-3.37c-.21-4.48-.12-9,0-13.48.17-8,6-14.18,13.57-14.4,7.72-.22,14.16,6,14.44,14.15.16,4.48.18,9,0,13.47-.13,2.91,1,3.71,3.76,3.65s4.34-.27,4.28-3.7c-.17-12.15-.13-24.3,0-36.44,0-2.62-.85-3.49-3.44-3.43C286.26,276.22,280.1,276.12,274,276.12Zm-.09-18.52c6.16,0,12.33,0,18.49,0,2.08,0,3.58-.27,3.48-2.92-.34-9.15.82-18.35-.65-27.45a21.59,21.59,0,0,0-22.49-17.91c-11.54.68-20.43,9.54-20.73,20.95-.21,7.83.06,15.67-.15,23.5-.09,3.18,1.13,4,4.06,3.87C261.86,257.47,267.86,257.6,273.86,257.6Zm-130,136c0-11.63.11-21.94-.06-32.25-.08-4.92,2.24-11.64-1-14.25-3.1-2.47-9.54-.72-14.51-.83a4.17,4.17,0,0,1-.5,0c-2.46-.31-3.18.9-3.08,3.2q.77,17.18,1.36,34.37c.06,1.76.4,2.8,2.41,2.87C134,386.85,139,389,143.82,393.56Zm4.28-110.24c5.2-.18,11.44.92,17.13-2.48,3.64-2.17,5.86-4.59,4-9.27a38.64,38.64,0,0,1-2.1-9.21c-.53-4-2.62-5-6.24-4.14-8.41,1.94-16.82,3.93-25.28,5.68-3.82.79-4.69,2.52-3.89,6.33C134.41,283,134.26,283.07,148.1,283.32Zm-.22,110.26c4.51-4.6,9.09-6.68,14.42-6.85,2.31-.07,3-1.1,3.11-3.39.3-8.8.6-17.61,1.31-26.38.86-10.74,1-10.73-9.66-10.73-9.18,0-9.18,0-9.18,9Zm-2.14-163c4.29-8.56,8.2-16.59,12.33-24.51,1.71-3.26,3.65-6.19-1.74-7.77a2.64,2.64,0,0,1-1.51-1.85c-.45-5.27-4-4.3-7.42-3.95a23.49,23.49,0,0,1-5.92-.21c-6.13-.94-4,8.3-9.7,7.82-.17,0-.62.78-.56,1.14a6.55,6.55,0,0,0,.77,1.82C136.44,212,140.9,220.93,145.74,230.61ZM264,309.3c-.07,10.21-.07,10.21,10.09,10.21l7,0c1.46,0,2.79-.29,2.73-2.11-.19-5.8.86-11.68-.67-17.39-1.38-5.17-5.11-7.51-10.53-7a9.41,9.41,0,0,0-8.57,8.84C263.82,304.29,264,306.8,264,309.3ZM145.73,253.68c5.13-7.89,9.82-15.1,14.53-22.3,1.08-1.65.61-2.39-1.28-2.49-4.54-.25-9.09-.63-10.6,5.29-.32,1.24-1,2.64-2.52,2.79-1.71.17-2.06-1.45-2.69-2.54-3.75-6.51-4-6.61-13.07-4.86Zm18.14-29.18c2.82,0,5.65.1,8.47,0,2.65-.12,4-1.72,3.53-4.32-.85-4.39-1.76-8.8-3-13.08-.92-3-4.17-3.8-6.69-4.61-2.71-.86-2.68,2.34-3.58,3.86-1.68,2.86-3,5.91-4.52,8.88C153.35,224.6,153.35,224.6,163.87,224.5Zm-36.57.1c2.17,0,4.34-.11,6.49,0,3.61.23,3.94-1.12,2.37-4-2.43-4.54-4.64-9.2-6.94-13.8-2.46-4.92-7.3-5.3-10.15-.6-1,1.63-1.19,3.77-1.65,5.71C114.38,224.6,114.39,224.6,127.3,224.6Zm2,178.89v-.16c3.49,0,7-.11,10.47,0,3.14.13,4-1,2.57-3.81-2.37-4.82-6-7.93-11.51-8.38-6.3-.53-12.42-.32-16.41,5.81-2.5,3.83-1.3,6.26,3.4,6.47C121.61,403.62,125.44,403.49,129.27,403.49Zm33.11-.16c3.83,0,7.66.1,11.48,0,4.31-.14,5.58-2.6,3.23-6.23-4.08-6.28-10.39-6.63-16.86-5.84-5.58.69-9.27,4.07-11.39,9.25-.89,2.17-.3,3,2.07,2.88C154.73,403.23,158.56,403.33,162.38,403.33ZM175.61,302.2a25.22,25.22,0,0,1-7.49,3c-7.94,2.27-16.09,1.84-24.21,1.94-1.19,0-3.25-.76-3.42.79a11.19,11.19,0,0,0,1.54,6.66c1.16,2,3,1.6,4.85,1.18,8.4-1.91,16.79-3.88,25.24-5.6C176.69,309.27,178.06,307.08,175.61,302.2ZM144,295.37c-1-3.14,2.56-8.6-5-8.06-6.7.48-10.65,2.9-10.72,7.8s4.07,7.67,11.08,8C146.68,303.54,142.76,298.14,144,295.37ZM97.66,311.72c0,1,0,1.46,0,2,.2,5.23,3.18,8.55,7.64,8.51,5.12,0,7.56-4,7.75-11.13.17-6.62-4.64-3.06-7.27-3.89-.9-.29-2,.06-3-.07C98.91,306.61,96.61,307.68,97.66,311.72Zm176.52-49.57a29.19,29.19,0,0,1-4,0c-3.61-.51-4.33,1.17-4.42,4.5-.12,3.91,1.06,5.47,5,5a26.85,26.85,0,0,1,6.46,0c3.9.49,4.63-1.3,4.7-4.84.07-3.78-1.12-5.19-4.81-4.64A19.74,19.74,0,0,1,274.18,262.15ZM286,266.78c-.61,3.56,0,5.65,4.42,5.43,3.64-.17,5.94-.32,5.53-5-.29-3.27-.09-5.72-4.66-5.39C287.76,262.11,284.82,262,286,266.78ZM256.55,272c3.52.58,5.71.06,5.41-4.42-.24-3.45,0-5.92-4.83-5.75-4,.14-5.57.94-5.34,5.22C252,270.53,252.23,273,256.55,272Zm31.58-89.36c-2.5-1.28-4.54-2.33-6.58-3.35-5.64-2.82-5.64-2.81-5.64,3.4s0,6.17,5.6,3.37C283.56,185,285.58,184,288.13,182.63Z" transform="translate(-13.92 -56.13)"/><path class="cls-2" d="M89.82,156.22a28.18,28.18,0,0,0,3.86,13.23c1.84,3-.55,6.12-.31,9.19.25,3.29-.26,5.49-3.58,7.66-9.13,6-8.66,21.47.58,27.33,2.1,1.33,2.5,2.72,3.08,5,3.6,14-1.36,27.88-.42,41.89s.17,28.28.19,42.42c0,4.32-.24,8.69.32,13,.39,2.93-.08,3.81-3.07,3.74-8.15-.19-16.3-.15-24.45-.2-.51-6.72-3.79-12.64-5.61-19-5.08-17.72-7.57-35.77-6.26-54,2.1-29.47,11-56.8,28.19-81.16C84.61,162,86.28,158.35,89.82,156.22Z" transform="translate(-13.92 -56.13)"/><path class="cls-4" d="M109.37,403.18c2,3.73,5.43,4.75,9.2,4.75,19,0,38.1.23,57.14-.51,3.84-.15,5.38-2.73,6.87-5.56,1,2.2,3.29,2.66,5.12,3.76,3.19,1.91,3.15,4.05-.19,5.77-4.19,2.16-8.83,2.87-13.4,3.58-21.49,3.3-42.93,3.27-64.21-1.66-3.25-.75-8.23-.55-8.47-4.58S106.43,404.75,109.37,403.18Z" transform="translate(-13.92 -56.13)"/><path class="cls-3" d="M42.77,324c-2.22-.84-6.41,1.41-6.36-2.45,0-3.17,4-2,6.28-1.89,2.48.11,6.91-1.71,6.86,2.27C49.5,325.29,45.16,323.26,42.77,324Z" transform="translate(-13.92 -56.13)"/><path class="cls-3" d="M381.06,324c-2.34-.79-6.6,1.32-6.66-2.22s4.18-2.11,6.55-2.12,6.61-1.4,6.64,2C387.63,325.39,383.34,323.2,381.06,324Z" transform="translate(-13.92 -56.13)"/><path class="cls-5" d="M193.75,221.48c-8.21-12.78-19-21.62-33.29-26-1.42-.43-2.28-1.06-2.44-2.68-.19-1.9.88-2.61,2.35-3.29a34.55,34.55,0,0,0,19.1-21.26,6.68,6.68,0,0,1,3.07-3.59c5.31-3.59,5.79-9.56,1.28-14-.47-.47-1.53-.91-1.48-1.24,1.22-8.29-9.8-8.25-10.38-15.33-.16-2-2.05-1.88-3.54-1.85-10.37.28-19.8-2.19-27.51-9.54-1.4-1.34-2.69-1.34-3.8.1-2.39,3.09-5.6,3.71-9.28,3.81-4.55.14-7.45,2.83-8.35,7.24-.8,4-2.48,6.83-6.78,7.48-1.31.2-2.5,1.08-2.35,2.2.51,4-1.94,6.21-4.11,8.94a8.2,8.2,0,0,0,2.22,11.83,9.69,9.69,0,0,1,4,5.29,34.77,34.77,0,0,0,17.63,19.53c1.63.82,3.37,1.29,3.25,3.76s-1.88,2.58-3.35,3c-13.89,4.28-24,13.12-31.33,25.73-.34-.38-.87-.7-.86-1,0-4.9,1.17-9.45-6-11.58-4.76-1.4-4.49-7.63-3.8-12.38.63-4.31,2.85-7.57,7.44-8.22,2.57-.36,2.93-1.61,2.64-3.72a27.48,27.48,0,0,1,.8-12.83c.62-1.83-.59-3.15-1.5-4.54-4.55-7-3.89-14.2-.72-21.42.57-1.31,1.63-3.1,2.77-3.36,5-1.15,4.94-4.84,5.29-8.69,1.78-19.56,17.38-34.51,37.23-35.81,19.07-1.25,33.59,6.75,41.64,23.14a32.86,32.86,0,0,1,3.51,14.91c0,2.61.18,4.58,3.49,5.59,4.32,1.32,5.55,5.66,6.22,9.57,1,5.81.95,11.65-3,16.67-.84,1.06-1.57,2.18-1.11,3.65a24.49,24.49,0,0,1,.64,13.78c-.44,1.7.5,2.52,2.34,3,5.84,1.62,8.34,5.17,8.37,11.2s-2.42,9.89-7.71,11.29c-2.7.71-3,1.89-2.6,4.25A41.73,41.73,0,0,1,193.75,221.48Z" transform="translate(-13.92 -56.13)"/><path class="cls-5" d="M145.63,188.57a31,31,0,0,1-29.7-21.7c-.78-2.37-1.51-4.36-4.36-5.45-3.7-1.42-3.78-6-.51-8.29.93-.65,2.77-1.42,2.69-1.86-1-5.65,4-6.85,6.78-9.66a7.7,7.7,0,0,0,2.5-4.79c.33-4.64,2.91-6.33,7.29-6.19,1.3,0,3,0,3.85-.79,4-3.4,7.2-1.47,10.83.92a34.94,34.94,0,0,0,19.41,5.45c2.43,0,4.07.37,4.89,3a7.4,7.4,0,0,0,2.77,3.44c2.77,2,6.13,3.25,5.31,7.79-.27,1.45,1.65,1.82,2.73,2.54,3.75,2.52,3.69,6.77-.4,8.49-2.57,1.08-3.31,2.8-4,5.1A31.11,31.11,0,0,1,145.63,188.57ZM145.9,176c3.19-.47,6.24-1.14,8.9-3,1.11-.76,1.58-1.73.78-2.94a1.82,1.82,0,0,0-2.62-.57c-4.86,2.9-9.65,3-14.51-.06a1.91,1.91,0,0,0-2.86,1.08c-.49,1.14.19,1.92,1,2.48A19.65,19.65,0,0,0,145.9,176Zm16.57-25.65c-.22-2.4-1.34-4.11-3.94-4.22a4,4,0,1,0-.42,8.07C160.76,154.41,162,152.83,162.47,150.39Zm-28.95,3.9c2.36-.4,3.76-1.77,3.62-4.35s-1.71-3.9-4.24-3.76a3.73,3.73,0,0,0-3.81,4.27C129.23,152.94,130.88,154.22,133.52,154.29Zm30.54,11c2.23-.37,3.79-1.54,3.83-3.83a3.67,3.67,0,0,0-4-4,3.61,3.61,0,0,0-3.8,3.74C160,163.65,161.63,164.92,164.06,165.24Zm-32.34-4c-.47-2.29-1.86-3.77-4-3.79-2.56,0-3.66,1.81-3.72,4.24s1.23,3.54,3.65,3.53C130.42,165.22,131.15,163.31,131.72,161.25Z" transform="translate(-13.92 -56.13)"/><path class="cls-4" d="M112.61,210.31c.85,3.3-.42,5.45-.79,7.7-1,6.29,1,10.11,7.15,10.47,5.08.3,7.55,2.74,9.9,6.71,4.07,6.86,8.58,13.46,13,20.1,1.32,2,1.14,2.8-1.33,3.2a50.85,50.85,0,0,0-7.25,1.8c-4.93,1.57-6.76,4.84-5.73,10a65.78,65.78,0,0,0,1.58,7.3c1.34,4.08,1.7,7.65-2.45,10.53-1.8,1.25-2.52,3.7-2.46,5.82.1,3.57-2,3.41-4.47,3.47-3.3.08-2.71-2.15-2.72-4.07,0-4.32-.21-8.66,0-13,.48-8.8-.43-17.22-5.06-25-1-1.64-1.1-3.79-1.63-5.7-.36-1.34-.81-2.75-2.6-2.28-1.63.44-1.78,1.89-1.48,3.25.57,2.58.82,5.23,2.27,7.59,3.59,5.86,4.68,12.29,4.45,19.11-.23,7.15-.14,14.31,0,21.46,0,2.67-.63,3.77-3.57,3.88-11.78.46-11.8.57-11.77-11.25,0-17.14-.16-34.29.28-51.42C98.25,228.28,103.72,218.76,112.61,210.31Z" transform="translate(-13.92 -56.13)"/><path class="cls-4" d="M174.27,269.19c-3.51-4.72-1.76-11.7-7.8-14.64-5.53-2.68-10.81,1.92-17.21,1.31,5.82-8.93,11.33-17.4,16.87-25.84.88-1.35,2.36-.94,3.65-1,9-.71,11.48-4,9.5-12.72-.36-1.58-.6-3.19-1.13-6.12,8.36,7,13.08,14.89,14.66,24.23a121.43,121.43,0,0,1,.22,38.29c-2.39,15.91-16.49,28.31-32.56,29.7l-.5.06c-15.14,1.36-11.41,2.32-12-11.61-.11-2.6.79-3.54,3.42-3.47,3.47.1,7,.27,10.42-.69a23.29,23.29,0,0,0,17-22.16c.14-4.32,0-8.66-.1-13,0-1.75.3-4.24-2.32-4.12s-2.08,2.6-2.1,4.35C174.23,257.55,174.27,263.37,174.27,269.19Z" transform="translate(-13.92 -56.13)"/><path class="cls-4" d="M145.4,342.08c-6.83,0-13.66-.07-20.48,0-3.33.05-4.8-1.38-5-4.7-.75-11-1.64-21.88-2.49-32.82-.09-1.16-.48-2.69,1-2.91,2.58-.39,5.59-1.27,7.72.5,2.61,2.16,5.07,4.18,8.48,4.93,2.12.47,1.64,2.73,2,4.18,2.24,8.41,4.61,9.91,13.24,8,6.66-1.46,13.33-2.82,20-4.43,2.3-.56,3.48-.49,3.27,2.3-.52,6.79-.88,13.6-1.41,20.4-.25,3.15-2,4.61-5.31,4.54C159.39,342,152.39,342.08,145.4,342.08Z" transform="translate(-13.92 -56.13)"/><path class="cls-6" d="M299.9,286.41c0-9.48.08-19,0-28.43,0-2.81.39-4.26,3.73-4.17,8,.22,16,.16,23.95,0,3.27-.05,4.34,1.29,4.33,4.46q-.14,28.68,0,57.38c0,3.07-1,4-4,4q-12.22-.25-24.45,0c-2.94.05-3.64-1.1-3.6-3.8.12-9.81.05-19.63.05-29.44Zm26,15.52c-.15-10.83,1.74-10.37-10-10.33-12,0-10-1-10.08,10-.1,10.25,0,10.27,10.3,10.25C327.39,311.85,325.76,312.8,325.88,301.93Zm0-29.95c-.15-10.86,1.75-10.43-9.92-10.38-12,0-10-1-10.12,10-.1,10.29,0,10.31,10.25,10.29C327.38,281.85,325.76,282.82,325.88,272Z" transform="translate(-13.92 -56.13)"/><path class="cls-6" d="M215.87,286.22c0-9.32.1-18.64-.05-28,0-3.17.88-4.5,4.22-4.43,8,.16,16,.12,24,0,2.63,0,3.87.54,3.86,3.57q-.18,28.69,0,57.39c0,3.57-.72,5-4.64,4.88-7.82-.3-15.65-.21-23.47,0-3.05.07-4-.91-4-4C216,305.87,215.87,296,215.87,286.22Zm26,15.73c-.15-10.86,1.73-10.39-9.94-10.35-12,0-10-1-10.1,10-.1,10.27,0,10.29,10.28,10.27C243.39,311.85,241.76,312.81,241.88,302Zm-20.06-30.17c0,10.1,0,10.12,10,10.09,11.63,0,10.06,1.09,10.06-10.08,0-10.76,1.68-10.23-10.08-10.19S222,260.67,221.82,271.78Z" transform="translate(-13.92 -56.13)"/><path class="cls-5" d="M274,276.12c6.15,0,12.31.1,18.46,0,2.59-.06,3.47.81,3.44,3.43-.11,12.14-.15,24.29,0,36.44.06,3.43-1.61,3.64-4.28,3.7s-3.89-.74-3.76-3.65c.2-4.48.18-9,0-13.47-.28-8.14-6.72-14.37-14.44-14.15-7.54.22-13.4,6.38-13.57,14.4-.1,4.5-.19,9,0,13.48.16,3.26-1.67,3.34-4.07,3.37s-4-.28-4-3.43q.23-18.22,0-36.44c0-2.8.79-3.78,3.65-3.7C261.63,276.25,267.79,276.12,274,276.12Z" transform="translate(-13.92 -56.13)"/><path class="cls-6" d="M273.86,257.6c-6,0-12-.13-18,0-2.93.09-4.15-.69-4.06-3.87.21-7.83-.06-15.67.15-23.5.3-11.41,9.19-20.27,20.73-20.95a21.59,21.59,0,0,1,22.49,17.91c1.47,9.1.31,18.3.65,27.45.1,2.65-1.4,2.94-3.48,2.92C286.19,257.56,280,257.6,273.86,257.6Zm-16-25.79a16,16,0,0,0,16.21,16,16.05,16.05,0,0,0-.08-32.1A15.88,15.88,0,0,0,257.83,231.81Z" transform="translate(-13.92 -56.13)"/><path class="cls-6" d="M143.82,393.56C139,389,134,386.85,128.4,386.67c-2-.07-2.35-1.11-2.41-2.87q-.58-17.19-1.36-34.37c-.1-2.3.62-3.51,3.08-3.2a4.17,4.17,0,0,0,.5,0c5,.11,11.41-1.64,14.51.83,3.28,2.61,1,9.33,1,14.25C143.93,371.62,143.82,381.93,143.82,393.56Z" transform="translate(-13.92 -56.13)"/><path class="cls-5" d="M148.1,283.32c-13.84-.25-13.69-.28-16.37-13.09-.8-3.81.07-5.54,3.89-6.33,8.46-1.75,16.87-3.74,25.28-5.68,3.62-.84,5.71.16,6.24,4.14a38.64,38.64,0,0,0,2.1,9.21c1.85,4.68-.37,7.1-4,9.27C159.54,284.24,153.3,283.14,148.1,283.32Z" transform="translate(-13.92 -56.13)"/><path class="cls-5" d="M147.88,393.58V355.25c0-9,0-9,9.18-9,10.7,0,10.52,0,9.66,10.73-.71,8.77-1,17.58-1.31,26.38-.08,2.29-.8,3.32-3.11,3.39C157,386.9,152.39,389,147.88,393.58Z" transform="translate(-13.92 -56.13)"/><path class="cls-5" d="M145.74,230.61c-4.84-9.68-9.3-18.59-13.75-27.51a6.55,6.55,0,0,1-.77-1.82c-.06-.36.39-1.16.56-1.14,5.72.48,3.57-8.76,9.7-7.82a23.49,23.49,0,0,0,5.92.21c3.44-.35,7-1.32,7.42,3.95a2.64,2.64,0,0,0,1.51,1.85c5.39,1.58,3.45,4.51,1.74,7.77C153.94,214,150,222.05,145.74,230.61Z" transform="translate(-13.92 -56.13)"/><path class="cls-4" d="M264,309.3c0-2.5-.16-5,0-7.49a9.41,9.41,0,0,1,8.57-8.84c5.42-.49,9.15,1.85,10.53,7,1.53,5.71.48,11.59.67,17.39.06,1.82-1.27,2.11-2.73,2.11l-7,0C263.91,319.51,263.91,319.51,264,309.3Z" transform="translate(-13.92 -56.13)"/><path class="cls-6" d="M145.73,253.68,130.1,229.57c9.09-1.75,9.32-1.65,13.07,4.86.63,1.09,1,2.71,2.69,2.54,1.55-.15,2.2-1.55,2.52-2.79,1.51-5.92,6.06-5.54,10.6-5.29,1.89.1,2.36.84,1.28,2.49C155.55,238.58,150.86,245.79,145.73,253.68Z" transform="translate(-13.92 -56.13)"/><path class="cls-6" d="M163.87,224.5c-10.52.1-10.52.1-5.83-9.3,1.49-3,2.84-6,4.52-8.88.9-1.52.87-4.72,3.58-3.86,2.52.81,5.77,1.56,6.69,4.61,1.28,4.28,2.19,8.69,3,13.08.5,2.6-.88,4.2-3.53,4.32C169.52,224.6,166.69,224.5,163.87,224.5Z" transform="translate(-13.92 -56.13)"/><path class="cls-6" d="M127.3,224.6c-12.91,0-12.92,0-9.88-12.71.46-1.94.66-4.08,1.65-5.71,2.85-4.7,7.69-4.32,10.15.6,2.3,4.6,4.51,9.26,6.94,13.8,1.57,2.92,1.24,4.27-2.37,4C131.64,224.49,129.47,224.6,127.3,224.6Z" transform="translate(-13.92 -56.13)"/><path class="cls-4" d="M129.27,403.49c-3.83,0-7.66.13-11.48,0-4.7-.21-5.9-2.64-3.4-6.47,4-6.13,10.11-6.34,16.41-5.81,5.48.45,9.14,3.56,11.51,8.38,1.39,2.81.57,3.94-2.57,3.81-3.48-.14-7,0-10.47,0Z" transform="translate(-13.92 -56.13)"/><path class="cls-4" d="M162.38,403.33c-3.82,0-7.65-.1-11.47,0-2.37.08-3-.71-2.07-2.88,2.12-5.18,5.81-8.56,11.39-9.25,6.47-.79,12.78-.44,16.86,5.84,2.35,3.63,1.08,6.09-3.23,6.23C170,403.43,166.21,403.33,162.38,403.33Z" transform="translate(-13.92 -56.13)"/><path class="cls-6" d="M175.61,302.2c2.45,4.88,1.08,7.07-3.49,8-8.45,1.72-16.84,3.69-25.24,5.6-1.86.42-3.69.84-4.85-1.18a11.19,11.19,0,0,1-1.54-6.66c.17-1.55,2.23-.77,3.42-.79,8.12-.1,16.27.33,24.21-1.94A25.22,25.22,0,0,0,175.61,302.2Z" transform="translate(-13.92 -56.13)"/><path class="cls-6" d="M144,295.37c-1.21,2.77,2.71,8.17-4.64,7.78-7-.37-11.15-3-11.08-8s4-7.32,10.72-7.8C146.53,286.77,142.94,292.23,144,295.37Z" transform="translate(-13.92 -56.13)"/><path class="cls-5" d="M97.66,311.72c-1-4,1.25-5.11,5.16-4.62,1,.13,2.06-.22,3,.07,2.63.83,7.44-2.73,7.27,3.89-.19,7.17-2.63,11.09-7.75,11.13-4.46,0-7.44-3.28-7.64-8.51C97.64,313.18,97.66,312.68,97.66,311.72Z" transform="translate(-13.92 -56.13)"/><path class="cls-4" d="M274.18,262.15a19.74,19.74,0,0,0,3,0c3.69-.55,4.88.86,4.81,4.64-.07,3.54-.8,5.33-4.7,4.84a26.85,26.85,0,0,0-6.46,0c-4,.49-5.14-1.07-5-5,.09-3.33.81-5,4.42-4.5A29.19,29.19,0,0,0,274.18,262.15Z" transform="translate(-13.92 -56.13)"/><path class="cls-4" d="M286,266.78c-1.19-4.76,1.75-4.67,5.29-4.92,4.57-.33,4.37,2.12,4.66,5.39.41,4.64-1.89,4.79-5.53,5C286,272.43,285.4,270.34,286,266.78Z" transform="translate(-13.92 -56.13)"/><path class="cls-4" d="M256.55,272c-4.32,1-4.58-1.46-4.76-4.95-.23-4.28,1.37-5.08,5.34-5.22,4.82-.17,4.59,2.3,4.83,5.75C262.26,272.05,260.07,272.57,256.55,272Z" transform="translate(-13.92 -56.13)"/><path class="cls-4" d="M288.13,182.63c-2.55,1.32-4.57,2.4-6.62,3.42-5.6,2.8-5.6,2.8-5.6-3.37s0-6.22,5.64-3.4C283.59,180.3,285.63,181.35,288.13,182.63Z" transform="translate(-13.92 -56.13)"/><path class="cls-3" d="M145.9,176a19.65,19.65,0,0,1-9.26-3c-.86-.56-1.54-1.34-1-2.48a1.91,1.91,0,0,1,2.86-1.08c4.86,3,9.65,3,14.51.06a1.82,1.82,0,0,1,2.62.57c.8,1.21.33,2.18-.78,2.94C152.14,174.9,149.09,175.57,145.9,176Z" transform="translate(-13.92 -56.13)"/><path class="cls-3" d="M162.47,150.39c-.47,2.44-1.71,4-4.36,3.85a4,4,0,1,1,.42-8.07C161.13,146.28,162.25,148,162.47,150.39Z" transform="translate(-13.92 -56.13)"/><path class="cls-3" d="M133.52,154.29c-2.64-.07-4.29-1.35-4.43-3.84a3.73,3.73,0,0,1,3.81-4.27c2.53-.14,4.1,1.15,4.24,3.76S135.88,153.89,133.52,154.29Z" transform="translate(-13.92 -56.13)"/><path class="cls-4" d="M164.06,165.24c-2.43-.32-4-1.59-4-4.14a3.61,3.61,0,0,1,3.8-3.74,3.67,3.67,0,0,1,4,4C167.85,163.7,166.29,164.87,164.06,165.24Z" transform="translate(-13.92 -56.13)"/><path class="cls-4" d="M131.72,161.25c-.57,2.06-1.3,4-4.07,4-2.42,0-3.71-1.06-3.65-3.53s1.16-4.27,3.72-4.24C129.86,157.48,131.25,159,131.72,161.25Z" transform="translate(-13.92 -56.13)"/><path class="cls-3" d="M325.88,301.93c-.12,10.87,1.51,9.92-9.74,9.95-10.32,0-10.4,0-10.3-10.25.11-11-1.88-10,10.08-10C327.62,291.56,325.73,291.1,325.88,301.93Zm-10.24-5.77c-5-1.3-5.87,1.12-5.88,5.53s.86,6.23,5.72,6c4.07-.22,6.46-.48,6.19-5.62C321.43,297.57,320.91,294.69,315.64,296.16Z" transform="translate(-13.92 -56.13)"/><path class="cls-3" d="M325.88,272c-.12,10.84,1.5,9.87-9.79,9.9-10.27,0-10.35,0-10.25-10.29.11-10.95-1.86-9.94,10.12-10C327.63,261.55,325.73,261.12,325.88,272Zm-10.21-5.83c-4.84-1.23-6.07.88-5.88,5.41.15,3.91.22,6.46,5.43,6.11,4.16-.29,6.73-.39,6.45-5.75C321.44,267.44,320.77,264.75,315.67,266.15Z" transform="translate(-13.92 -56.13)"/><path class="cls-3" d="M241.88,302c-.12,10.86,1.51,9.9-9.76,9.93-10.3,0-10.38,0-10.28-10.27.11-11-1.87-10,10.1-10C243.61,291.56,241.73,291.09,241.88,302Zm-10.18-5.8c-4.95-1.27-6,1-5.93,5.49,0,4.25.7,6.34,5.66,6,4-.27,6.55-.34,6.23-5.58C237.4,297.7,237,294.67,231.7,296.15Z" transform="translate(-13.92 -56.13)"/><path class="cls-3" d="M221.82,271.78c.22-11.11-1.91-10.13,10-10.18s10.08-.57,10.08,10.19c0,11.17,1.57,10-10.06,10.08C221.82,281.9,221.82,281.88,221.82,271.78Zm4.24-.11c-1.07,4.49.5,6.09,5.28,6,4.43-.09,6.41-.76,6.36-5.87,0-4.9-1.64-6-6.25-6S224.88,267,226.06,271.67Z" transform="translate(-13.92 -56.13)"/><path class="cls-3" d="M257.83,231.81A15.88,15.88,0,0,1,274,215.75a16.05,16.05,0,0,1,.08,32.1A16,16,0,0,1,257.83,231.81Zm15.74,11.78a11.83,11.83,0,1,0,.34-23.65,11.83,11.83,0,1,0-.34,23.65Z" transform="translate(-13.92 -56.13)"/><path class="cls-4" d="M315.64,296.16c5.27-1.47,5.79,1.41,6,5.87.27,5.14-2.12,5.4-6.19,5.62-4.86.27-5.72-1.61-5.72-6S310.63,294.86,315.64,296.16Z" transform="translate(-13.92 -56.13)"/><path class="cls-4" d="M315.67,266.15c5.1-1.4,5.77,1.29,6,5.77.28,5.36-2.29,5.46-6.45,5.75-5.21.35-5.28-2.2-5.43-6.11C309.6,267,310.83,264.92,315.67,266.15Z" transform="translate(-13.92 -56.13)"/><path class="cls-4" d="M231.7,296.15c5.34-1.48,5.7,1.55,6,5.92.32,5.24-2.23,5.31-6.23,5.58-5,.33-5.61-1.76-5.66-6C225.71,297.14,226.75,294.88,231.7,296.15Z" transform="translate(-13.92 -56.13)"/><path class="cls-4" d="M226.06,271.67c-1.18-4.69.84-5.84,5.39-5.86s6.2,1.08,6.25,6c.05,5.11-1.93,5.78-6.36,5.87C226.56,277.76,225,276.16,226.06,271.67Z" transform="translate(-13.92 -56.13)"/><path class="cls-6" d="M273.57,243.59a11.83,11.83,0,1,1,.34-23.65,11.83,11.83,0,1,1-.34,23.65Zm-1.72-14.16c-1.36,4.06,2.35,6.14,5,8.76.87.87,1.91,1.4,3,.25a1.94,1.94,0,0,0-.15-3.05,9.76,9.76,0,0,1-3.87-9.48,2.13,2.13,0,0,0-2.24-2.62c-1.61.06-1.63,1.36-1.69,2.51C271.8,226.78,271.85,227.77,271.85,229.43Z" transform="translate(-13.92 -56.13)"/><path class="cls-3" d="M271.85,229.43c0-1.66-.05-2.65,0-3.63.06-1.15.08-2.45,1.69-2.51a2.13,2.13,0,0,1,2.24,2.62,9.76,9.76,0,0,0,3.87,9.48,1.94,1.94,0,0,1,.15,3.05c-1.08,1.15-2.12.62-3-.25C274.2,235.57,270.49,233.49,271.85,229.43Z" transform="translate(-13.92 -56.13)"/></svg>