<svg id="Layer_1" data-name="Layer 1" xmlns="http://www.w3.org/2000/svg" viewBox="0 0 210.11 195.15"><defs><style>.cls-1{fill:#9359d4;}.cls-2{fill:#fefefe;}.cls-3{fill:#eae2f7;}</style></defs><title>paper_bird</title><path class="cls-1" d="M270.23,193.91,309.74,206c1.27.39,2.55.75,3.81,1.16,2.43.79,4,2.26,4.1,5,.09,2.6-1.47,3.87-3.55,4.89Q292.82,227.48,271.56,238c-10.3,5.07-20.55,10.25-30.94,15.11-3.34,1.57-3.52,2.78-1.41,5.73,14.12,19.79,28,39.76,42.12,59.53,1.93,2.72,2,4.33-.3,6.73-4.68,5-9.1,10.18-13.55,15.35-1.78,2.07-3.75,3.41-6.51,2.35s-3.42-3.3-3.39-6c.09-6.5-.09-13,.08-19.49.08-2.73-.86-4.11-3.41-5.22-26.49-11.59-52.91-23.36-79.41-34.93a15,15,0,0,1-8.32-7.88c-7-15.23-14.45-30.27-21.56-45.46-1.39-3-3.05-4.18-6.43-4.07-7.82.27-15.65.09-23.48.09-2.74,0-5.39-.24-6.9-3-1.59-2.95.26-5.1,1.82-7.22,5.34-7.24,10.84-14.36,16.06-21.67a6.17,6.17,0,0,1,5.8-2.83c16,.12,32,0,48,.14a8.34,8.34,0,0,0,7.22-3.32c8.39-10.13,17-20.07,25.43-30.19a8.94,8.94,0,0,1,7.62-3.65c24.32.19,48.65.16,73,.21,2.82,0,5.79-.3,7.48,2.76,1.9,3.46-.59,5.63-2.43,7.93q-12.32,15.42-24.67,30.81C272.41,191,271.45,192.3,270.23,193.91Zm-67.52,75c2,.15,2.58-1.27,3.36-2.24q44.2-54.79,88.32-109.67c.91-1.12,2.7-2.32,2.05-3.73-.81-1.77-3-.93-4.56-.94q-29.24-.06-58.47,0c-13.86,0-13.48,0-15.23,13.77-2.12,16.56-5,33-7.45,49.56Q206.71,242.21,202.71,268.88Zm11.4-111.11a19.55,19.55,0,0,0-1.92,1.58q-29.1,34.23-58.25,68.44c-1.42,1.67-1,2.8-.24,4.35,3.65,7.46,7.22,15,10.85,22.43,8.31,17.1,8.38,17,26,24.56,4.4,1.89,5.91.2,6.49-3.53,2.12-13.56,4.08-27.15,6.13-40.72,2.91-19.28,6-38.54,8.69-57.86C212.7,170.9,214.35,164.82,214.11,157.77Zm12.57,90.32c-8.9,11-17.52,21.82-26.24,32.52-2.38,2.93.22,3.25,1.88,4q26.7,11.84,53.42,23.57c5.68,2.49,11.46,4.73,17.2,7.08l.57-.81Zm41.89-50.41c-1.3-.52-2.25.95-3.3,2.26-11,13.76-21.87,27.66-33.18,41.18-3.12,3.72-1,5.64.76,8.4,2.09,3.29,4.06.93,5.88,0q31.8-15.54,63.53-31.22c3-1.47,6-2.88,9-4.38.84-.42,2.06-.7,1.92-2s-1.45-1.22-2.31-1.5c-3.15-1.05-6.35-1.95-9.53-2.92ZM133,189.22l15.83,33.34c1.61,3.4,2.82.73,3.8-.39,6.09-7,12.1-14.13,18.1-21.23,3.14-3.71,6.2-7.49,9.69-11.72Zm-4.15,2.05c-5.3,7-10.36,13.82-15.45,20.56-1.93,2.55-1.6,3.8,1.83,3.78q11-.09,21.93,0c2.38,0,3.47-.33,2.1-3C135.73,205.64,132.41,198.61,128.84,191.27ZM262.06,338.41l1,.53c4.38-5,8.75-9.93,13.17-14.86,1.19-1.32.59-2-.68-2.58-4.48-1.93-8.71-4.51-13.53-5.82Z" transform="translate(-107.54 -147.99)"/><path class="cls-2" d="M202.71,268.88q4-26.7,8-53.28c2.5-16.52,5.33-33,7.45-49.56,1.75-13.72,1.37-13.77,15.23-13.77q29.23,0,58.47,0c1.57,0,3.75-.83,4.56.94.65,1.41-1.14,2.61-2.05,3.73q-44.11,54.87-88.32,109.67C205.29,267.61,204.71,269,202.71,268.88Z" transform="translate(-107.54 -147.99)"/><path class="cls-3" d="M214.11,157.77c.24,7-1.41,13.13-2.26,19.25-2.69,19.32-5.78,38.58-8.69,57.86-2,13.57-4,27.16-6.13,40.72-.58,3.73-2.09,5.42-6.49,3.53-17.61-7.6-17.68-7.46-26-24.56-3.63-7.47-7.2-15-10.85-22.43-.76-1.55-1.18-2.68.24-4.35q29.22-34.14,58.25-68.44A19.55,19.55,0,0,1,214.11,157.77Z" transform="translate(-107.54 -147.99)"/><path class="cls-2" d="M226.68,248.09l46.83,66.34-.57.81c-5.74-2.35-11.52-4.59-17.2-7.08q-26.75-11.7-53.42-23.57c-1.66-.73-4.26-1-1.88-4C209.16,269.91,217.78,259.13,226.68,248.09Z" transform="translate(-107.54 -147.99)"/><path class="cls-2" d="M268.57,197.68l32.73,9.9c3.18,1,6.38,1.87,9.53,2.92.86.28,2.17.26,2.31,1.5s-1.08,1.54-1.92,2c-3,1.5-6,2.91-9,4.38Q270.51,234,238.73,249.56c-1.82.89-3.79,3.25-5.88,0-1.75-2.76-3.88-4.68-.76-8.4,11.31-13.52,22.16-27.42,33.18-41.18C266.32,198.63,267.27,197.16,268.57,197.68Z" transform="translate(-107.54 -147.99)"/><path class="cls-2" d="M133,189.22h47.42c-3.49,4.23-6.55,8-9.69,11.72-6,7.1-12,14.2-18.1,21.23-1,1.12-2.19,3.79-3.8.39Z" transform="translate(-107.54 -147.99)"/><path class="cls-3" d="M128.84,191.27c3.57,7.34,6.89,14.37,10.41,21.3,1.37,2.71.28,3.06-2.1,3q-11-.09-21.93,0c-3.43,0-3.76-1.23-1.83-3.78C118.48,205.09,123.54,198.32,128.84,191.27Z" transform="translate(-107.54 -147.99)"/><path class="cls-3" d="M262.06,338.41V315.68c4.82,1.31,9.05,3.89,13.53,5.82,1.27.55,1.87,1.26.68,2.58-4.42,4.93-8.79,9.9-13.17,14.86Z" transform="translate(-107.54 -147.99)"/></svg>