<svg id="Layer_1" data-name="Layer 1" xmlns="http://www.w3.org/2000/svg" viewBox="0 0 96.15 96.09"><defs><style>.cls-1{fill:#fcfcfc;}.cls-2{fill:#9359d4;}.cls-3{fill:#fafafa;}</style></defs><title>rei</title><path class="cls-1" d="M175,304.24h-9v-9c0-27.84.06-55.67-.09-83.5,0-3,.6-3.63,3.59-3.59,14.17.2,28.33.09,42.5.09-.76,1.42-1.46,2.88-2.29,4.27-1.88,3.13-3.15,7.63-5.92,9-3.13,1.51-6.88-2.07-10.45-3.18-1.65-.51-3.33-2-5.12-.41s-1.11,3.64-.84,5.6c.9,6.42,2,12.83,2.6,19.27,1.15,12.1,10.42,21.57,22.25,22.39a23.55,23.55,0,0,0,25.11-18.94c1.61-8.14,2.46-16.43,3.53-24.67.47-3.69-1.32-5-4.8-3.74-3.12,1.13-6.26,2.25-9.25,3.67-1.91.91-2.93.71-3.95-1.2-2.18-4.07-4.57-8-6.87-12,14.33,0,28.67.07,43-.07,2.5,0,3.07.57,3.06,3.07q-.13,46.5-.06,93h-9a7.06,7.06,0,0,0,.24-6,42,42,0,0,0-78.5,0A7.06,7.06,0,0,0,175,304.24Z" transform="translate(-165.91 -208.15)"/><path class="cls-2" d="M216,208.24c2.3,4,4.69,7.95,6.87,12,1,1.91,2,2.11,3.95,1.2,3-1.42,6.13-2.54,9.25-3.67,3.48-1.26,5.27.05,4.8,3.74-1.07,8.24-1.92,16.53-3.53,24.67a23.55,23.55,0,0,1-25.11,18.94c-11.83-.82-21.1-10.29-22.25-22.39-.61-6.44-1.7-12.85-2.6-19.27-.27-2-1-4,.84-5.6s3.47-.1,5.12.41c3.57,1.11,7.32,4.69,10.45,3.18,2.77-1.33,4-5.83,5.92-9,.83-1.39,1.53-2.85,2.29-4.27Zm-22.16,16.9c.49,3.87,1,7.29,1.32,10.74.21,2.42,1.72,2.37,3.48,2.36q15.45,0,30.89,0c1.53,0,3,.14,3.24-2,.38-3.56.88-7.1,1.38-11-2.42.9-4.28,1.56-6.11,2.29-6.34,2.54-6.33,2.54-10-3.49-1.24-2.07-2.54-4.11-4.13-6.67-2.14,3.49-4,6.36-5.69,9.35-1.38,2.47-3,3.15-5.72,1.89S197.07,226.37,193.84,225.14Zm37.53,19.1c-10.78,0-21.26.13-31.73-.07-3.67-.07-3.21,1.59-2.34,3.87,2.7,7,10.52,11.76,18.33,11.08C223.59,258.42,229.71,252.85,231.37,244.24Z" transform="translate(-165.91 -208.15)"/><path class="cls-2" d="M175,304.24a7.06,7.06,0,0,1-.26-6,42,42,0,0,1,78.5,0,7.06,7.06,0,0,1-.24,6h-4c-2.63-8.23-7-15.23-14.25-20.18-1.21-.83-2.51-2.89-4.21-1.09-2.23,2.37-7.16,3-6.46,7.16,1.15,6.78-1.63,11-7.08,14.11h-6c-5.46-3.14-8.25-7.31-7.08-14.1.7-4.07-4.21-4.81-6.45-7.17-1.71-1.8-3,.24-4.21,1.07C186,289,181.6,296,179,304.24Zm27.9-25c7.33,6.4,15.62,6.27,21.93-.05A32.39,32.39,0,0,0,202.9,279.24Zm11.14,19c2.67-.35,4.39-1.87,4.28-4.51s-1.66-4.43-4.37-4.39a4.21,4.21,0,0,0-4.27,4.49C209.64,296.45,211.38,297.93,214,298.22Z" transform="translate(-165.91 -208.15)"/><path class="cls-3" d="M217,304.24c5.45-3.15,8.23-7.33,7.08-14.11-.7-4.12,4.23-4.79,6.46-7.16,1.7-1.8,3,.26,4.21,1.09C242,289,246.37,296,249,304.24Z" transform="translate(-165.91 -208.15)"/><path class="cls-3" d="M179,304.24c2.6-8.25,7-15.23,14.26-20.2,1.21-.83,2.5-2.87,4.21-1.07,2.24,2.36,7.15,3.1,6.45,7.17-1.17,6.79,1.62,11,7.08,14.1Z" transform="translate(-165.91 -208.15)"/><path class="cls-3" d="M193.84,225.14c3.23,1.23,6,2.13,8.7,3.38s4.34.58,5.72-1.89c1.68-3,3.55-5.86,5.69-9.35,1.59,2.56,2.89,4.6,4.13,6.67,3.63,6,3.62,6,10,3.49,1.83-.73,3.69-1.39,6.11-2.29-.5,3.95-1,7.49-1.38,11-.23,2.18-1.71,2-3.24,2q-15.45,0-30.89,0c-1.76,0-3.27.06-3.48-2.36C194.87,232.43,194.33,229,193.84,225.14Z" transform="translate(-165.91 -208.15)"/><path class="cls-3" d="M231.37,244.24c-1.66,8.61-7.78,14.18-15.74,14.88-7.81.68-15.63-4-18.33-11.08-.87-2.28-1.33-3.94,2.34-3.87C210.11,244.37,220.59,244.24,231.37,244.24Z" transform="translate(-165.91 -208.15)"/><path class="cls-3" d="M202.9,279.24a32.39,32.39,0,0,1,21.93-.05C218.52,285.51,210.23,285.64,202.9,279.24Z" transform="translate(-165.91 -208.15)"/><path class="cls-3" d="M214,298.22c-2.66-.29-4.4-1.77-4.36-4.41a4.21,4.21,0,0,1,4.27-4.49c2.71,0,4.27,1.89,4.37,4.39S216.71,297.87,214,298.22Z" transform="translate(-165.91 -208.15)"/></svg>