<svg id="Layer_1" data-name="Layer 1" xmlns="http://www.w3.org/2000/svg" viewBox="0 0 96.09 96.17"><defs><style>.cls-1{fill:#fdfdfd;}.cls-2{fill:#9359d4;}.cls-3{fill:#f8f8f8;}</style></defs><title>seta</title><path class="cls-1" d="M166,208.24c30.83,0,61.67,0,92.5-.09,3,0,3.6.6,3.58,3.59q-.21,44.49,0,89c0,3-.6,3.59-3.58,3.58-30.83-.14-61.67-.08-92.5-.08Zm55.32,48.41c-.87.79-1.8,1.69-2.79,2.53q-15,12.75-30.08,25.48c-8.39,7.08-8.4,7.06-1.07,15.39,3.82,4.35,5.12,4.48,9.43.76q22.63-19.6,45.24-39.24c5.53-4.81,5.53-5.92-.14-10.83Q219.49,231.29,197,211.88c-4.65-4-5.72-3.93-9.77.7-.77.88-1.5,1.78-2.25,2.68-4.37,5.23-4.34,5.82,1,10.4,10.88,9.29,21.8,18.53,32.67,27.83C219.63,254.31,221,254.86,221.32,256.65Z" transform="translate(-166 -208.15)"/><path class="cls-2" d="M221.32,256.65c-.33-1.79-1.69-2.34-2.66-3.16-10.87-9.3-21.79-18.54-32.67-27.83-5.36-4.58-5.39-5.17-1-10.4.75-.9,1.48-1.8,2.25-2.68,4.05-4.63,5.12-4.72,9.77-.7q22.47,19.43,44.92,38.86c5.67,4.91,5.67,6,.14,10.83q-22.61,19.64-45.24,39.24c-4.31,3.72-5.61,3.59-9.43-.76-7.33-8.33-7.32-8.31,1.07-15.39q15.06-12.71,30.08-25.48C219.52,258.34,220.45,257.44,221.32,256.65Zm20.09-.07c-.27-1.78-1.69-2.28-2.63-3.09-14.57-12.68-29.29-25.16-43.69-38-3.68-3.29-4.54-.17-6.32,1.59s-3.19,3.19-.09,5.71c11.49,9.35,22.66,19.08,33.94,28.68,5.17,4.4,5.21,5.12.16,9.43-11.4,9.72-22.72,19.53-34.3,29-3.27,2.68-1.15,4.13.51,5.69,1.43,1.35,2,5,5.51,1.85,14.83-13.12,29.88-26,44.85-38.95C240.08,257.86,240.77,257.17,241.41,256.58Z" transform="translate(-166 -208.15)"/><path class="cls-3" d="M241.41,256.58c-.64.59-1.33,1.28-2.06,1.91-15,13-30,25.83-44.85,38.95-3.53,3.12-4.08-.5-5.51-1.85-1.66-1.56-3.78-3-.51-5.69,11.58-9.49,22.9-19.3,34.3-29,5.05-4.31,5-5-.16-9.43-11.28-9.6-22.45-19.33-33.94-28.68-3.1-2.52-1.79-3.85.09-5.71s2.64-4.88,6.32-1.59c14.4,12.86,29.12,25.34,43.69,38C239.72,254.3,241.14,254.8,241.41,256.58Z" transform="translate(-166 -208.15)"/></svg>